SplineFontDB: 3.2
FontName: TST_Tamil
FullName: TST Tamil Regular
FamilyName: TST Tamil
Weight: Book
Copyright: Based on Noto Serif Tamil,  Copyright 2017 Google Inc. All Rights Reserved.
Version: 0.1
ItalicAngle: 0
UnderlinePosition: -125
UnderlineWidth: 50
Ascent: 800
Descent: 200
InvalidEm: 0
sfntRevision: 0x0000199a
woffMajor: 2
woffMinor: 1
LayerCount: 2
Layer: 0 1 "Back" 1
Layer: 1 1 "Fore" 0
XUID: [1021 231 -1607738659 7400912]
StyleMap: 0x0040
FSType: 0
OS2Version: 4
OS2_WeightWidthSlopeOnly: 1
OS2_UseTypoMetrics: 0
CreationTime: 1490797029
ModificationTime: 1645526917
PfmFamily: 17
TTFWeight: 400
TTFWidth: 5
LineGap: 0
VLineGap: 0
Panose: 2 2 5 2 6 5 5 2 2 4
OS2TypoAscent: 1069
OS2TypoAOffset: 0
OS2TypoDescent: -492
OS2TypoDOffset: 0
OS2TypoLinegap: 0
OS2WinAscent: 1069
OS2WinAOffset: 0
OS2WinDescent: 492
OS2WinDOffset: 0
HheadAscent: 1069
HheadAOffset: 0
HheadDescent: -492
HheadDOffset: 0
OS2SubXSize: 650
OS2SubYSize: 600
OS2SubXOff: 0
OS2SubYOff: 75
OS2SupXSize: 650
OS2SupYSize: 600
OS2SupXOff: 0
OS2SupYOff: 350
OS2StrikeYSize: 50
OS2StrikeYPos: 332
OS2CapHeight: 829
OS2XHeight: 554
OS2Vendor: 'GOOG'
OS2CodePages: 00000001.00000000
OS2UnicodeRanges: 80108003.02002043.00000000.00000000
Lookup: 4 0 0 "'alig' Ancient Ligatures (Obsolete) lookup 13" { "'alig' Ancient Ligatures (Obsolete) lookup 13-1"  } ['alig' ('DFLT' <'dflt' > 'cyrl' <'dflt' > 'deva' <'dflt' > 'gran' <'dflt' > 'latn' <'dflt' > 'taml' <'dflt' > ) ]
Lookup: 4 0 0 "historic ligatures" { "final -m"  "geminated consonants"  "prereform"  } ['alig' ('DFLT' <'dflt' > 'cyrl' <'dflt' > 'deva' <'dflt' > 'gran' <'dflt' > 'latn' <'dflt' > 'taml' <'dflt' > ) ]
Lookup: 4 0 0 "Required Feature lookup 1" { "Required Feature lookup 1 per glyph data 0"  "Required Feature lookup 1 per glyph data 1"  } [' RQD' ('DFLT' <'dflt' > 'deva' <'dflt' > 'latn' <'dflt' > 'taml' <'dflt' > 'tml2' <'dflt' > ) ]

StartChar: .notdef
Encoding: 148 -1 0
Width: 600
Flags: W
LayerCount: 2
Fore
SplineSet
94 5 m 1,0,-1
 94 719 l 1,1,-1
 505 719 l 1,2,-1
 505 5 l 1,3,-1
 94 5 l 1,0,-1
145 56 m 1,4,-1
 454 56 l 1,5,-1
 454 668 l 1,6,-1
 145 668 l 1,7,-1
 145 56 l 1,4,-1
EndSplineSet
Validated: 1
EndChar

StartChar: exclam
Encoding: 3 33 6
Width: 333
GlyphClass: 2
Flags: W
LayerCount: 2
Fore
SplineSet
143 201 m 1,0,-1
 108 714 l 1,1,-1
 224 714 l 1,2,-1
 189 201 l 1,3,-1
 143 201 l 1,0,-1
166 -7 m 256,4,5
 140 -7 140 -7 121.5 8 c 128,-1,6
 103 23 103 23 103 61 c 0,7,8
 103 100 103 100 121.5 114.5 c 128,-1,9
 140 129 140 129 166 129 c 256,10,11
 192 129 192 129 210.5 114.5 c 128,-1,12
 229 100 229 100 229 61 c 0,13,14
 229 23 229 23 210.5 8 c 128,-1,15
 192 -7 192 -7 166 -7 c 256,4,5
EndSplineSet
Validated: 1
EndChar

StartChar: quotedbl
Encoding: 4 34 7
Width: 408
GlyphClass: 2
Flags: W
LayerCount: 2
Fore
SplineSet
275 479 m 1,0,-1
 245 714 l 1,1,-1
 351 714 l 1,2,-1
 321 479 l 1,3,-1
 275 479 l 1,0,-1
87 479 m 1,4,-1
 57 714 l 1,5,-1
 163 714 l 1,6,-1
 133 479 l 1,7,-1
 87 479 l 1,4,-1
EndSplineSet
Validated: 1
EndChar

StartChar: numbersign
Encoding: 5 35 8
Width: 559
GlyphClass: 2
Flags: W
LayerCount: 2
Fore
SplineSet
79 0 m 1,0,-1
 117 203 l 1,1,-1
 25 203 l 1,2,-1
 25 262 l 1,3,-1
 128 262 l 1,4,-1
 166 458 l 1,5,-1
 57 458 l 1,6,-1
 57 517 l 1,7,-1
 177 517 l 1,8,-1
 213 714 l 1,9,-1
 274 714 l 1,10,-1
 237 517 l 1,11,-1
 376 517 l 1,12,-1
 413 714 l 1,13,-1
 473 714 l 1,14,-1
 436 517 l 1,15,-1
 534 517 l 1,16,-1
 534 458 l 1,17,-1
 425 458 l 1,18,-1
 388 262 l 1,19,-1
 502 262 l 1,20,-1
 502 203 l 1,21,-1
 376 203 l 1,22,-1
 338 0 l 1,23,-1
 278 0 l 1,24,-1
 316 203 l 1,25,-1
 177 203 l 1,26,-1
 139 0 l 1,27,-1
 79 0 l 1,0,-1
189 262 m 1,28,-1
 328 262 l 1,29,-1
 365 458 l 1,30,-1
 226 458 l 1,31,-1
 189 262 l 1,28,-1
EndSplineSet
Validated: 1
EndChar

StartChar: percent
Encoding: 6 37 9
Width: 896
GlyphClass: 2
Flags: W
LayerCount: 2
Fore
SplineSet
209 280 m 0,0,1
 123 280 123 280 84 341.5 c 128,-1,2
 45 403 45 403 45 503 c 0,3,4
 45 604 45 604 84 664 c 128,-1,5
 123 724 123 724 210 724 c 0,6,7
 292 724 292 724 332.5 664 c 128,-1,8
 373 604 373 604 373 503 c 0,9,10
 373 403 373 403 332.5 341.5 c 128,-1,11
 292 280 292 280 209 280 c 0,0,1
235 0 m 1,12,-1
 592 714 l 1,13,-1
 657 714 l 1,14,-1
 301 0 l 1,15,-1
 235 0 l 1,12,-1
209 321 m 0,16,17
 250 321 250 321 266 369 c 128,-1,18
 282 417 282 417 282 503 c 0,19,20
 282 588 282 588 266.5 635 c 128,-1,21
 251 682 251 682 210 682 c 256,22,23
 169 682 169 682 152 635 c 128,-1,24
 135 588 135 588 135 503 c 0,25,26
 135 417 135 417 152 369 c 128,-1,27
 169 321 169 321 209 321 c 0,16,17
687 -10 m 0,28,29
 601 -10 601 -10 562 51.5 c 128,-1,30
 523 113 523 113 523 213 c 0,31,32
 523 314 523 314 562 374 c 128,-1,33
 601 434 601 434 688 434 c 0,34,35
 770 434 770 434 810.5 374 c 128,-1,36
 851 314 851 314 851 213 c 0,37,38
 851 113 851 113 810.5 51.5 c 128,-1,39
 770 -10 770 -10 687 -10 c 0,28,29
687 31 m 0,40,41
 728 31 728 31 744 79 c 128,-1,42
 760 127 760 127 760 213 c 0,43,44
 760 298 760 298 744.5 345 c 128,-1,45
 729 392 729 392 688 392 c 256,46,47
 647 392 647 392 630 345 c 128,-1,48
 613 298 613 298 613 213 c 0,49,50
 613 127 613 127 630 79 c 128,-1,51
 647 31 647 31 687 31 c 0,40,41
EndSplineSet
Validated: 1
EndChar

StartChar: quotesingle
Encoding: 7 39 10
Width: 220
GlyphClass: 2
Flags: W
LayerCount: 2
Fore
SplineSet
87 479 m 1,0,-1
 57 714 l 1,1,-1
 163 714 l 1,2,-1
 133 479 l 1,3,-1
 87 479 l 1,0,-1
EndSplineSet
Validated: 1
EndChar

StartChar: parenleft
Encoding: 8 40 11
Width: 346
GlyphClass: 2
Flags: W
LayerCount: 2
Fore
SplineSet
314 -128 m 1,0,1
 222 -91 222 -91 165.5 -33.5 c 128,-1,2
 109 24 109 24 83 110.5 c 128,-1,3
 57 197 57 197 57 317 c 256,4,5
 57 437 57 437 83 522.5 c 128,-1,6
 109 608 109 608 165.5 666 c 128,-1,7
 222 724 222 724 314 760 c 1,8,-1
 314 715 l 1,9,10
 245 674 245 674 212.5 611 c 128,-1,11
 180 548 180 548 170.5 472.5 c 128,-1,12
 161 397 161 397 161 317 c 0,13,14
 161 238 161 238 170.5 162 c 128,-1,15
 180 86 180 86 212.5 23 c 128,-1,16
 245 -40 245 -40 314 -82 c 1,17,-1
 314 -128 l 1,0,1
EndSplineSet
Validated: 1
EndChar

StartChar: parenright
Encoding: 9 41 12
Width: 346
GlyphClass: 2
Flags: W
LayerCount: 2
Fore
SplineSet
32 -128 m 1,0,-1
 32 -82 l 1,1,2
 101 -40 101 -40 133.5 23 c 128,-1,3
 166 86 166 86 175.5 162 c 128,-1,4
 185 238 185 238 185 317 c 0,5,6
 185 397 185 397 175.5 472.5 c 128,-1,7
 166 548 166 548 133.5 611 c 128,-1,8
 101 674 101 674 32 715 c 1,9,-1
 32 760 l 1,10,11
 124 724 124 724 180.5 666 c 128,-1,12
 237 608 237 608 263 522.5 c 128,-1,13
 289 437 289 437 289 317 c 256,14,15
 289 197 289 197 263 110.5 c 128,-1,16
 237 24 237 24 180.5 -33.5 c 128,-1,17
 124 -91 124 -91 32 -128 c 1,0,-1
EndSplineSet
Validated: 1
EndChar

StartChar: asterisk
Encoding: 10 42 13
Width: 500
GlyphClass: 2
Flags: W
LayerCount: 2
Fore
SplineSet
204 378 m 1,0,-1
 229 536 l 1,1,-1
 76 441 l 1,2,-1
 41 519 l 1,3,-1
 209 569 l 1,4,-1
 41 619 l 1,5,-1
 76 698 l 1,6,-1
 230 601 l 1,7,-1
 204 760 l 1,8,-1
 291 760 l 1,9,-1
 263 602 l 1,10,-1
 418 696 l 1,11,-1
 453 618 l 1,12,-1
 284 569 l 1,13,-1
 453 520 l 1,14,-1
 418 443 l 1,15,-1
 263 536 l 1,16,-1
 291 378 l 1,17,-1
 204 378 l 1,0,-1
EndSplineSet
Validated: 1
EndChar

StartChar: plus
Encoding: 11 43 14
Width: 559
GlyphClass: 2
Flags: W
LayerCount: 2
Fore
SplineSet
249 143 m 1,0,-1
 249 328 l 1,1,-1
 65 328 l 1,2,-1
 65 387 l 1,3,-1
 249 387 l 1,4,-1
 249 572 l 1,5,-1
 309 572 l 1,6,-1
 309 387 l 1,7,-1
 494 387 l 1,8,-1
 494 328 l 1,9,-1
 309 328 l 1,10,-1
 309 143 l 1,11,-1
 249 143 l 1,0,-1
EndSplineSet
Validated: 1
EndChar

StartChar: comma
Encoding: 12 44 15
Width: 250
GlyphClass: 2
Flags: W
LayerCount: 2
Fore
SplineSet
30 -154 m 1,0,-1
 30 -112 l 1,1,2
 125 -81 125 -81 125 -22 c 0,3,4
 125 -7 125 -7 114 1 c 128,-1,5
 103 9 103 9 88.5 16 c 128,-1,6
 74 23 74 23 63 35 c 128,-1,7
 52 47 52 47 52 70 c 0,8,9
 52 99 52 99 70.5 114 c 128,-1,10
 89 129 89 129 117 129 c 0,11,12
 148 129 148 129 171 106.5 c 128,-1,13
 194 84 194 84 194 42 c 0,14,15
 194 -22 194 -22 156.5 -75 c 128,-1,16
 119 -128 119 -128 30 -154 c 1,0,-1
EndSplineSet
Validated: 1
EndChar

StartChar: hyphen
Encoding: 13 45 16
Width: 310
GlyphClass: 2
Flags: W
LayerCount: 2
Fore
SplineSet
25 235 m 1,0,-1
 25 310 l 1,1,-1
 285 310 l 1,2,-1
 285 235 l 1,3,-1
 25 235 l 1,0,-1
EndSplineSet
Validated: 1
EndChar

StartChar: period
Encoding: 14 46 17
Width: 250
GlyphClass: 2
Flags: W
LayerCount: 2
Fore
SplineSet
125 -7 m 256,0,1
 99 -7 99 -7 80.5 8 c 128,-1,2
 62 23 62 23 62 61 c 0,3,4
 62 100 62 100 80.5 114.5 c 128,-1,5
 99 129 99 129 125 129 c 256,6,7
 151 129 151 129 169.5 114.5 c 128,-1,8
 188 100 188 100 188 61 c 0,9,10
 188 23 188 23 169.5 8 c 128,-1,11
 151 -7 151 -7 125 -7 c 256,0,1
EndSplineSet
Validated: 1
EndChar

StartChar: slash
Encoding: 15 47 18
Width: 288
GlyphClass: 2
Flags: W
LayerCount: 2
Fore
SplineSet
0 -121 m 1,0,-1
 230 760 l 1,1,-1
 288 760 l 1,2,-1
 59 -121 l 1,3,-1
 0 -121 l 1,0,-1
EndSplineSet
Validated: 1
EndChar

StartChar: zero
Encoding: 16 48 19
Width: 559
GlyphClass: 2
Flags: W
LayerCount: 2
Fore
SplineSet
280 -10 m 0,0,1
 198 -10 198 -10 146 36 c 128,-1,2
 94 82 94 82 69.5 165 c 128,-1,3
 45 248 45 248 45 359 c 256,4,5
 45 470 45 470 69.5 552 c 128,-1,6
 94 634 94 634 146 679 c 128,-1,7
 198 724 198 724 281 724 c 0,8,9
 359 724 359 724 411 679 c 128,-1,10
 463 634 463 634 488.5 551.5 c 128,-1,11
 514 469 514 469 514 358 c 256,12,13
 514 247 514 247 488 164.5 c 128,-1,14
 462 82 462 82 410.5 36 c 128,-1,15
 359 -10 359 -10 280 -10 c 0,0,1
280 44 m 256,16,17
 353 44 353 44 381.5 127 c 128,-1,18
 410 210 410 210 410 358 c 0,19,20
 410 507 410 507 381.5 588.5 c 128,-1,21
 353 670 353 670 281 670 c 0,22,23
 208 670 208 670 178.5 588.5 c 128,-1,24
 149 507 149 507 149 358 c 0,25,26
 149 210 149 210 178 127 c 128,-1,27
 207 44 207 44 280 44 c 256,16,17
EndSplineSet
Validated: 1
EndChar

StartChar: one
Encoding: 17 49 20
Width: 559
GlyphClass: 2
Flags: W
LayerCount: 2
Fore
SplineSet
96 0 m 1,0,-1
 96 42 l 1,1,-1
 163 42 l 2,2,3
 197 42 197 42 221 54.5 c 128,-1,4
 245 67 245 67 245 114 c 2,5,-1
 245 639 l 1,6,7
 207 593 207 593 176.5 564 c 128,-1,8
 146 535 146 535 116 535 c 0,9,10
 94 535 94 535 80 550 c 128,-1,11
 66 565 66 565 66 589 c 1,12,13
 96 597 96 597 129.5 613 c 128,-1,14
 163 629 163 629 212 666 c 2,15,-1
 282 718 l 1,16,-1
 346 718 l 1,17,-1
 346 114 l 2,18,19
 346 67 346 67 370 54.5 c 128,-1,20
 394 42 394 42 428 42 c 2,21,-1
 477 42 l 1,22,-1
 477 0 l 1,23,-1
 96 0 l 1,0,-1
EndSplineSet
Validated: 1
EndChar

StartChar: two
Encoding: 18 50 21
Width: 559
GlyphClass: 2
Flags: W
LayerCount: 2
Fore
SplineSet
51 0 m 1,0,-1
 51 73 l 1,1,-1
 218 266 l 2,2,3
 271 328 271 328 302 373.5 c 128,-1,4
 333 419 333 419 346.5 460 c 128,-1,5
 360 501 360 501 360 547 c 0,6,7
 360 604 360 604 335.5 639 c 128,-1,8
 311 674 311 674 258 674 c 0,9,10
 213 674 213 674 189 653 c 128,-1,11
 165 632 165 632 156.5 598.5 c 128,-1,12
 148 565 148 565 148 525 c 1,13,14
 112 525 112 525 87 538.5 c 128,-1,15
 62 552 62 552 62 590 c 0,16,17
 62 648 62 648 111.5 686 c 128,-1,18
 161 724 161 724 258 724 c 0,19,20
 353 724 353 724 407 678.5 c 128,-1,21
 461 633 461 633 461 557 c 0,22,23
 461 487 461 487 417 420.5 c 128,-1,24
 373 354 373 354 294 267 c 2,25,-1
 125 80 l 1,26,-1
 356 80 l 2,27,28
 401 80 401 80 417 103 c 128,-1,29
 433 126 433 126 440 155 c 2,30,-1
 444 173 l 1,31,-1
 486 173 l 1,32,-1
 481 0 l 1,33,-1
 51 0 l 1,0,-1
EndSplineSet
Validated: 1
Substitution2: "'subs' Subscript lookup 12 subtable" twoinferior
Substitution2: "'sups' Superscript lookup 11 subtable" twosuperior
AlternateSubs2: "'aalt' Access All Alternates lookup 2 per glyph data 1" twoinferior twosuperior
EndChar

StartChar: three
Encoding: 19 51 22
Width: 559
GlyphClass: 2
Flags: W
LayerCount: 2
Fore
SplineSet
247 -10 m 0,0,1
 148 -10 148 -10 103 23.5 c 128,-1,2
 58 57 58 57 58 101 c 0,3,4
 58 131 58 131 75.5 148 c 128,-1,5
 93 165 93 165 121 165 c 1,6,7
 121 113 121 113 154 78.5 c 128,-1,8
 187 44 187 44 248 44 c 0,9,10
 288 44 288 44 321.5 59.5 c 128,-1,11
 355 75 355 75 376 110 c 128,-1,12
 397 145 397 145 397 205 c 0,13,14
 397 268 397 268 348.5 306 c 128,-1,15
 300 344 300 344 216 344 c 2,16,-1
 184 344 l 1,17,-1
 184 395 l 1,18,-1
 216 395 l 2,19,20
 260 395 260 395 295.5 414 c 128,-1,21
 331 433 331 433 352 468 c 128,-1,22
 373 503 373 503 373 550 c 0,23,24
 373 609 373 609 348.5 641.5 c 128,-1,25
 324 674 324 674 266 674 c 0,26,27
 221 674 221 674 197 653 c 128,-1,28
 173 632 173 632 164.5 598.5 c 128,-1,29
 156 565 156 565 156 525 c 1,30,31
 120 525 120 525 95 538.5 c 128,-1,32
 70 552 70 552 70 590 c 0,33,34
 70 648 70 648 119.5 686 c 128,-1,35
 169 724 169 724 266 724 c 0,36,37
 361 724 361 724 418.5 682.5 c 128,-1,38
 476 641 476 641 476 565 c 0,39,40
 476 520 476 520 455 482.5 c 128,-1,41
 434 445 434 445 398 418.5 c 128,-1,42
 362 392 362 392 316 381 c 1,43,44
 344 378 344 378 376 368.5 c 128,-1,45
 408 359 408 359 436.5 339 c 128,-1,46
 465 319 465 319 483 286.5 c 128,-1,47
 501 254 501 254 501 204 c 0,48,49
 501 144 501 144 478 102.5 c 128,-1,50
 455 61 455 61 417 36.5 c 128,-1,51
 379 12 379 12 334.5 1 c 128,-1,52
 290 -10 290 -10 247 -10 c 0,0,1
EndSplineSet
Validated: 1
Substitution2: "'subs' Subscript lookup 12 subtable" threeinferior
Substitution2: "'sups' Superscript lookup 11 subtable" threesuperior
AlternateSubs2: "'aalt' Access All Alternates lookup 2 per glyph data 1" threeinferior threesuperior
EndChar

StartChar: four
Encoding: 20 52 23
Width: 559
GlyphClass: 2
Flags: W
LayerCount: 2
Fore
SplineSet
215 0 m 1,0,-1
 215 42 l 1,1,-1
 243 42 l 2,2,3
 277 42 277 42 301 54.5 c 128,-1,4
 325 67 325 67 325 114 c 2,5,-1
 325 196 l 1,6,-1
 17 196 l 1,7,-1
 17 237 l 1,8,-1
 326 714 l 1,9,-1
 421 714 l 1,10,-1
 421 252 l 1,11,-1
 545 252 l 1,12,-1
 545 196 l 1,13,-1
 421 196 l 1,14,-1
 421 114 l 2,15,16
 421 67 421 67 445 54.5 c 128,-1,17
 469 42 469 42 503 42 c 2,18,-1
 516 42 l 1,19,-1
 516 0 l 1,20,-1
 215 0 l 1,0,-1
89 252 m 1,21,-1
 325 252 l 1,22,-1
 325 437 l 2,23,24
 325 466 325 466 325.5 502.5 c 128,-1,25
 326 539 326 539 328 576 c 128,-1,26
 330 613 330 613 332 644 c 1,27,28
 327 634 327 634 316 614 c 128,-1,29
 305 594 305 594 291 570.5 c 128,-1,30
 277 547 277 547 264 525.5 c 128,-1,31
 251 504 251 504 242 490 c 2,32,-1
 89 252 l 1,21,-1
EndSplineSet
Validated: 1
Substitution2: "'subs' Subscript lookup 12 subtable" fourinferior
Substitution2: "'sups' Superscript lookup 11 subtable" foursuperior
AlternateSubs2: "'aalt' Access All Alternates lookup 2 per glyph data 1" fourinferior foursuperior
EndChar

StartChar: five
Encoding: 21 53 24
Width: 559
GlyphClass: 2
Flags: W
LayerCount: 2
Fore
SplineSet
244 -10 m 0,0,1
 170 -10 170 -10 129 6 c 128,-1,2
 88 22 88 22 71.5 45.5 c 128,-1,3
 55 69 55 69 55 91 c 0,4,5
 55 119 55 119 70.5 134.5 c 128,-1,6
 86 150 86 150 118 150 c 1,7,8
 118 107 118 107 148 78 c 128,-1,9
 178 49 178 49 239 49 c 0,10,11
 280 49 280 49 312.5 65 c 128,-1,12
 345 81 345 81 363.5 118 c 128,-1,13
 382 155 382 155 382 218 c 0,14,15
 382 297 382 297 340.5 335.5 c 128,-1,16
 299 374 299 374 230 374 c 0,17,18
 178 374 178 374 152 367 c 128,-1,19
 126 360 126 360 107 352 c 1,20,-1
 83 359 l 1,21,-1
 115 713 l 1,22,-1
 449 713 l 1,23,-1
 454 562 l 1,24,-1
 412 562 l 1,25,-1
 408 592 l 2,26,27
 405 613 405 613 395.5 623 c 128,-1,28
 386 633 386 633 354 633 c 2,29,-1
 160 633 l 1,30,-1
 141 413 l 1,31,32
 156 418 156 418 185 423.5 c 128,-1,33
 214 429 214 429 258 429 c 0,34,35
 323 429 323 429 374.5 405.5 c 128,-1,36
 426 382 426 382 456 335.5 c 128,-1,37
 486 289 486 289 486 218 c 0,38,39
 486 150 486 150 457.5 98.5 c 128,-1,40
 429 47 429 47 375 18.5 c 128,-1,41
 321 -10 321 -10 244 -10 c 0,0,1
EndSplineSet
Validated: 1
EndChar

StartChar: six
Encoding: 22 54 25
Width: 559
GlyphClass: 2
Flags: W
LayerCount: 2
Fore
SplineSet
293 -10 m 0,0,1
 227 -10 227 -10 174.5 27.5 c 128,-1,2
 122 65 122 65 91.5 146.5 c 128,-1,3
 61 228 61 228 61 360 c 0,4,5
 61 431 61 431 77 496.5 c 128,-1,6
 93 562 93 562 125 613.5 c 128,-1,7
 157 665 157 665 206.5 694.5 c 128,-1,8
 256 724 256 724 322 724 c 0,9,10
 405 724 405 724 446 692 c 128,-1,11
 487 660 487 660 487 619 c 0,12,13
 487 559 487 559 410 559 c 1,14,15
 410 608 410 608 390 642 c 128,-1,16
 370 676 370 676 322 676 c 0,17,18
 247 676 247 676 208 601.5 c 128,-1,19
 169 527 169 527 164 382 c 1,20,21
 189 402 189 402 223.5 418 c 128,-1,22
 258 434 258 434 307 434 c 0,23,24
 399 434 399 434 453.5 379.5 c 128,-1,25
 508 325 508 325 508 229 c 0,26,27
 508 159 508 159 482.5 105 c 128,-1,28
 457 51 457 51 409 20.5 c 128,-1,29
 361 -10 361 -10 293 -10 c 0,0,1
296 45 m 0,30,31
 349 45 349 45 377.5 86.5 c 128,-1,32
 406 128 406 128 406 219 c 0,33,34
 406 305 406 305 375.5 344 c 128,-1,35
 345 383 345 383 287 383 c 0,36,37
 248 383 248 383 215.5 364.5 c 128,-1,38
 183 346 183 346 163 325 c 1,39,40
 165 175 165 175 200.5 110 c 128,-1,41
 236 45 236 45 296 45 c 0,30,31
EndSplineSet
Validated: 1
EndChar

StartChar: seven
Encoding: 23 55 26
Width: 559
GlyphClass: 2
Flags: W
LayerCount: 2
Fore
SplineSet
190 0 m 1,0,-1
 426 633 l 1,1,-1
 163 633 l 2,2,3
 110 633 110 633 105 582 c 2,4,-1
 101 532 l 1,5,-1
 59 532 l 1,6,-1
 64 713 l 1,7,-1
 511 713 l 1,8,-1
 511 684 l 1,9,-1
 265 0 l 1,10,-1
 190 0 l 1,0,-1
EndSplineSet
Validated: 1
EndChar

StartChar: eight
Encoding: 24 56 27
Width: 559
GlyphClass: 2
Flags: W
LayerCount: 2
Fore
SplineSet
273 -10 m 0,0,1
 198 -10 198 -10 147.5 15.5 c 128,-1,2
 97 41 97 41 71.5 84 c 128,-1,3
 46 127 46 127 46 179 c 0,4,5
 46 227 46 227 66 260 c 128,-1,6
 86 293 86 293 120.5 317 c 128,-1,7
 155 341 155 341 198 362 c 1,8,9
 141 394 141 394 105 438 c 128,-1,10
 69 482 69 482 69 545 c 0,11,12
 69 591 69 591 91 632 c 128,-1,13
 113 673 113 673 160.5 698.5 c 128,-1,14
 208 724 208 724 285 724 c 0,15,16
 379 724 379 724 430.5 675.5 c 128,-1,17
 482 627 482 627 482 552 c 0,18,19
 482 486 482 486 445 449.5 c 128,-1,20
 408 413 408 413 347 383 c 1,21,22
 421 348 421 348 467 302 c 128,-1,23
 513 256 513 256 513 191 c 0,24,25
 513 96 513 96 448 43 c 128,-1,26
 383 -10 383 -10 273 -10 c 0,0,1
298 406 m 1,27,28
 354 434 354 434 373.5 468 c 128,-1,29
 393 502 393 502 393 554 c 0,30,31
 393 585 393 585 382 613 c 128,-1,32
 371 641 371 641 346 659 c 128,-1,33
 321 677 321 677 279 677 c 0,34,35
 223 677 223 677 193 643 c 128,-1,36
 163 609 163 609 163 557 c 0,37,38
 163 503 163 503 197 470 c 128,-1,39
 231 437 231 437 298 406 c 1,27,28
278 36 m 0,40,41
 343 36 343 36 382.5 73.5 c 128,-1,42
 422 111 422 111 422 169 c 0,43,44
 422 220 422 220 382.5 258 c 128,-1,45
 343 296 343 296 246 338 c 1,46,47
 199 313 199 313 171 272 c 128,-1,48
 143 231 143 231 143 175 c 0,49,50
 143 113 143 113 177 74.5 c 128,-1,51
 211 36 211 36 278 36 c 0,40,41
EndSplineSet
Validated: 1
EndChar

StartChar: nine
Encoding: 25 57 28
Width: 559
GlyphClass: 2
Flags: W
LayerCount: 2
Fore
SplineSet
227 -11 m 0,0,1
 171 -11 171 -11 139 2 c 128,-1,2
 107 15 107 15 94.5 34.5 c 128,-1,3
 82 54 82 54 82 75 c 0,4,5
 82 94 82 94 91.5 106.5 c 128,-1,6
 101 119 101 119 112 123 c 1,7,8
 126 92 126 92 153.5 68 c 128,-1,9
 181 44 181 44 228 44 c 0,10,11
 311 44 311 44 350.5 118 c 128,-1,12
 390 192 390 192 395 343 c 1,13,14
 373 317 373 317 337 296 c 128,-1,15
 301 275 301 275 248 275 c 0,16,17
 161 275 161 275 106 326 c 128,-1,18
 51 377 51 377 51 478 c 0,19,20
 51 550 51 550 76.5 605.5 c 128,-1,21
 102 661 102 661 150 692.5 c 128,-1,22
 198 724 198 724 265 724 c 0,23,24
 333 724 333 724 385.5 689 c 128,-1,25
 438 654 438 654 468 580 c 128,-1,26
 498 506 498 506 498 388 c 0,27,28
 498 309 498 309 483 237.5 c 128,-1,29
 468 166 468 166 435.5 110 c 128,-1,30
 403 54 403 54 351.5 21.5 c 128,-1,31
 300 -11 300 -11 227 -11 c 0,0,1
270 334 m 0,32,33
 319 334 319 334 351 358.5 c 128,-1,34
 383 383 383 383 396 415 c 1,35,36
 394 549 394 549 358.5 609 c 128,-1,37
 323 669 323 669 265 669 c 0,38,39
 213 669 213 669 183.5 622.5 c 128,-1,40
 154 576 154 576 154 488 c 0,41,42
 154 406 154 406 183 370 c 128,-1,43
 212 334 212 334 270 334 c 0,32,33
EndSplineSet
Validated: 1
EndChar

StartChar: colon
Encoding: 26 58 29
Width: 286
GlyphClass: 2
Flags: W
LayerCount: 2
Fore
SplineSet
144 405 m 256,0,1
 118 405 118 405 99.5 420 c 128,-1,2
 81 435 81 435 81 473 c 0,3,4
 81 512 81 512 99.5 526.5 c 128,-1,5
 118 541 118 541 144 541 c 256,6,7
 170 541 170 541 188.5 526.5 c 128,-1,8
 207 512 207 512 207 473 c 0,9,10
 207 435 207 435 188.5 420 c 128,-1,11
 170 405 170 405 144 405 c 256,0,1
144 -7 m 256,12,13
 118 -7 118 -7 99.5 8 c 128,-1,14
 81 23 81 23 81 61 c 0,15,16
 81 100 81 100 99.5 114.5 c 128,-1,17
 118 129 118 129 144 129 c 256,18,19
 170 129 170 129 188.5 114.5 c 128,-1,20
 207 100 207 100 207 61 c 0,21,22
 207 23 207 23 188.5 8 c 128,-1,23
 170 -7 170 -7 144 -7 c 256,12,13
EndSplineSet
Validated: 1
EndChar

StartChar: semicolon
Encoding: 27 59 30
Width: 286
GlyphClass: 2
Flags: W
LayerCount: 2
Fore
SplineSet
144 405 m 256,0,1
 118 405 118 405 99.5 420 c 128,-1,2
 81 435 81 435 81 473 c 0,3,4
 81 512 81 512 99.5 526.5 c 128,-1,5
 118 541 118 541 144 541 c 256,6,7
 170 541 170 541 188.5 526.5 c 128,-1,8
 207 512 207 512 207 473 c 0,9,10
 207 435 207 435 188.5 420 c 128,-1,11
 170 405 170 405 144 405 c 256,0,1
48 -154 m 1,12,-1
 48 -112 l 1,13,14
 143 -81 143 -81 143 -22 c 0,15,16
 143 -7 143 -7 132 1 c 128,-1,17
 121 9 121 9 106.5 16 c 128,-1,18
 92 23 92 23 81 35 c 128,-1,19
 70 47 70 47 70 70 c 0,20,21
 70 99 70 99 88.5 114 c 128,-1,22
 107 129 107 129 135 129 c 0,23,24
 166 129 166 129 189 106.5 c 128,-1,25
 212 84 212 84 212 42 c 0,26,27
 212 -22 212 -22 174.5 -75 c 128,-1,28
 137 -128 137 -128 48 -154 c 1,12,-1
EndSplineSet
Validated: 1
EndChar

StartChar: less
Encoding: 28 60 31
Width: 559
GlyphClass: 2
Flags: W
LayerCount: 2
Fore
SplineSet
494 110 m 1,0,-1
 65 340 l 1,1,-1
 65 375 l 1,2,-1
 494 606 l 1,3,-1
 494 539 l 1,4,-1
 158 357 l 1,5,-1
 494 177 l 1,6,-1
 494 110 l 1,0,-1
EndSplineSet
Validated: 1
EndChar

StartChar: equal
Encoding: 29 61 32
Width: 559
GlyphClass: 2
Flags: W
LayerCount: 2
Fore
SplineSet
65 426 m 1,0,-1
 65 485 l 1,1,-1
 494 485 l 1,2,-1
 494 426 l 1,3,-1
 65 426 l 1,0,-1
65 229 m 1,4,-1
 65 288 l 1,5,-1
 494 288 l 1,6,-1
 494 229 l 1,7,-1
 65 229 l 1,4,-1
EndSplineSet
Validated: 1
EndChar

StartChar: greater
Encoding: 30 62 33
Width: 559
GlyphClass: 2
Flags: W
LayerCount: 2
Fore
SplineSet
65 110 m 1,0,-1
 65 177 l 1,1,-1
 401 357 l 1,2,-1
 65 539 l 1,3,-1
 65 606 l 1,4,-1
 494 375 l 1,5,-1
 494 340 l 1,6,-1
 65 110 l 1,0,-1
EndSplineSet
Validated: 1
EndChar

StartChar: question
Encoding: 31 63 34
Width: 500
GlyphClass: 2
Flags: W
LayerCount: 2
Fore
SplineSet
194 201 m 1,0,-1
 194 353 l 1,1,2
 281 388 281 388 314 444 c 128,-1,3
 347 500 347 500 347 560 c 0,4,5
 347 612 347 612 321.5 643.5 c 128,-1,6
 296 675 296 675 238 675 c 0,7,8
 197 675 197 675 172 657.5 c 128,-1,9
 147 640 147 640 136.5 611 c 128,-1,10
 126 582 126 582 126 547 c 1,11,12
 90 547 90 547 66.5 563.5 c 128,-1,13
 43 580 43 580 43 612 c 0,14,15
 43 660 43 660 88 692 c 128,-1,16
 133 724 133 724 230 724 c 0,17,18
 293 724 293 724 342.5 702.5 c 128,-1,19
 392 681 392 681 420.5 640.5 c 128,-1,20
 449 600 449 600 449 543 c 0,21,22
 449 461 449 461 398.5 406.5 c 128,-1,23
 348 352 348 352 255 314 c 1,24,-1
 255 201 l 1,25,-1
 194 201 l 1,0,-1
223 -7 m 256,26,27
 197 -7 197 -7 178.5 8 c 128,-1,28
 160 23 160 23 160 61 c 0,29,30
 160 100 160 100 178.5 114.5 c 128,-1,31
 197 129 197 129 223 129 c 256,32,33
 249 129 249 129 267.5 114.5 c 128,-1,34
 286 100 286 100 286 61 c 0,35,36
 286 23 286 23 267.5 8 c 128,-1,37
 249 -7 249 -7 223 -7 c 256,26,27
EndSplineSet
Validated: 1
EndChar

StartChar: bracketleft
Encoding: 32 91 35
Width: 360
GlyphClass: 2
Flags: W
LayerCount: 2
Fore
SplineSet
100 -128 m 1,0,-1
 100 760 l 1,1,-1
 323 760 l 1,2,-1
 323 718 l 1,3,-1
 280 718 l 2,4,5
 246 718 246 718 222 705.5 c 128,-1,6
 198 693 198 693 198 646 c 2,7,-1
 198 -14 l 2,8,9
 198 -61 198 -61 222 -73.5 c 128,-1,10
 246 -86 246 -86 280 -86 c 2,11,-1
 323 -86 l 1,12,-1
 323 -128 l 1,13,-1
 100 -128 l 1,0,-1
EndSplineSet
Validated: 1
EndChar

StartChar: backslash
Encoding: 33 92 36
Width: 288
GlyphClass: 2
Flags: W
LayerCount: 2
Fore
SplineSet
229 -121 m 1,0,-1
 0 760 l 1,1,-1
 58 760 l 1,2,-1
 288 -121 l 1,3,-1
 229 -121 l 1,0,-1
EndSplineSet
Validated: 1
EndChar

StartChar: bracketright
Encoding: 34 93 37
Width: 360
GlyphClass: 2
Flags: W
LayerCount: 2
Fore
SplineSet
37 -128 m 1,0,-1
 37 -86 l 1,1,-1
 80 -86 l 2,2,3
 114 -86 114 -86 138 -73.5 c 128,-1,4
 162 -61 162 -61 162 -14 c 2,5,-1
 162 646 l 2,6,7
 162 693 162 693 138 705.5 c 128,-1,8
 114 718 114 718 80 718 c 2,9,-1
 37 718 l 1,10,-1
 37 760 l 1,11,-1
 260 760 l 1,12,-1
 260 -128 l 1,13,-1
 37 -128 l 1,0,-1
EndSplineSet
Validated: 1
EndChar

StartChar: asciicircum
Encoding: 35 94 38
Width: 559
GlyphClass: 2
Flags: W
LayerCount: 2
Fore
SplineSet
51 266 m 1,0,-1
 261 714 l 1,1,-1
 296 714 l 1,2,-1
 507 266 l 1,3,-1
 440 266 l 1,4,-1
 278 622 l 1,5,-1
 118 266 l 1,6,-1
 51 266 l 1,0,-1
EndSplineSet
Validated: 1
EndChar

StartChar: underscore
Encoding: 36 95 39
Width: 459
GlyphClass: 2
Flags: W
LayerCount: 2
Fore
SplineSet
-5 -142 m 1,0,-1
 -5 -83 l 1,1,-1
 464 -83 l 1,2,-1
 464 -142 l 1,3,-1
 -5 -142 l 1,0,-1
EndSplineSet
Validated: 1
EndChar

StartChar: braceleft
Encoding: 37 123 40
Width: 428
GlyphClass: 2
Flags: W
LayerCount: 2
Fore
SplineSet
312 -128 m 2,0,1
 242 -128 242 -128 205 -89 c 128,-1,2
 168 -50 168 -50 168 16 c 2,3,-1
 168 190 l 2,4,5
 168 231 168 231 152.5 253.5 c 128,-1,6
 137 276 137 276 110 285.5 c 128,-1,7
 83 295 83 295 50 296 c 1,8,-1
 50 338 l 1,9,10
 83 339 83 339 110 348.5 c 128,-1,11
 137 358 137 358 152.5 380.5 c 128,-1,12
 168 403 168 403 168 443 c 2,13,-1
 168 617 l 2,14,15
 168 685 168 685 205 722.5 c 128,-1,16
 242 760 242 760 312 760 c 2,17,-1
 378 760 l 1,18,-1
 378 717 l 1,19,-1
 348 717 l 2,20,21
 304 717 304 717 285 690.5 c 128,-1,22
 266 664 266 664 266 612 c 2,23,-1
 266 441 l 2,24,25
 266 392 266 392 238.5 359.5 c 128,-1,26
 211 327 211 327 155 318 c 1,27,-1
 155 317 l 1,28,29
 212 307 212 307 239 275 c 128,-1,30
 266 243 266 243 266 193 c 2,31,-1
 266 20 l 2,32,33
 266 -31 266 -31 285 -58 c 128,-1,34
 304 -85 304 -85 348 -85 c 2,35,-1
 378 -85 l 1,36,-1
 378 -128 l 1,37,-1
 312 -128 l 2,0,1
EndSplineSet
Validated: 1
EndChar

StartChar: bar
Encoding: 38 124 41
Width: 559
GlyphClass: 2
Flags: W
LayerCount: 2
Fore
SplineSet
249 -240 m 1,0,-1
 249 760 l 1,1,-1
 309 760 l 1,2,-1
 309 -240 l 1,3,-1
 249 -240 l 1,0,-1
EndSplineSet
Validated: 1
EndChar

StartChar: braceright
Encoding: 39 125 42
Width: 428
GlyphClass: 2
Flags: W
LayerCount: 2
Fore
SplineSet
50 -128 m 1,0,-1
 50 -85 l 1,1,-1
 80 -85 l 2,2,3
 124 -85 124 -85 143 -58 c 128,-1,4
 162 -31 162 -31 162 20 c 2,5,-1
 162 193 l 2,6,7
 162 243 162 243 189 275 c 128,-1,8
 216 307 216 307 273 317 c 1,9,-1
 273 318 l 1,10,11
 218 327 218 327 190 359.5 c 128,-1,12
 162 392 162 392 162 441 c 2,13,-1
 162 612 l 2,14,15
 162 664 162 664 143 690.5 c 128,-1,16
 124 717 124 717 80 717 c 2,17,-1
 50 717 l 1,18,-1
 50 760 l 1,19,-1
 116 760 l 2,20,21
 187 760 187 760 223.5 722.5 c 128,-1,22
 260 685 260 685 260 617 c 2,23,-1
 260 443 l 2,24,25
 260 403 260 403 276 380.5 c 128,-1,26
 292 358 292 358 318.5 348.5 c 128,-1,27
 345 339 345 339 378 338 c 1,28,-1
 378 296 l 1,29,30
 345 295 345 295 318.5 285.5 c 128,-1,31
 292 276 292 276 276 253.5 c 128,-1,32
 260 231 260 231 260 190 c 2,33,-1
 260 16 l 2,34,35
 260 -50 260 -50 223.5 -89 c 128,-1,36
 187 -128 187 -128 116 -128 c 2,37,-1
 50 -128 l 1,0,-1
EndSplineSet
Validated: 1
EndChar

StartChar: asciitilde
Encoding: 40 126 43
Width: 559
GlyphClass: 2
Flags: W
LayerCount: 2
Fore
SplineSet
54 269 m 1,0,1
 57 298 57 298 63 328.5 c 128,-1,2
 69 359 69 359 82 385.5 c 128,-1,3
 95 412 95 412 117.5 428 c 128,-1,4
 140 444 140 444 176 444 c 0,5,6
 211 444 211 444 238.5 427 c 128,-1,7
 266 410 266 410 301 378 c 0,8,9
 322 359 322 359 342 343.5 c 128,-1,10
 362 328 362 328 383 328 c 0,11,12
 411 328 411 328 424 358.5 c 128,-1,13
 437 389 437 389 444 444 c 1,14,-1
 504 444 l 1,15,16
 501 418 501 418 494.5 388 c 128,-1,17
 488 358 488 358 475 331 c 128,-1,18
 462 304 462 304 439.5 286.5 c 128,-1,19
 417 269 417 269 382 269 c 256,20,21
 347 269 347 269 318.5 287 c 128,-1,22
 290 305 290 305 262 332 c 0,23,24
 239 355 239 355 219 370 c 128,-1,25
 199 385 199 385 176 385 c 0,26,27
 147 385 147 385 132.5 356.5 c 128,-1,28
 118 328 118 328 113 269 c 1,29,-1
 54 269 l 1,0,1
EndSplineSet
Validated: 1
EndChar

StartChar: twosuperior
Encoding: 43 178 46
Width: 400
GlyphClass: 2
Flags: W
LayerCount: 2
Fore
SplineSet
42 387 m 1,0,-1
 42 432 l 1,1,-1
 169 546 l 2,2,3
 213 586 213 586 230 627.5 c 128,-1,4
 247 669 247 669 247 709 c 0,5,6
 247 742 247 742 233.5 763.5 c 128,-1,7
 220 785 220 785 188 785 c 0,8,9
 151 785 151 785 136.5 759 c 128,-1,10
 122 733 122 733 122 698 c 1,11,12
 88 698 88 698 69 706.5 c 128,-1,13
 50 715 50 715 50 741 c 0,14,15
 50 777 50 777 85 801 c 128,-1,16
 120 825 120 825 188 825 c 0,17,18
 258 825 258 825 297.5 797.5 c 128,-1,19
 337 770 337 770 337 717 c 0,20,21
 337 686 337 686 327 659 c 128,-1,22
 317 632 317 632 293.5 604.5 c 128,-1,23
 270 577 270 577 228 541 c 2,24,-1
 122 450 l 1,25,-1
 267 450 l 2,26,27
 290 450 290 450 299 462.5 c 128,-1,28
 308 475 308 475 311 491 c 2,29,-1
 315 512 l 1,30,-1
 349 512 l 1,31,-1
 346 387 l 1,32,-1
 42 387 l 1,0,-1
EndSplineSet
Validated: 1
EndChar

StartChar: threesuperior
Encoding: 44 179 47
Width: 400
GlyphClass: 2
Flags: W
LayerCount: 2
Fore
SplineSet
174 380 m 0,0,1
 109 380 109 380 74.5 402.5 c 128,-1,2
 40 425 40 425 40 462 c 0,3,4
 40 484 40 484 52.5 497.5 c 128,-1,5
 65 511 65 511 86 511 c 1,6,7
 86 480 86 480 107 452.5 c 128,-1,8
 128 425 128 425 171 425 c 0,9,10
 212 425 212 425 236 445.5 c 128,-1,11
 260 466 260 466 260 512 c 0,12,13
 260 547 260 547 234.5 568 c 128,-1,14
 209 589 209 589 154 589 c 2,15,-1
 121 589 l 1,16,-1
 121 630 l 1,17,-1
 154 630 l 2,18,19
 192 630 192 630 217.5 653 c 128,-1,20
 243 676 243 676 243 716 c 0,21,22
 243 749 243 749 230 766.5 c 128,-1,23
 217 784 217 784 186 784 c 0,24,25
 148 784 148 784 134 758 c 128,-1,26
 120 732 120 732 120 697 c 1,27,28
 86 697 86 697 66 705.5 c 128,-1,29
 46 714 46 714 46 740 c 0,30,31
 46 776 46 776 82 800 c 128,-1,32
 118 824 118 824 186 824 c 0,33,34
 253 824 253 824 293.5 798 c 128,-1,35
 334 772 334 772 334 725 c 0,36,37
 334 682 334 682 303.5 655.5 c 128,-1,38
 273 629 273 629 232 617 c 1,39,-1
 232 612 l 1,40,41
 259 608 259 608 286.5 598 c 128,-1,42
 314 588 314 588 332.5 568 c 128,-1,43
 351 548 351 548 351 511 c 0,44,45
 351 462 351 462 323.5 433.5 c 128,-1,46
 296 405 296 405 255 392.5 c 128,-1,47
 214 380 214 380 174 380 c 0,0,1
EndSplineSet
Validated: 1
EndChar

StartChar: multiply
Encoding: 45 215 48
Width: 559
GlyphClass: 2
Flags: W
LayerCount: 2
Fore
SplineSet
113 150 m 1,0,-1
 71 193 l 1,1,-1
 237 359 l 1,2,-1
 71 524 l 1,3,-1
 113 566 l 1,4,-1
 279 400 l 1,5,-1
 445 567 l 1,6,-1
 487 524 l 1,7,-1
 321 358 l 1,8,-1
 487 192 l 1,9,-1
 445 150 l 1,10,-1
 279 316 l 1,11,-1
 113 150 l 1,0,-1
EndSplineSet
Validated: 1
EndChar

StartChar: divide
Encoding: 46 247 49
Width: 559
GlyphClass: 2
Flags: W
LayerCount: 2
Fore
SplineSet
280 492 m 0,0,1
 258 492 258 492 243.5 504 c 128,-1,2
 229 516 229 516 229 547 c 0,3,4
 229 579 229 579 243.5 590.5 c 128,-1,5
 258 602 258 602 280 602 c 0,6,7
 301 602 301 602 316 590.5 c 128,-1,8
 331 579 331 579 331 547 c 0,9,10
 331 516 331 516 316 504 c 128,-1,11
 301 492 301 492 280 492 c 0,0,1
65 328 m 1,12,-1
 65 387 l 1,13,-1
 494 387 l 1,14,-1
 494 328 l 1,15,-1
 65 328 l 1,12,-1
280 113 m 0,16,17
 258 113 258 113 243.5 125 c 128,-1,18
 229 137 229 137 229 168 c 0,19,20
 229 200 229 200 243.5 211.5 c 128,-1,21
 258 223 258 223 280 223 c 0,22,23
 301 223 301 223 316 211.5 c 128,-1,24
 331 200 331 200 331 168 c 0,25,26
 331 137 331 137 316 125 c 128,-1,27
 301 113 301 113 280 113 c 0,16,17
EndSplineSet
Validated: 1
EndChar

StartChar: udatta-deva
Encoding: 47 2385 50
Width: 0
GlyphClass: 4
Flags: W
AnchorPoint: "Anchor-9" 0 554 mark 0
AnchorPoint: "Anchor-5" 0 554 mark 0
AnchorPoint: "Anchor-1" 0 554 mark 0
LayerCount: 2
Fore
SplineSet
-31 912 m 1,0,-1
 -31 1107 l 1,1,-1
 31 1107 l 1,2,-1
 31 912 l 1,3,-1
 -31 912 l 1,0,-1
EndSplineSet
Validated: 513
EndChar

StartChar: anudatta-deva
Encoding: 48 2386 51
Width: 0
GlyphClass: 4
Flags: W
AnchorPoint: "Anchor-7" 0 0 mark 0
AnchorPoint: "Anchor-4" 0 0 mark 0
LayerCount: 2
Fore
SplineSet
-213 -547 m 1,0,-1
 -213 -480 l 1,1,-1
 213 -480 l 1,2,-1
 213 -547 l 1,3,-1
 -213 -547 l 1,0,-1
EndSplineSet
Validated: 513
EndChar

StartChar: danda-deva
Encoding: 49 2404 52
Width: 305
GlyphClass: 2
Flags: W
LayerCount: 2
Fore
SplineSet
105 0 m 1,0,-1
 105 554 l 1,1,-1
 200 554 l 1,2,-1
 200 0 l 1,3,-1
 105 0 l 1,0,-1
EndSplineSet
Validated: 513
EndChar

StartChar: dbldanda-deva
Encoding: 50 2405 53
Width: 546
GlyphClass: 2
Flags: W
LayerCount: 2
Fore
SplineSet
346 0 m 1,0,-1
 346 554 l 1,1,-1
 441 554 l 1,2,-1
 441 0 l 1,3,-1
 346 0 l 1,0,-1
105 0 m 1,4,-1
 105 554 l 1,5,-1
 200 554 l 1,6,-1
 200 0 l 1,7,-1
 105 0 l 1,4,-1
EndSplineSet
Validated: 513
EndChar

StartChar: anusvara-tamil
Encoding: 51 2946 54
Width: 0
GlyphClass: 4
Flags: W
AnchorPoint: "Anchor-8" 0 554 mark 0
AnchorPoint: "Anchor-3" 0 554 mark 0
AnchorPoint: "Anchor-0" 0 554 mark 0
LayerCount: 2
Fore
SplineSet
0 633 m 0,0,1
 -52 633 -52 633 -86.5 666 c 128,-1,2
 -121 699 -121 699 -121 751 c 0,3,4
 -121 804 -121 804 -86.5 837 c 128,-1,5
 -52 870 -52 870 0 870 c 0,6,7
 53 870 53 870 87 837 c 128,-1,8
 121 804 121 804 121 751 c 0,9,10
 121 699 121 699 87 666 c 128,-1,11
 53 633 53 633 0 633 c 0,0,1
0 687 m 256,12,13
 28 687 28 687 45.5 705 c 128,-1,14
 63 723 63 723 63 751 c 0,15,16
 63 780 63 780 45.5 798 c 128,-1,17
 28 816 28 816 0 816 c 256,18,19
 -28 816 -28 816 -45.5 798 c 128,-1,20
 -63 780 -63 780 -63 751 c 0,21,22
 -63 723 -63 723 -45.5 705 c 128,-1,23
 -28 687 -28 687 0 687 c 256,12,13
EndSplineSet
Validated: 513
Substitution2: "Single Substitution lookup 6 subtable" anusvara-tamil.alt
AlternateSubs2: "'aalt' Access All Alternates lookup 2 per glyph data 1" anusvara-tamil.alt
EndChar

StartChar: visarga-tamil
Encoding: 52 2947 55
Width: 902
GlyphClass: 2
Flags: W
LayerCount: 2
Fore
SplineSet
451 412 m 0,0,1
 402 412 402 412 363 435 c 128,-1,2
 324 458 324 458 302 499.5 c 128,-1,3
 280 541 280 541 280 596 c 256,4,5
 280 651 280 651 302 692.5 c 128,-1,6
 324 734 324 734 363 757 c 128,-1,7
 402 780 402 780 451 780 c 0,8,9
 498 780 498 780 537 757 c 128,-1,10
 576 734 576 734 599 692.5 c 128,-1,11
 622 651 622 651 622 596 c 256,12,13
 622 541 622 541 599 499.5 c 128,-1,14
 576 458 576 458 537 435 c 128,-1,15
 498 412 498 412 451 412 c 0,0,1
436 460 m 0,16,17
 488 460 488 460 516.5 494.5 c 128,-1,18
 545 529 545 529 545 596 c 0,19,20
 545 664 545 664 516.5 697.5 c 128,-1,21
 488 731 488 731 436 731 c 0,22,23
 388 731 388 731 358.5 694.5 c 128,-1,24
 329 658 329 658 329 596 c 256,25,26
 329 534 329 534 358.5 497 c 128,-1,27
 388 460 388 460 436 460 c 0,16,17
673 0 m 0,28,29
 624 0 624 0 585 23.5 c 128,-1,30
 546 47 546 47 524 88.5 c 128,-1,31
 502 130 502 130 502 185 c 256,32,33
 502 240 502 240 524 281 c 128,-1,34
 546 322 546 322 585 345.5 c 128,-1,35
 624 369 624 369 673 369 c 0,36,37
 720 369 720 369 759 345.5 c 128,-1,38
 798 322 798 322 821 281 c 128,-1,39
 844 240 844 240 844 185 c 256,40,41
 844 130 844 130 821 88.5 c 128,-1,42
 798 47 798 47 759 23.5 c 128,-1,43
 720 0 720 0 673 0 c 0,28,29
229 0 m 0,44,45
 180 0 180 0 141.5 23.5 c 128,-1,46
 103 47 103 47 81 88.5 c 128,-1,47
 59 130 59 130 59 185 c 256,48,49
 59 240 59 240 81 281 c 128,-1,50
 103 322 103 322 141.5 345.5 c 128,-1,51
 180 369 180 369 229 369 c 0,52,53
 276 369 276 369 315 345.5 c 128,-1,54
 354 322 354 322 377 281 c 128,-1,55
 400 240 400 240 400 185 c 256,56,57
 400 130 400 130 377 88.5 c 128,-1,58
 354 47 354 47 315 23.5 c 128,-1,59
 276 0 276 0 229 0 c 0,44,45
214 49 m 0,60,61
 266 49 266 49 295 83 c 128,-1,62
 324 117 324 117 324 185 c 0,63,64
 324 252 324 252 295 286 c 128,-1,65
 266 320 266 320 214 320 c 0,66,67
 166 320 166 320 136.5 283.5 c 128,-1,68
 107 247 107 247 107 185 c 256,69,70
 107 123 107 123 136.5 86 c 128,-1,71
 166 49 166 49 214 49 c 0,60,61
658 49 m 0,72,73
 710 49 710 49 739 83 c 128,-1,74
 768 117 768 117 768 185 c 0,75,76
 768 252 768 252 739 286 c 128,-1,77
 710 320 710 320 658 320 c 0,78,79
 610 320 610 320 580.5 283.5 c 128,-1,80
 551 247 551 247 551 185 c 256,81,82
 551 123 551 123 580.5 86 c 128,-1,83
 610 49 610 49 658 49 c 0,72,73
EndSplineSet
Validated: 513
EndChar

StartChar: a-tamil
Encoding: 53 2949 56
Width: 1320
GlyphClass: 2
Flags: W
AnchorPoint: "Anchor-6" 455 -122 basechar 0
AnchorPoint: "Anchor-4" 634 0 basechar 0
AnchorPoint: "Anchor-1" 645 554 basechar 0
AnchorPoint: "Anchor-0" 645 554 basechar 0
LayerCount: 2
Fore
SplineSet
1128 -199 m 1,0,-1
 1128 117 l 1,1,-1
 940 117 l 1,2,3
 908 41 908 41 840 -12.5 c 128,-1,4
 772 -66 772 -66 674.5 -94 c 128,-1,5
 577 -122 577 -122 455 -122 c 0,6,7
 359 -122 359 -122 282.5 -101 c 128,-1,8
 206 -80 206 -80 151.5 -47 c 128,-1,9
 97 -14 97 -14 68 24.5 c 128,-1,10
 39 63 39 63 39 99 c 0,11,12
 39 132 39 132 61.5 151.5 c 128,-1,13
 84 171 84 171 128 171 c 2,14,-1
 861 171 l 1,15,16
 870 208 870 208 870 250 c 0,17,18
 870 327 870 327 839 383 c 128,-1,19
 808 439 808 439 756 470.5 c 128,-1,20
 704 502 704 502 643 505 c 1,21,22
 676 487 676 487 701.5 453 c 128,-1,23
 727 419 727 419 727 377 c 0,24,25
 727 316 727 316 684 281.5 c 128,-1,26
 641 247 641 247 579 247 c 0,27,28
 533 247 533 247 496.5 265.5 c 128,-1,29
 460 284 460 284 439 315 c 128,-1,30
 418 346 418 346 418 385 c 0,31,32
 418 441 418 441 448.5 479.5 c 128,-1,33
 479 518 479 518 531 538.5 c 128,-1,34
 583 559 583 559 645 559 c 0,35,36
 734 559 734 559 806.5 522 c 128,-1,37
 879 485 879 485 922.5 415.5 c 128,-1,38
 966 346 966 346 966 250 c 0,39,40
 966 209 966 209 958 171 c 1,41,-1
 1128 171 l 1,42,-1
 1128 554 l 1,43,-1
 1223 554 l 1,44,-1
 1223 -199 l 1,45,-1
 1128 -199 l 1,0,-1
477 382 m 0,46,47
 477 342 477 342 500.5 321.5 c 128,-1,48
 524 301 524 301 558 301 c 0,49,50
 598 301 598 301 617 325 c 128,-1,51
 636 349 636 349 636 386 c 0,52,53
 636 417 636 417 621.5 448 c 128,-1,54
 607 479 607 479 580 499 c 1,55,56
 535 488 535 488 506 458 c 128,-1,57
 477 428 477 428 477 382 c 0,46,47
98 91 m 0,58,59
 98 68 98 68 124.5 40.5 c 128,-1,60
 151 13 151 13 198.5 -11.5 c 128,-1,61
 246 -36 246 -36 311.5 -52 c 128,-1,62
 377 -68 377 -68 455 -68 c 0,63,64
 604 -68 604 -68 702 -19 c 128,-1,65
 800 30 800 30 842 117 c 1,66,-1
 132 117 l 2,67,68
 112 117 112 117 105 110 c 128,-1,69
 98 103 98 103 98 91 c 0,58,59
EndSplineSet
Validated: 1049089
EndChar

StartChar: aa-tamil
Encoding: 54 2950 57
Width: 1488
GlyphClass: 2
Flags: W
AnchorPoint: "Anchor-6" 455 -122 basechar 0
AnchorPoint: "Anchor-4" 727 0 basechar 0
AnchorPoint: "Anchor-1" 738 554 basechar 0
AnchorPoint: "Anchor-0" 739 554 basechar 0
LayerCount: 2
Fore
SplineSet
1053 -443 m 0,0,1
 986 -443 986 -443 925.5 -426 c 128,-1,2
 865 -409 865 -409 827 -372.5 c 128,-1,3
 789 -336 789 -336 789 -278 c 0,4,5
 789 -225 789 -225 825.5 -188 c 128,-1,6
 862 -151 862 -151 939 -140 c 1,7,-1
 952 -193 l 1,8,9
 899 -199 899 -199 872 -223.5 c 128,-1,10
 845 -248 845 -248 845 -283 c 0,11,12
 845 -322 845 -322 874.5 -345.5 c 128,-1,13
 904 -369 904 -369 948 -379 c 128,-1,14
 992 -389 992 -389 1036 -389 c 0,15,16
 1095 -389 1095 -389 1153 -370 c 128,-1,17
 1211 -351 1211 -351 1258.5 -316 c 128,-1,18
 1306 -281 1306 -281 1334.5 -232.5 c 128,-1,19
 1363 -184 1363 -184 1363 -126 c 0,20,21
 1363 -36 1363 -36 1293 -36 c 0,22,23
 1272 -36 1272 -36 1253 -46.5 c 128,-1,24
 1234 -57 1234 -57 1223 -78 c 1,25,-1
 1223 -199 l 1,26,-1
 1128 -199 l 1,27,-1
 1128 117 l 1,28,-1
 940 117 l 1,29,30
 908 41 908 41 840 -12.5 c 128,-1,31
 772 -66 772 -66 674.5 -94 c 128,-1,32
 577 -122 577 -122 455 -122 c 0,33,34
 359 -122 359 -122 282.5 -101 c 128,-1,35
 206 -80 206 -80 151.5 -47 c 128,-1,36
 97 -14 97 -14 68 24.5 c 128,-1,37
 39 63 39 63 39 99 c 0,38,39
 39 132 39 132 61.5 151.5 c 128,-1,40
 84 171 84 171 128 171 c 2,41,-1
 861 171 l 1,42,43
 870 208 870 208 870 250 c 0,44,45
 870 327 870 327 839 383 c 128,-1,46
 808 439 808 439 756 470.5 c 128,-1,47
 704 502 704 502 643 505 c 1,48,49
 676 487 676 487 701.5 453 c 128,-1,50
 727 419 727 419 727 377 c 0,51,52
 727 316 727 316 684 281.5 c 128,-1,53
 641 247 641 247 579 247 c 0,54,55
 533 247 533 247 496.5 265.5 c 128,-1,56
 460 284 460 284 439 315 c 128,-1,57
 418 346 418 346 418 385 c 0,58,59
 418 441 418 441 448.5 479.5 c 128,-1,60
 479 518 479 518 531 538.5 c 128,-1,61
 583 559 583 559 645 559 c 0,62,63
 734 559 734 559 806.5 522 c 128,-1,64
 879 485 879 485 922.5 415.5 c 128,-1,65
 966 346 966 346 966 250 c 0,66,67
 966 209 966 209 958 171 c 1,68,-1
 1128 171 l 1,69,-1
 1128 554 l 1,70,-1
 1223 554 l 1,71,-1
 1223 -4 l 1,72,73
 1242 19 1242 19 1269 32 c 128,-1,74
 1296 45 1296 45 1330 45 c 0,75,76
 1393 45 1393 45 1424.5 0.5 c 128,-1,77
 1456 -44 1456 -44 1456 -118 c 0,78,79
 1456 -193 1456 -193 1422.5 -253.5 c 128,-1,80
 1389 -314 1389 -314 1331.5 -356 c 128,-1,81
 1274 -398 1274 -398 1202 -420.5 c 128,-1,82
 1130 -443 1130 -443 1053 -443 c 0,0,1
477 382 m 0,83,84
 477 342 477 342 500.5 321.5 c 128,-1,85
 524 301 524 301 558 301 c 0,86,87
 598 301 598 301 617 325 c 128,-1,88
 636 349 636 349 636 386 c 0,89,90
 636 417 636 417 621.5 448 c 128,-1,91
 607 479 607 479 580 499 c 1,92,93
 535 488 535 488 506 458 c 128,-1,94
 477 428 477 428 477 382 c 0,83,84
98 91 m 0,95,96
 98 68 98 68 124.5 40.5 c 128,-1,97
 151 13 151 13 198.5 -11.5 c 128,-1,98
 246 -36 246 -36 311.5 -52 c 128,-1,99
 377 -68 377 -68 455 -68 c 0,100,101
 604 -68 604 -68 702 -19 c 128,-1,102
 800 30 800 30 842 117 c 1,103,-1
 132 117 l 2,104,105
 112 117 112 117 105 110 c 128,-1,106
 98 103 98 103 98 91 c 0,95,96
EndSplineSet
Validated: 1049089
AlternateSubs2: "independent vowel signs" aaMatra-tamil
EndChar

StartChar: i-tamil
Encoding: 55 2951 58
Width: 1023
GlyphClass: 2
Flags: W
AnchorPoint: "Anchor-6" 495 -258 basechar 0
AnchorPoint: "Anchor-4" 497 0 basechar 0
AnchorPoint: "Anchor-1" 503 554 basechar 0
AnchorPoint: "Anchor-0" 503 829 basechar 0
LayerCount: 2
Fore
SplineSet
236 -297 m 0,0,1
 154 -297 154 -297 101.5 -258.5 c 128,-1,2
 49 -220 49 -220 49 -148 c 0,3,4
 49 -85 49 -85 86 -37 c 128,-1,5
 123 11 123 11 182 43 c 1,6,7
 129 126 129 126 99 220 c 128,-1,8
 69 314 69 314 69 411 c 0,9,10
 69 502 69 502 102.5 578 c 128,-1,11
 136 654 136 654 195 710.5 c 128,-1,12
 254 767 254 767 333 798 c 128,-1,13
 412 829 412 829 503 829 c 0,14,15
 959 829 959 829 959 306 c 2,16,-1
 959 86 l 1,17,-1
 901 86 l 1,18,-1
 901 306 l 2,19,20
 901 436 901 436 858 533 c 128,-1,21
 815 630 815 630 727 684.5 c 128,-1,22
 639 739 639 739 503 739 c 0,23,24
 433 739 433 739 367.5 718.5 c 128,-1,25
 302 698 302 698 250.5 654.5 c 128,-1,26
 199 611 199 611 169 542 c 128,-1,27
 139 473 139 473 139 377 c 0,28,29
 139 297 139 297 164.5 217.5 c 128,-1,30
 190 138 190 138 233 67 c 1,31,32
 288 88 288 88 350 99 c 128,-1,33
 412 110 412 110 474 110 c 0,34,35
 518 110 518 110 564 104.5 c 128,-1,36
 610 99 610 99 655 88 c 1,37,38
 677 170 677 170 677 262 c 0,39,40
 677 333 677 333 656.5 387.5 c 128,-1,41
 636 442 636 442 592.5 473.5 c 128,-1,42
 549 505 549 505 480 505 c 0,43,44
 475 505 475 505 471 505 c 1,45,46
 520 485 520 485 543 449 c 128,-1,47
 566 413 566 413 566 374 c 0,48,49
 566 317 566 317 525.5 282.5 c 128,-1,50
 485 248 485 248 421 248 c 0,51,52
 384 248 384 248 350 264.5 c 128,-1,53
 316 281 316 281 294 311 c 128,-1,54
 272 341 272 341 272 382 c 0,55,56
 272 441 272 441 303.5 480 c 128,-1,57
 335 519 335 519 387 539 c 128,-1,58
 439 559 439 559 498 559 c 0,59,60
 584 559 584 559 645.5 520 c 128,-1,61
 707 481 707 481 740 409 c 128,-1,62
 773 337 773 337 773 239 c 0,63,64
 773 147 773 147 741 59 c 1,65,66
 818 27 818 27 870 -26 c 128,-1,67
 922 -79 922 -79 922 -153 c 0,68,69
 922 -201 922 -201 895 -233 c 128,-1,70
 868 -265 868 -265 822.5 -281 c 128,-1,71
 777 -297 777 -297 719 -297 c 0,72,73
 659 -297 659 -297 599 -281.5 c 128,-1,74
 539 -266 539 -266 482 -237 c 1,75,76
 428 -265 428 -265 366 -281 c 128,-1,77
 304 -297 304 -297 236 -297 c 0,0,1
331 380 m 0,78,79
 331 346 331 346 350 324 c 128,-1,80
 369 302 369 302 402 302 c 0,81,82
 440 302 440 302 458 325 c 128,-1,83
 476 348 476 348 476 384 c 0,84,85
 476 415 476 415 459.5 444.5 c 128,-1,86
 443 474 443 474 414 493 c 1,87,88
 378 479 378 479 354.5 450.5 c 128,-1,89
 331 422 331 422 331 380 c 0,78,79
474 57 m 0,90,91
 423 57 423 57 368.5 46.5 c 128,-1,92
 314 36 314 36 266 17 c 1,93,94
 356 -108 356 -108 477 -179 c 1,95,96
 534 -141 534 -141 574.5 -85 c 128,-1,97
 615 -29 615 -29 639 38 c 1,98,99
 598 48 598 48 555.5 52.5 c 128,-1,100
 513 57 513 57 474 57 c 0,90,91
852 -139 m 0,101,102
 852 -86 852 -86 815 -48.5 c 128,-1,103
 778 -11 778 -11 721 12 c 1,104,105
 689 -53 689 -53 641 -109.5 c 128,-1,106
 593 -166 593 -166 532 -207 c 1,107,108
 571 -224 571 -224 610 -233.5 c 128,-1,109
 649 -243 649 -243 688 -243 c 0,110,111
 734 -243 734 -243 771 -233 c 128,-1,112
 808 -223 808 -223 830 -200 c 128,-1,113
 852 -177 852 -177 852 -139 c 0,101,102
117 -148 m 0,114,115
 117 -195 117 -195 155 -219 c 128,-1,116
 193 -243 193 -243 253 -243 c 0,117,118
 303 -243 303 -243 346.5 -233.5 c 128,-1,119
 390 -224 390 -224 428 -206 c 1,120,121
 306 -130 306 -130 216 -8 c 1,122,123
 172 -34 172 -34 144.5 -69 c 128,-1,124
 117 -104 117 -104 117 -148 c 0,114,115
EndSplineSet
Validated: 1049089
AlternateSubs2: "independent vowel signs" iMatra-tamil
EndChar

StartChar: ii-tamil
Encoding: 56 2952 59
Width: 761
GlyphClass: 2
Flags: W
AnchorPoint: "Anchor-6" 395 0 basechar 0
AnchorPoint: "Anchor-4" 395 0 basechar 0
AnchorPoint: "Anchor-1" 397 554 basechar 0
AnchorPoint: "Anchor-0" 397 554 basechar 0
LayerCount: 2
Fore
SplineSet
98 0 m 1,0,-1
 98 554 l 1,1,-1
 710 554 l 1,2,-1
 710 500 l 1,3,-1
 522 500 l 1,4,-1
 522 0 l 1,5,-1
 427 0 l 1,6,-1
 427 500 l 1,7,-1
 159 500 l 1,8,-1
 159 0 l 1,9,-1
 98 0 l 1,0,-1
293 211 m 0,10,11
 271 211 271 211 255 226.5 c 128,-1,12
 239 242 239 242 239 264 c 0,13,14
 239 285 239 285 255 300.5 c 128,-1,15
 271 316 271 316 293 316 c 0,16,17
 316 316 316 316 331.5 300.5 c 128,-1,18
 347 285 347 285 347 264 c 0,19,20
 347 242 347 242 331.5 226.5 c 128,-1,21
 316 211 316 211 293 211 c 0,10,11
656 211 m 0,22,23
 634 211 634 211 618.5 226.5 c 128,-1,24
 603 242 603 242 603 264 c 0,25,26
 603 285 603 285 618.5 300.5 c 128,-1,27
 634 316 634 316 656 316 c 0,28,29
 679 316 679 316 694.5 300.5 c 128,-1,30
 710 285 710 285 710 264 c 0,31,32
 710 242 710 242 694.5 226.5 c 128,-1,33
 679 211 679 211 656 211 c 0,22,23
EndSplineSet
Validated: 1049089
AlternateSubs2: "independent vowel signs" iiMatra-tamil
EndChar

StartChar: u-tamil
Encoding: 57 2953 60
Width: 1028
GlyphClass: 2
Flags: W
AnchorPoint: "Anchor-6" 546 0 basechar 0
AnchorPoint: "Anchor-4" 546 0 basechar 0
AnchorPoint: "Anchor-1" 549 554 basechar 0
AnchorPoint: "Anchor-0" 548 554 basechar 0
LayerCount: 2
Fore
SplineSet
154 0 m 2,0,1
 106 0 106 0 77.5 25 c 128,-1,2
 49 50 49 50 49 94 c 0,3,4
 49 139 49 139 77.5 163.5 c 128,-1,5
 106 188 106 188 154 188 c 2,6,-1
 382 188 l 2,7,8
 467 188 467 188 514 229 c 128,-1,9
 561 270 561 270 561 349 c 0,10,11
 561 397 561 397 534 431 c 128,-1,12
 507 465 507 465 462 484 c 128,-1,13
 417 503 417 503 363 505 c 1,14,15
 396 487 396 487 421.5 453 c 128,-1,16
 447 419 447 419 447 377 c 0,17,18
 447 316 447 316 404 281.5 c 128,-1,19
 361 247 361 247 299 247 c 0,20,21
 253 247 253 247 217 265.5 c 128,-1,22
 181 284 181 284 160 315 c 128,-1,23
 139 346 139 346 139 385 c 0,24,25
 139 440 139 440 169.5 479 c 128,-1,26
 200 518 200 518 253.5 538.5 c 128,-1,27
 307 559 307 559 374 559 c 0,28,29
 454 559 454 559 518 533.5 c 128,-1,30
 582 508 582 508 619 458.5 c 128,-1,31
 656 409 656 409 656 336 c 0,32,33
 656 268 656 268 620.5 223.5 c 128,-1,34
 585 179 585 179 526 157 c 128,-1,35
 467 135 467 135 396 135 c 2,36,-1
 146 135 l 2,37,38
 130 135 130 135 118.5 124.5 c 128,-1,39
 107 114 107 114 107 94 c 0,40,41
 107 75 107 75 118.5 64.5 c 128,-1,42
 130 54 130 54 146 54 c 2,43,-1
 1008 54 l 1,44,-1
 1008 0 l 1,45,-1
 154 0 l 2,0,1
197 382 m 0,46,47
 197 342 197 342 220.5 321.5 c 128,-1,48
 244 301 244 301 278 301 c 0,49,50
 318 301 318 301 337 325 c 128,-1,51
 356 349 356 349 356 386 c 0,52,53
 356 417 356 417 341.5 448 c 128,-1,54
 327 479 327 479 300 499 c 1,55,56
 255 488 255 488 226 458 c 128,-1,57
 197 428 197 428 197 382 c 0,46,47
EndSplineSet
Validated: 1049089
AlternateSubs2: "independent vowel signs" uMatra-tamil
EndChar

StartChar: uu-tamil
Encoding: 58 2954 61
Width: 1741
GlyphClass: 2
Flags: W
AnchorPoint: "Anchor-6" 907 0 basechar 0
AnchorPoint: "Anchor-4" 906 0 basechar 0
AnchorPoint: "Anchor-1" 909 554 basechar 0
AnchorPoint: "Anchor-0" 910 554 basechar 0
LayerCount: 2
Fore
SplineSet
154 0 m 2,0,1
 106 0 106 0 77.5 25 c 128,-1,2
 49 50 49 50 49 94 c 0,3,4
 49 139 49 139 77.5 163.5 c 128,-1,5
 106 188 106 188 154 188 c 2,6,-1
 382 188 l 2,7,8
 467 188 467 188 514 229 c 128,-1,9
 561 270 561 270 561 349 c 0,10,11
 561 397 561 397 534 431 c 128,-1,12
 507 465 507 465 462 484 c 128,-1,13
 417 503 417 503 363 505 c 1,14,15
 396 487 396 487 421.5 453 c 128,-1,16
 447 419 447 419 447 377 c 0,17,18
 447 316 447 316 404 281.5 c 128,-1,19
 361 247 361 247 299 247 c 0,20,21
 253 247 253 247 217 265.5 c 128,-1,22
 181 284 181 284 160 315 c 128,-1,23
 139 346 139 346 139 385 c 0,24,25
 139 440 139 440 169.5 479 c 128,-1,26
 200 518 200 518 253.5 538.5 c 128,-1,27
 307 559 307 559 374 559 c 0,28,29
 454 559 454 559 518 533.5 c 128,-1,30
 582 508 582 508 619 458.5 c 128,-1,31
 656 409 656 409 656 336 c 0,32,33
 656 268 656 268 620.5 223.5 c 128,-1,34
 585 179 585 179 526 157 c 128,-1,35
 467 135 467 135 396 135 c 2,36,-1
 146 135 l 2,37,38
 130 135 130 135 118.5 124.5 c 128,-1,39
 107 114 107 114 107 94 c 0,40,41
 107 75 107 75 118.5 64.5 c 128,-1,42
 130 54 130 54 146 54 c 2,43,-1
 1716 54 l 1,44,-1
 1716 0 l 1,45,-1
 154 0 l 2,0,1
950 103 m 0,46,47
 894 103 894 103 849.5 128 c 128,-1,48
 805 153 805 153 779.5 201 c 128,-1,49
 754 249 754 249 754 317 c 0,50,51
 754 387 754 387 787 441.5 c 128,-1,52
 820 496 820 496 876.5 527.5 c 128,-1,53
 933 559 933 559 1006 559 c 0,54,55
 1081 559 1081 559 1137 530 c 128,-1,56
 1193 501 1193 501 1225 448 c 1,57,-1
 1225 554 l 1,58,-1
 1716 554 l 1,59,-1
 1716 502 l 1,60,-1
 1604 502 l 1,61,-1
 1604 107 l 1,62,-1
 1509 107 l 1,63,-1
 1509 502 l 1,64,-1
 1315 502 l 1,65,-1
 1315 107 l 1,66,-1
 1220 107 l 1,67,-1
 1220 301 l 2,68,69
 1220 360 1220 360 1194.5 406 c 128,-1,70
 1169 452 1169 452 1121.5 478.5 c 128,-1,71
 1074 505 1074 505 1008 505 c 0,72,73
 954 505 954 505 909.5 480.5 c 128,-1,74
 865 456 865 456 839 414 c 128,-1,75
 813 372 813 372 813 319 c 0,76,77
 813 305 813 305 814 292 c 1,78,79
 835 337 835 337 876 363.5 c 128,-1,80
 917 390 917 390 962 390 c 0,81,82
 1024 390 1024 390 1067.5 350.5 c 128,-1,83
 1111 311 1111 311 1111 242 c 0,84,85
 1111 206 1111 206 1092.5 174.5 c 128,-1,86
 1074 143 1074 143 1038.5 123 c 128,-1,87
 1003 103 1003 103 950 103 c 0,46,47
197 382 m 0,88,89
 197 342 197 342 220.5 321.5 c 128,-1,90
 244 301 244 301 278 301 c 0,91,92
 318 301 318 301 337 325 c 128,-1,93
 356 349 356 349 356 386 c 0,94,95
 356 417 356 417 341.5 448 c 128,-1,96
 327 479 327 479 300 499 c 1,97,98
 255 488 255 488 226 458 c 128,-1,99
 197 428 197 428 197 382 c 0,88,89
939 327 m 0,100,101
 902 327 902 327 871 301 c 128,-1,102
 840 275 840 275 824 238 c 1,103,104
 838 195 838 195 866.5 175.5 c 128,-1,105
 895 156 895 156 932 156 c 0,106,107
 976 156 976 156 997 183.5 c 128,-1,108
 1018 211 1018 211 1018 245 c 0,109,110
 1018 283 1018 283 996 305 c 128,-1,111
 974 327 974 327 939 327 c 0,100,101
EndSplineSet
Validated: 1049089
AlternateSubs2: "independent vowel signs" uuMatra-tamil
EndChar

StartChar: e-tamil
Encoding: 59 2958 62
Width: 938
GlyphClass: 2
Flags: W
AnchorPoint: "Anchor-6" 506 0 basechar 0
AnchorPoint: "Anchor-4" 505 0 basechar 0
AnchorPoint: "Anchor-1" 508 554 basechar 0
AnchorPoint: "Anchor-0" 506 554 basechar 0
LayerCount: 2
Fore
SplineSet
278 -5 m 0,0,1
 220 -5 220 -5 170 24 c 128,-1,2
 120 53 120 53 89.5 110 c 128,-1,3
 59 167 59 167 59 250 c 0,4,5
 59 326 59 326 87 383 c 128,-1,6
 115 440 115 440 164.5 478 c 128,-1,7
 214 516 214 516 278.5 535 c 128,-1,8
 343 554 343 554 415 554 c 2,9,-1
 919 554 l 1,10,-1
 919 500 l 1,11,-1
 743 500 l 1,12,-1
 743 0 l 1,13,-1
 648 0 l 1,14,-1
 648 500 l 1,15,-1
 418 500 l 2,16,17
 334 500 334 500 266 471.5 c 128,-1,18
 198 443 198 443 157.5 387.5 c 128,-1,19
 117 332 117 332 117 249 c 0,20,21
 117 204 117 204 128 167 c 1,22,23
 145 228 145 228 194.5 265.5 c 128,-1,24
 244 303 244 303 307 303 c 0,25,26
 378 303 378 303 418.5 261 c 128,-1,27
 459 219 459 219 459 150 c 0,28,29
 459 82 459 82 409.5 38.5 c 128,-1,30
 360 -5 360 -5 278 -5 c 0,0,1
270 236 m 0,31,32
 224 236 224 236 192 203.5 c 128,-1,33
 160 171 160 171 152 112 c 1,34,35
 172 80 172 80 201 64.5 c 128,-1,36
 230 49 230 49 261 49 c 0,37,38
 311 49 311 49 338.5 77 c 128,-1,39
 366 105 366 105 366 146 c 0,40,41
 366 179 366 179 343 207.5 c 128,-1,42
 320 236 320 236 270 236 c 0,31,32
EndSplineSet
Validated: 1049089
AlternateSubs2: "independent vowel signs" eMatra-tamil
EndChar

StartChar: ee-tamil
Encoding: 60 2959 63
Width: 938
GlyphClass: 2
Flags: W
AnchorPoint: "Anchor-6" 506 -195 basechar 0
AnchorPoint: "Anchor-4" 505 0 basechar 0
AnchorPoint: "Anchor-1" 508 554 basechar 0
AnchorPoint: "Anchor-0" 508 554 basechar 0
LayerCount: 2
Fore
SplineSet
506 -240 m 1,0,-1
 464 -199 l 1,1,-1
 648 -2 l 1,2,-1
 648 500 l 1,3,-1
 418 500 l 2,4,5
 334 500 334 500 266 471.5 c 128,-1,6
 198 443 198 443 157.5 387.5 c 128,-1,7
 117 332 117 332 117 249 c 0,8,9
 117 204 117 204 127 167 c 1,10,11
 145 228 145 228 194.5 266 c 128,-1,12
 244 304 244 304 307 304 c 0,13,14
 378 304 378 304 418.5 261.5 c 128,-1,15
 459 219 459 219 459 150 c 0,16,17
 459 83 459 83 409.5 39.5 c 128,-1,18
 360 -4 360 -4 278 -4 c 0,19,20
 220 -4 220 -4 170 24.5 c 128,-1,21
 120 53 120 53 89.5 110 c 128,-1,22
 59 167 59 167 59 250 c 0,23,24
 59 352 59 352 106.5 419.5 c 128,-1,25
 154 487 154 487 234 520.5 c 128,-1,26
 314 554 314 554 410 554 c 2,27,-1
 919 554 l 1,28,-1
 919 500 l 1,29,-1
 743 500 l 1,30,-1
 743 14 l 1,31,-1
 506 -240 l 1,0,-1
270 236 m 0,32,33
 224 236 224 236 191.5 203.5 c 128,-1,34
 159 171 159 171 152 112 c 1,35,36
 172 81 172 81 201 65 c 128,-1,37
 230 49 230 49 261 49 c 0,38,39
 311 49 311 49 338.5 77.5 c 128,-1,40
 366 106 366 106 366 146 c 0,41,42
 366 180 366 180 343 208 c 128,-1,43
 320 236 320 236 270 236 c 0,32,33
EndSplineSet
Validated: 1049089
AlternateSubs2: "independent vowel signs" eeMatra-tamil
EndChar

StartChar: ai-tamil
Encoding: 61 2960 64
Width: 989
GlyphClass: 2
Flags: W
AnchorPoint: "Anchor-6" 493 -296 basechar 0
AnchorPoint: "Anchor-4" 502 0 basechar 0
AnchorPoint: "Anchor-1" 508 554 basechar 0
AnchorPoint: "Anchor-0" 509 554 basechar 0
LayerCount: 2
Fore
SplineSet
300 -296 m 0,0,1
 190 -296 190 -296 124.5 -245.5 c 128,-1,2
 59 -195 59 -195 59 -105 c 0,3,4
 59 -21 59 -21 110.5 25 c 128,-1,5
 162 71 162 71 254.5 91.5 c 128,-1,6
 347 112 347 112 470 118 c 0,7,8
 599 125 599 125 678.5 148 c 128,-1,9
 758 171 758 171 794.5 219.5 c 128,-1,10
 831 268 831 268 831 350 c 0,11,12
 831 421 831 421 800 463 c 128,-1,13
 769 505 769 505 700 505 c 0,14,15
 636 505 636 505 599.5 461.5 c 128,-1,16
 563 418 563 418 563 356 c 2,17,-1
 563 215 l 1,18,-1
 469 215 l 1,19,-1
 469 330 l 2,20,21
 469 416 469 416 420.5 460.5 c 128,-1,22
 372 505 372 505 294 505 c 0,23,24
 249 505 249 505 210 486.5 c 128,-1,25
 171 468 171 468 146.5 432 c 128,-1,26
 122 396 122 396 122 344 c 0,27,28
 122 337 122 337 122 331 c 1,29,30
 144 377 144 377 181.5 394.5 c 128,-1,31
 219 412 219 412 252 412 c 0,32,33
 310 412 310 412 347 376 c 128,-1,34
 384 340 384 340 384 276 c 0,35,36
 384 223 384 223 342.5 189.5 c 128,-1,37
 301 156 301 156 233 156 c 0,38,39
 183 156 183 156 144.5 181 c 128,-1,40
 106 206 106 206 84.5 250 c 128,-1,41
 63 294 63 294 63 349 c 0,42,43
 63 413 63 413 96 460 c 128,-1,44
 129 507 129 507 186 533 c 128,-1,45
 243 559 243 559 314 559 c 0,46,47
 379 559 379 559 436 528.5 c 128,-1,48
 493 498 493 498 520 439 c 1,49,50
 543 498 543 498 596 528.5 c 128,-1,51
 649 559 649 559 713 559 c 0,52,53
 766 559 766 559 814.5 538.5 c 128,-1,54
 863 518 863 518 894.5 470.5 c 128,-1,55
 926 423 926 423 926 340 c 0,56,57
 926 264 926 264 894 214.5 c 128,-1,58
 862 165 862 165 806.5 136 c 128,-1,59
 751 107 751 107 680.5 93.5 c 128,-1,60
 610 80 610 80 534 76 c 0,61,62
 418 70 418 70 332.5 53.5 c 128,-1,63
 247 37 247 37 200.5 -2.5 c 128,-1,64
 154 -42 154 -42 154 -117 c 0,65,66
 154 -177 154 -177 193 -209 c 128,-1,67
 232 -241 232 -241 305 -241 c 0,68,69
 469 -241 469 -241 469 -88 c 2,70,-1
 469 -41 l 1,71,-1
 563 -41 l 1,72,-1
 563 -74 l 2,73,74
 563 -147 563 -147 601.5 -191 c 128,-1,75
 640 -235 640 -235 706 -235 c 0,76,77
 754 -235 754 -235 791.5 -222 c 128,-1,78
 829 -209 829 -209 850.5 -177.5 c 128,-1,79
 872 -146 872 -146 872 -93 c 0,80,81
 872 -58 872 -58 857.5 -23 c 128,-1,82
 843 12 843 12 811 45 c 1,83,-1
 851 78 l 1,84,85
 889 37 889 37 910 -7.5 c 128,-1,86
 931 -52 931 -52 931 -100 c 0,87,88
 931 -168 931 -168 901 -211.5 c 128,-1,89
 871 -255 871 -255 820.5 -275.5 c 128,-1,90
 770 -296 770 -296 706 -296 c 256,91,92
 642 -296 642 -296 588 -264.5 c 128,-1,93
 534 -233 534 -233 513 -183 c 1,94,95
 491 -237 491 -237 436 -266.5 c 128,-1,96
 381 -296 381 -296 300 -296 c 0,0,1
224 352 m 0,97,98
 199 352 199 352 174.5 333 c 128,-1,99
 150 314 150 314 137 264 c 1,100,101
 152 235 152 235 176 222.5 c 128,-1,102
 200 210 200 210 225 210 c 0,103,104
 256 210 256 210 273.5 229 c 128,-1,105
 291 248 291 248 291 279 c 0,106,107
 291 313 291 313 273 332.5 c 128,-1,108
 255 352 255 352 224 352 c 0,97,98
EndSplineSet
Validated: 1049089
AlternateSubs2: "independent vowel signs" aiMatra-tamil
EndChar

StartChar: o-tamil
Encoding: 62 2962 65
Width: 1012
GlyphClass: 2
Flags: W
AnchorPoint: "Anchor-6" 516 -335 basechar 0
AnchorPoint: "Anchor-4" 518 0 basechar 0
AnchorPoint: "Anchor-1" 511 554 basechar 0
AnchorPoint: "Anchor-0" 511 554 basechar 0
LayerCount: 2
Fore
SplineSet
383 -338 m 0,0,1
 335 -338 335 -338 295.5 -319 c 128,-1,2
 256 -300 256 -300 232.5 -266 c 128,-1,3
 209 -232 209 -232 209 -188 c 0,4,5
 209 -147 209 -147 227.5 -116 c 128,-1,6
 246 -85 246 -85 286 -54 c 1,7,-1
 325 -95 l 1,8,9
 296 -117 296 -117 282 -138.5 c 128,-1,10
 268 -160 268 -160 268 -189 c 0,11,12
 268 -228 268 -228 294 -250 c 128,-1,13
 320 -272 320 -272 357 -272 c 0,14,15
 398 -272 398 -272 427 -257.5 c 128,-1,16
 456 -243 456 -243 479 -221.5 c 128,-1,17
 502 -200 502 -200 525 -177.5 c 128,-1,18
 548 -155 548 -155 577 -139 c 128,-1,19
 606 -123 606 -123 648 -120 c 1,20,-1
 648 -115 l 1,21,22
 593 -89 593 -89 560 -35 c 128,-1,23
 527 19 527 19 527 83 c 0,24,25
 527 141 527 141 556.5 199.5 c 128,-1,26
 586 258 586 258 652 304 c 1,27,-1
 708 260 l 1,28,29
 686 231 686 231 674.5 199.5 c 128,-1,30
 663 168 663 168 663 139 c 0,31,32
 663 101 663 101 683.5 75 c 128,-1,33
 704 49 704 49 746 49 c 0,34,35
 799 49 799 49 829 96 c 128,-1,36
 859 143 859 143 859 211 c 0,37,38
 859 303 859 303 812 368.5 c 128,-1,39
 765 434 765 434 683 469.5 c 128,-1,40
 601 505 601 505 496 505 c 0,41,42
 421 505 421 505 352.5 486 c 128,-1,43
 284 467 284 467 231 431 c 128,-1,44
 178 395 178 395 147.5 343 c 128,-1,45
 117 291 117 291 117 225 c 0,46,47
 117 190 117 190 126 161 c 1,48,49
 142 225 142 225 192 264.5 c 128,-1,50
 242 304 242 304 307 304 c 0,51,52
 378 304 378 304 418.5 261.5 c 128,-1,53
 459 219 459 219 459 150 c 0,54,55
 459 83 459 83 409.5 39 c 128,-1,56
 360 -5 360 -5 278 -5 c 0,57,58
 221 -5 221 -5 171 22 c 128,-1,59
 121 49 121 49 90 101 c 128,-1,60
 59 153 59 153 59 227 c 0,61,62
 59 307 59 307 93.5 368.5 c 128,-1,63
 128 430 128 430 188.5 472.5 c 128,-1,64
 249 515 249 515 327.5 537 c 128,-1,65
 406 559 406 559 494 559 c 0,66,67
 589 559 589 559 672.5 533 c 128,-1,68
 756 507 756 507 819 459.5 c 128,-1,69
 882 412 882 412 918 346.5 c 128,-1,70
 954 281 954 281 954 201 c 0,71,72
 954 140 954 140 928 93.5 c 128,-1,73
 902 47 902 47 857.5 21 c 128,-1,74
 813 -5 813 -5 759 -5 c 0,75,76
 709 -5 709 -5 676.5 15.5 c 128,-1,77
 644 36 644 36 628 68.5 c 128,-1,78
 612 101 612 101 612 136 c 0,79,80
 612 173 612 173 627 204 c 1,81,-1
 622 208 l 1,82,83
 597 178 597 178 586.5 147.5 c 128,-1,84
 576 117 576 117 576 88 c 0,85,86
 576 38 576 38 603.5 -3 c 128,-1,87
 631 -44 631 -44 676 -68.5 c 128,-1,88
 721 -93 721 -93 772 -93 c 2,89,-1
 805 -93 l 1,90,-1
 805 -146 l 1,91,-1
 772 -146 l 2,92,93
 728 -146 728 -146 696.5 -160 c 128,-1,94
 665 -174 665 -174 639.5 -195.5 c 128,-1,95
 614 -217 614 -217 589.5 -242 c 128,-1,96
 565 -267 565 -267 537 -288.5 c 128,-1,97
 509 -310 509 -310 472 -324 c 128,-1,98
 435 -338 435 -338 383 -338 c 0,0,1
270 236 m 0,99,100
 223 236 223 236 190.5 202.5 c 128,-1,101
 158 169 158 169 151 108 c 1,102,103
 172 79 172 79 201 64 c 128,-1,104
 230 49 230 49 261 49 c 0,105,106
 311 49 311 49 338.5 77.5 c 128,-1,107
 366 106 366 106 366 146 c 0,108,109
 366 180 366 180 343 208 c 128,-1,110
 320 236 320 236 270 236 c 0,99,100
EndSplineSet
Validated: 1049089
EndChar

StartChar: oo-tamil
Encoding: 63 2963 66
Width: 1012
GlyphClass: 2
Flags: W
AnchorPoint: "Anchor-6" 495 -315 basechar 0
AnchorPoint: "Anchor-4" 497 0 basechar 0
AnchorPoint: "Anchor-1" 490 554 basechar 0
AnchorPoint: "Anchor-0" 490 554 basechar 0
LayerCount: 2
Fore
SplineSet
366 -348 m 0,0,1
 316 -348 316 -348 276 -331 c 128,-1,2
 236 -314 236 -314 212.5 -281 c 128,-1,3
 189 -248 189 -248 189 -201 c 0,4,5
 189 -151 189 -151 216.5 -119.5 c 128,-1,6
 244 -88 244 -88 284 -72.5 c 128,-1,7
 324 -57 324 -57 361 -57 c 0,8,9
 399 -57 399 -57 426.5 -73.5 c 128,-1,10
 454 -90 454 -90 454 -125 c 0,11,12
 454 -143 454 -143 440 -162 c 128,-1,13
 426 -181 426 -181 406 -190 c 1,14,15
 397 -164 397 -164 373.5 -151.5 c 128,-1,16
 350 -139 350 -139 323 -139 c 0,17,18
 295 -139 295 -139 271.5 -156 c 128,-1,19
 248 -173 248 -173 248 -205 c 0,20,21
 248 -239 248 -239 269.5 -260.5 c 128,-1,22
 291 -282 291 -282 338 -282 c 0,23,24
 387 -282 387 -282 419 -267 c 128,-1,25
 451 -252 451 -252 474 -229 c 128,-1,26
 497 -206 497 -206 519 -182.5 c 128,-1,27
 541 -159 541 -159 569 -141.5 c 128,-1,28
 597 -124 597 -124 638 -120 c 1,29,-1
 638 -115 l 1,30,31
 584 -90 584 -90 553.5 -38 c 128,-1,32
 523 14 523 14 523 76 c 0,33,34
 523 135 523 135 554 195.5 c 128,-1,35
 585 256 585 256 652 304 c 1,36,-1
 708 260 l 1,37,38
 686 231 686 231 674.5 199.5 c 128,-1,39
 663 168 663 168 663 139 c 0,40,41
 663 101 663 101 683.5 75 c 128,-1,42
 704 49 704 49 746 49 c 0,43,44
 799 49 799 49 829 96 c 128,-1,45
 859 143 859 143 859 211 c 0,46,47
 859 303 859 303 812 368.5 c 128,-1,48
 765 434 765 434 683 469.5 c 128,-1,49
 601 505 601 505 496 505 c 0,50,51
 421 505 421 505 352.5 486 c 128,-1,52
 284 467 284 467 231 431 c 128,-1,53
 178 395 178 395 147.5 343 c 128,-1,54
 117 291 117 291 117 225 c 0,55,56
 117 190 117 190 126 161 c 1,57,58
 142 225 142 225 192 264.5 c 128,-1,59
 242 304 242 304 307 304 c 0,60,61
 378 304 378 304 418.5 261.5 c 128,-1,62
 459 219 459 219 459 150 c 0,63,64
 459 83 459 83 409.5 39 c 128,-1,65
 360 -5 360 -5 278 -5 c 0,66,67
 221 -5 221 -5 171 22 c 128,-1,68
 121 49 121 49 90 101 c 128,-1,69
 59 153 59 153 59 227 c 0,70,71
 59 307 59 307 93.5 368.5 c 128,-1,72
 128 430 128 430 188.5 472.5 c 128,-1,73
 249 515 249 515 327.5 537 c 128,-1,74
 406 559 406 559 494 559 c 0,75,76
 589 559 589 559 672.5 533 c 128,-1,77
 756 507 756 507 819 459.5 c 128,-1,78
 882 412 882 412 918 346.5 c 128,-1,79
 954 281 954 281 954 201 c 0,80,81
 954 140 954 140 928 93.5 c 128,-1,82
 902 47 902 47 857.5 21 c 128,-1,83
 813 -5 813 -5 759 -5 c 0,84,85
 709 -5 709 -5 676.5 15.5 c 128,-1,86
 644 36 644 36 628 68.5 c 128,-1,87
 612 101 612 101 612 136 c 0,88,89
 612 173 612 173 627 204 c 1,90,-1
 622 208 l 1,91,92
 597 177 597 177 585.5 145 c 128,-1,93
 574 113 574 113 574 84 c 0,94,95
 574 35 574 35 600 -5 c 128,-1,96
 626 -45 626 -45 669 -69 c 128,-1,97
 712 -93 712 -93 763 -93 c 2,98,-1
 787 -93 l 1,99,-1
 787 -146 l 1,100,-1
 752 -146 l 2,101,102
 712 -146 712 -146 683 -160.5 c 128,-1,103
 654 -175 654 -175 631 -198 c 128,-1,104
 608 -221 608 -221 584.5 -247 c 128,-1,105
 561 -273 561 -273 532 -296 c 128,-1,106
 503 -319 503 -319 463 -333.5 c 128,-1,107
 423 -348 423 -348 366 -348 c 0,0,1
270 236 m 0,108,109
 223 236 223 236 190.5 202.5 c 128,-1,110
 158 169 158 169 151 108 c 1,111,112
 172 79 172 79 201 64 c 128,-1,113
 230 49 230 49 261 49 c 0,114,115
 311 49 311 49 338.5 77.5 c 128,-1,116
 366 106 366 106 366 146 c 0,117,118
 366 180 366 180 343 208 c 128,-1,119
 320 236 320 236 270 236 c 0,108,109
EndSplineSet
Validated: 1049089
EndChar

StartChar: au-tamil
Encoding: 64 2964 67
Width: 2237
GlyphClass: 2
Flags: W
AnchorPoint: "Anchor-6" 1215 0 basechar 0
AnchorPoint: "Anchor-4" 1134 0 basechar 0
AnchorPoint: "Anchor-1" 1127 554 basechar 0
AnchorPoint: "Anchor-0" 1127 554 basechar 0
LayerCount: 2
Fore
SplineSet
1254 -4 m 0,0,1
 1196 -4 1196 -4 1146 24.5 c 128,-1,2
 1096 53 1096 53 1065 110 c 128,-1,3
 1034 167 1034 167 1034 250 c 0,4,5
 1034 352 1034 352 1078 421 c 128,-1,6
 1122 490 1122 490 1196 524.5 c 128,-1,7
 1270 559 1270 559 1359 559 c 0,8,9
 1546 559 1546 559 1629 441 c 1,10,-1
 1629 554 l 1,11,-1
 2218 554 l 1,12,-1
 2218 500 l 1,13,-1
 2042 500 l 1,14,-1
 2042 0 l 1,15,-1
 1947 0 l 1,16,-1
 1947 500 l 1,17,-1
 1719 500 l 1,18,-1
 1719 0 l 1,19,-1
 1625 0 l 1,20,-1
 1625 269 l 2,21,22
 1625 382 1625 382 1554.5 443.5 c 128,-1,23
 1484 505 1484 505 1359 505 c 0,24,25
 1286 505 1286 505 1225.5 475.5 c 128,-1,26
 1165 446 1165 446 1129 389 c 128,-1,27
 1093 332 1093 332 1093 249 c 0,28,29
 1093 204 1093 204 1103 167 c 1,30,31
 1121 228 1121 228 1170.5 266 c 128,-1,32
 1220 304 1220 304 1282 304 c 0,33,34
 1353 304 1353 304 1394 261.5 c 128,-1,35
 1435 219 1435 219 1435 150 c 0,36,37
 1435 83 1435 83 1385 39.5 c 128,-1,38
 1335 -4 1335 -4 1254 -4 c 0,0,1
383 -338 m 0,39,40
 335 -338 335 -338 295.5 -319 c 128,-1,41
 256 -300 256 -300 232.5 -266 c 128,-1,42
 209 -232 209 -232 209 -188 c 0,43,44
 209 -147 209 -147 227.5 -116 c 128,-1,45
 246 -85 246 -85 286 -54 c 1,46,-1
 325 -95 l 1,47,48
 296 -117 296 -117 282 -138.5 c 128,-1,49
 268 -160 268 -160 268 -189 c 0,50,51
 268 -228 268 -228 294 -250 c 128,-1,52
 320 -272 320 -272 357 -272 c 0,53,54
 398 -272 398 -272 427 -257.5 c 128,-1,55
 456 -243 456 -243 479 -221.5 c 128,-1,56
 502 -200 502 -200 525 -177.5 c 128,-1,57
 548 -155 548 -155 577 -139 c 128,-1,58
 606 -123 606 -123 648 -120 c 1,59,-1
 648 -115 l 1,60,61
 593 -89 593 -89 560 -35 c 128,-1,62
 527 19 527 19 527 83 c 0,63,64
 527 141 527 141 556.5 199.5 c 128,-1,65
 586 258 586 258 652 304 c 1,66,-1
 708 260 l 1,67,68
 686 231 686 231 674.5 199.5 c 128,-1,69
 663 168 663 168 663 139 c 0,70,71
 663 101 663 101 683.5 75 c 128,-1,72
 704 49 704 49 746 49 c 0,73,74
 799 49 799 49 829 96 c 128,-1,75
 859 143 859 143 859 211 c 0,76,77
 859 303 859 303 812 368.5 c 128,-1,78
 765 434 765 434 683 469.5 c 128,-1,79
 601 505 601 505 496 505 c 0,80,81
 421 505 421 505 352.5 486 c 128,-1,82
 284 467 284 467 231 431 c 128,-1,83
 178 395 178 395 147.5 343 c 128,-1,84
 117 291 117 291 117 225 c 0,85,86
 117 190 117 190 126 161 c 1,87,88
 142 225 142 225 192 264.5 c 128,-1,89
 242 304 242 304 307 304 c 0,90,91
 378 304 378 304 418.5 261.5 c 128,-1,92
 459 219 459 219 459 150 c 0,93,94
 459 83 459 83 409.5 39 c 128,-1,95
 360 -5 360 -5 278 -5 c 0,96,97
 221 -5 221 -5 171 22 c 128,-1,98
 121 49 121 49 90 101 c 128,-1,99
 59 153 59 153 59 227 c 0,100,101
 59 307 59 307 93.5 368.5 c 128,-1,102
 128 430 128 430 188.5 472.5 c 128,-1,103
 249 515 249 515 327.5 537 c 128,-1,104
 406 559 406 559 494 559 c 0,105,106
 589 559 589 559 672.5 533 c 128,-1,107
 756 507 756 507 819 459.5 c 128,-1,108
 882 412 882 412 918 346.5 c 128,-1,109
 954 281 954 281 954 201 c 0,110,111
 954 140 954 140 928 93.5 c 128,-1,112
 902 47 902 47 857.5 21 c 128,-1,113
 813 -5 813 -5 759 -5 c 0,114,115
 709 -5 709 -5 676.5 15.5 c 128,-1,116
 644 36 644 36 628 68.5 c 128,-1,117
 612 101 612 101 612 136 c 0,118,119
 612 173 612 173 627 204 c 1,120,-1
 622 208 l 1,121,122
 597 178 597 178 586.5 147.5 c 128,-1,123
 576 117 576 117 576 88 c 0,124,125
 576 38 576 38 603.5 -3 c 128,-1,126
 631 -44 631 -44 676 -68.5 c 128,-1,127
 721 -93 721 -93 772 -93 c 2,128,-1
 805 -93 l 1,129,-1
 805 -146 l 1,130,-1
 772 -146 l 2,131,132
 728 -146 728 -146 696.5 -160 c 128,-1,133
 665 -174 665 -174 639.5 -195.5 c 128,-1,134
 614 -217 614 -217 589.5 -242 c 128,-1,135
 565 -267 565 -267 537 -288.5 c 128,-1,136
 509 -310 509 -310 472 -324 c 128,-1,137
 435 -338 435 -338 383 -338 c 0,39,40
1245 236 m 0,138,139
 1200 236 1200 236 1167.5 203.5 c 128,-1,140
 1135 171 1135 171 1127 112 c 1,141,142
 1148 80 1148 80 1176.5 64.5 c 128,-1,143
 1205 49 1205 49 1237 49 c 0,144,145
 1287 49 1287 49 1314.5 77.5 c 128,-1,146
 1342 106 1342 106 1342 146 c 0,147,148
 1342 180 1342 180 1319 208 c 128,-1,149
 1296 236 1296 236 1245 236 c 0,138,139
270 236 m 0,150,151
 223 236 223 236 190.5 202.5 c 128,-1,152
 158 169 158 169 151 108 c 1,153,154
 172 79 172 79 201 64 c 128,-1,155
 230 49 230 49 261 49 c 0,156,157
 311 49 311 49 338.5 77.5 c 128,-1,158
 366 106 366 106 366 146 c 0,159,160
 366 180 366 180 343 208 c 128,-1,161
 320 236 320 236 270 236 c 0,150,151
EndSplineSet
Validated: 1049089
AlternateSubs2: "independent vowel signs" aulengthmark-tamil
EndChar

StartChar: ka-tamil
Encoding: 65 2965 68
Width: 854
GlyphClass: 2
Flags: W
AnchorPoint: "Anchor-6" 427 0 basechar 0
AnchorPoint: "Anchor-4" 427 0 basechar 0
AnchorPoint: "Anchor-2" 566 554 basechar 0
AnchorPoint: "Anchor-1" 462 554 basechar 0
AnchorPoint: "Anchor-0" 447 554 basechar 0
LayerCount: 2
Fore
SplineSet
278 -4 m 0,0,1
 219 -4 219 -4 170 16 c 128,-1,2
 121 36 121 36 92 73 c 128,-1,3
 63 110 63 110 63 162 c 0,4,5
 63 220 63 220 98 259.5 c 128,-1,6
 133 299 133 299 195 312 c 1,7,-1
 195 554 l 1,8,-1
 689 554 l 1,9,-1
 689 500 l 1,10,-1
 514 500 l 1,11,-1
 514 317 l 1,12,-1
 559 317 l 2,13,14
 668 317 668 317 731.5 274.5 c 128,-1,15
 795 232 795 232 795 151 c 0,16,17
 795 102 795 102 770.5 67.5 c 128,-1,18
 746 33 746 33 704.5 15.5 c 128,-1,19
 663 -2 663 -2 611 -2 c 2,20,-1
 555 -2 l 1,21,-1
 555 51 l 1,22,-1
 593 51 l 2,23,24
 642 51 642 51 671 80.5 c 128,-1,25
 700 110 700 110 700 154 c 0,26,27
 700 210 700 210 661 236.5 c 128,-1,28
 622 263 622 263 560 263 c 2,29,-1
 514 263 l 1,30,-1
 514 200 l 2,31,32
 514 140 514 140 486 94 c 128,-1,33
 458 48 458 48 405.5 22 c 128,-1,34
 353 -4 353 -4 278 -4 c 0,0,1
419 500 m 1,35,-1
 256 500 l 1,36,-1
 256 317 l 1,37,-1
 419 317 l 1,38,-1
 419 500 l 1,35,-1
270 49 m 0,39,40
 311 49 311 49 344.5 64 c 128,-1,41
 378 79 378 79 398.5 110 c 128,-1,42
 419 141 419 141 419 189 c 2,43,-1
 419 263 l 1,44,-1
 259 263 l 2,45,46
 198 263 198 263 163 235 c 128,-1,47
 128 207 128 207 128 160 c 0,48,49
 128 105 128 105 170 77 c 128,-1,50
 212 49 212 49 270 49 c 0,39,40
EndSplineSet
Validated: 1049089
EndChar

StartChar: nga-tamil
Encoding: 66 2969 69
Width: 1024
GlyphClass: 2
Flags: W
AnchorPoint: "Anchor-6" 512 0 basechar 0
AnchorPoint: "Anchor-4" 512 0 basechar 0
AnchorPoint: "Anchor-2" 578 554 basechar 0
AnchorPoint: "Anchor-1" 512 554 basechar 0
AnchorPoint: "Anchor-0" 512 554 basechar 0
LayerCount: 2
Fore
SplineSet
98 0 m 1,0,-1
 98 554 l 1,1,-1
 606 554 l 1,2,-1
 606 500 l 1,3,-1
 431 500 l 1,4,-1
 431 311 l 1,5,6
 436 325 436 325 450.5 340.5 c 128,-1,7
 465 356 465 356 489.5 367.5 c 128,-1,8
 514 379 514 379 548 379 c 0,9,10
 592 379 592 379 627 359.5 c 128,-1,11
 662 340 662 340 682.5 305.5 c 128,-1,12
 703 271 703 271 703 226 c 0,13,14
 703 182 703 182 683 146 c 128,-1,15
 663 110 663 110 630.5 86 c 128,-1,16
 598 62 598 62 560 54 c 1,17,-1
 832 54 l 1,18,-1
 832 554 l 1,19,-1
 927 554 l 1,20,-1
 927 0 l 1,21,-1
 336 0 l 1,22,-1
 336 54 l 1,23,-1
 440 54 l 2,24,25
 463 54 463 54 491.5 61 c 128,-1,26
 520 68 520 68 547.5 85.5 c 128,-1,27
 575 103 575 103 592.5 133.5 c 128,-1,28
 610 164 610 164 610 210 c 0,29,30
 610 257 610 257 583.5 286.5 c 128,-1,31
 557 316 557 316 516 316 c 0,32,33
 477 316 477 316 454 290 c 128,-1,34
 431 264 431 264 431 223 c 2,35,-1
 431 196 l 1,36,-1
 336 196 l 1,37,-1
 336 500 l 1,38,-1
 159 500 l 1,39,-1
 159 0 l 1,40,-1
 98 0 l 1,0,-1
EndSplineSet
Validated: 1049089
EndChar

StartChar: ca-tamil
Encoding: 67 2970 70
Width: 733
GlyphClass: 2
Flags: W
AnchorPoint: "Anchor-6" 378 0 basechar 0
AnchorPoint: "Anchor-4" 384 0 basechar 0
AnchorPoint: "Anchor-2" 613 554 basechar 0
AnchorPoint: "Anchor-1" 376 554 basechar 0
AnchorPoint: "Anchor-0" 442 554 basechar 0
LayerCount: 2
Fore
SplineSet
278 -4 m 0,0,1
 219 -4 219 -4 170 16 c 128,-1,2
 121 36 121 36 92 73 c 128,-1,3
 63 110 63 110 63 162 c 0,4,5
 63 220 63 220 98 259.5 c 128,-1,6
 133 299 133 299 195 312 c 1,7,-1
 195 554 l 1,8,-1
 689 554 l 1,9,-1
 689 500 l 1,10,-1
 514 500 l 1,11,-1
 514 317 l 1,12,-1
 689 317 l 1,13,-1
 689 263 l 1,14,-1
 514 263 l 1,15,-1
 514 200 l 2,16,17
 514 140 514 140 486 94 c 128,-1,18
 458 48 458 48 405.5 22 c 128,-1,19
 353 -4 353 -4 278 -4 c 0,0,1
419 500 m 1,20,-1
 256 500 l 1,21,-1
 256 317 l 1,22,-1
 419 317 l 1,23,-1
 419 500 l 1,20,-1
270 49 m 0,24,25
 311 49 311 49 344.5 63.5 c 128,-1,26
 378 78 378 78 398.5 109 c 128,-1,27
 419 140 419 140 419 189 c 2,28,-1
 419 263 l 1,29,-1
 259 263 l 2,30,31
 195 263 195 263 160 235 c 128,-1,32
 125 207 125 207 125 160 c 0,33,34
 125 103 125 103 167 76 c 128,-1,35
 209 49 209 49 270 49 c 0,24,25
EndSplineSet
Validated: 1049089
EndChar

StartChar: ja-tamil
Encoding: 68 2972 71
Width: 985
GlyphClass: 2
Flags: W
AnchorPoint: "Anchor-6" 493 -296 basechar 0
AnchorPoint: "Anchor-4" 502 0 basechar 0
AnchorPoint: "Anchor-1" 502 554 basechar 0
AnchorPoint: "Anchor-0" 507 554 basechar 0
LayerCount: 2
Fore
SplineSet
280 -296 m 256,0,1
 219 -296 219 -296 168.5 -273.5 c 128,-1,2
 118 -251 118 -251 88.5 -207.5 c 128,-1,3
 59 -164 59 -164 59 -102 c 0,4,5
 59 -31 59 -31 93.5 11 c 128,-1,6
 128 53 128 53 187 75 c 128,-1,7
 246 97 246 97 319.5 107 c 128,-1,8
 393 117 393 117 471 124 c 0,9,10
 597 135 597 135 676.5 156.5 c 128,-1,11
 756 178 756 178 794 223 c 128,-1,12
 832 268 832 268 832 350 c 0,13,14
 832 421 832 421 800.5 463 c 128,-1,15
 769 505 769 505 700 505 c 0,16,17
 636 505 636 505 600 461.5 c 128,-1,18
 564 418 564 418 564 356 c 2,19,-1
 564 215 l 1,20,-1
 469 215 l 1,21,-1
 469 330 l 2,22,23
 469 416 469 416 421 460.5 c 128,-1,24
 373 505 373 505 295 505 c 0,25,26
 250 505 250 505 210.5 486.5 c 128,-1,27
 171 468 171 468 146.5 432.5 c 128,-1,28
 122 397 122 397 122 344 c 0,29,30
 122 336 122 336 122 330 c 1,31,32
 144 376 144 376 181.5 394 c 128,-1,33
 219 412 219 412 252 412 c 0,34,35
 307 412 307 412 345.5 376.5 c 128,-1,36
 384 341 384 341 384 276 c 0,37,38
 384 239 384 239 363.5 212 c 128,-1,39
 343 185 343 185 309 170.5 c 128,-1,40
 275 156 275 156 233 156 c 0,41,42
 183 156 183 156 144.5 181 c 128,-1,43
 106 206 106 206 84.5 250 c 128,-1,44
 63 294 63 294 63 349 c 0,45,46
 63 413 63 413 96.5 460 c 128,-1,47
 130 507 130 507 187 533 c 128,-1,48
 244 559 244 559 314 559 c 0,49,50
 379 559 379 559 436.5 528.5 c 128,-1,51
 494 498 494 498 520 439 c 1,52,53
 543 498 543 498 596 528.5 c 128,-1,54
 649 559 649 559 713 559 c 0,55,56
 766 559 766 559 815 538.5 c 128,-1,57
 864 518 864 518 895.5 470.5 c 128,-1,58
 927 423 927 423 927 340 c 0,59,60
 927 263 927 263 894.5 215 c 128,-1,61
 862 167 862 167 806.5 140 c 128,-1,62
 751 113 751 113 680.5 99.5 c 128,-1,63
 610 86 610 86 534 79 c 0,64,65
 464 72 464 72 396 64.5 c 128,-1,66
 328 57 328 57 273 40 c 128,-1,67
 218 23 218 23 185.5 -11 c 128,-1,68
 153 -45 153 -45 153 -104 c 0,69,70
 153 -168 153 -168 186.5 -205.5 c 128,-1,71
 220 -243 220 -243 284 -243 c 0,72,73
 334 -243 334 -243 370 -223 c 128,-1,74
 406 -203 406 -203 435.5 -171 c 128,-1,75
 465 -139 465 -139 493 -103 c 128,-1,76
 521 -67 521 -67 553 -35 c 128,-1,77
 585 -3 585 -3 627 17 c 128,-1,78
 669 37 669 37 727 37 c 0,79,80
 780 37 780 37 825.5 19 c 128,-1,81
 871 1 871 1 899 -37.5 c 128,-1,82
 927 -76 927 -76 927 -138 c 0,83,84
 927 -186 927 -186 901 -221.5 c 128,-1,85
 875 -257 875 -257 831.5 -276.5 c 128,-1,86
 788 -296 788 -296 737 -296 c 0,87,88
 703 -296 703 -296 668 -286.5 c 128,-1,89
 633 -277 633 -277 599 -258 c 1,90,-1
 618 -219 l 1,91,92
 647 -234 647 -234 671.5 -240.5 c 128,-1,93
 696 -247 696 -247 718 -247 c 0,94,95
 774 -247 774 -247 803 -212.5 c 128,-1,96
 832 -178 832 -178 832 -133 c 0,97,98
 832 -82 832 -82 803.5 -49.5 c 128,-1,99
 775 -17 775 -17 717 -17 c 0,100,101
 672 -17 672 -17 638.5 -37 c 128,-1,102
 605 -57 605 -57 577.5 -89 c 128,-1,103
 550 -121 550 -121 522.5 -156.5 c 128,-1,104
 495 -192 495 -192 462 -224 c 128,-1,105
 429 -256 429 -256 385 -276 c 128,-1,106
 341 -296 341 -296 280 -296 c 256,0,1
227 352 m 0,107,108
 199 352 199 352 174.5 332.5 c 128,-1,109
 150 313 150 313 138 263 c 1,110,111
 153 234 153 234 176.5 222 c 128,-1,112
 200 210 200 210 225 210 c 0,113,114
 259 210 259 210 275.5 230.5 c 128,-1,115
 292 251 292 251 292 279 c 0,116,117
 292 312 292 312 274 332 c 128,-1,118
 256 352 256 352 227 352 c 0,107,108
EndSplineSet
Validated: 1049089
EndChar

StartChar: nya-tamil
Encoding: 69 2974 72
Width: 1304
GlyphClass: 2
Flags: W
AnchorPoint: "Anchor-6" 687 -348 basechar 0
AnchorPoint: "Anchor-4" 687 0 basechar 0
AnchorPoint: "Anchor-2" 1052 554 basechar 0
AnchorPoint: "Anchor-1" 654 554 basechar 0
AnchorPoint: "Anchor-0" 678 554 basechar 0
LayerCount: 2
Fore
SplineSet
489 -5 m 0,0,1
 431 -5 431 -5 381 24 c 128,-1,2
 331 53 331 53 300.5 110 c 128,-1,3
 270 167 270 167 270 250 c 0,4,5
 270 326 270 326 298 383 c 128,-1,6
 326 440 326 440 375.5 478 c 128,-1,7
 425 516 425 516 489.5 535 c 128,-1,8
 554 554 554 554 626 554 c 2,9,-1
 1130 554 l 1,10,-1
 1130 500 l 1,11,-1
 954 500 l 1,12,-1
 954 297 l 1,13,14
 994 345 994 345 1061 345 c 0,15,16
 1114 345 1114 345 1156 317.5 c 128,-1,17
 1198 290 1198 290 1222 239.5 c 128,-1,18
 1246 189 1246 189 1246 118 c 0,19,20
 1246 13 1246 13 1203.5 -72.5 c 128,-1,21
 1161 -158 1161 -158 1084.5 -220 c 128,-1,22
 1008 -282 1008 -282 906.5 -315 c 128,-1,23
 805 -348 805 -348 687 -348 c 0,24,25
 563 -348 563 -348 463.5 -316.5 c 128,-1,26
 364 -285 364 -285 289 -229 c 128,-1,27
 214 -173 214 -173 163.5 -99.5 c 128,-1,28
 113 -26 113 -26 88 58 c 128,-1,29
 63 142 63 142 63 229 c 0,30,31
 63 388 63 388 127 498 c 128,-1,32
 191 608 191 608 300 671 c 1,33,-1
 333 625 l 1,34,35
 227 564 227 564 173.5 467 c 128,-1,36
 120 370 120 370 120 229 c 0,37,38
 120 106 120 106 165 9.5 c 128,-1,39
 210 -87 210 -87 288 -155 c 128,-1,40
 366 -223 366 -223 467.5 -258.5 c 128,-1,41
 569 -294 569 -294 682 -294 c 0,42,43
 783 -294 783 -294 868.5 -266.5 c 128,-1,44
 954 -239 954 -239 1017.5 -187 c 128,-1,45
 1081 -135 1081 -135 1116 -60 c 128,-1,46
 1151 15 1151 15 1151 111 c 0,47,48
 1151 195 1151 195 1119.5 240.5 c 128,-1,49
 1088 286 1088 286 1035 286 c 0,50,51
 1005 286 1005 286 984.5 271 c 128,-1,52
 964 256 964 256 954 233 c 1,53,-1
 954 0 l 1,54,-1
 859 0 l 1,55,-1
 859 500 l 1,56,-1
 629 500 l 2,57,58
 545 500 545 500 477 471.5 c 128,-1,59
 409 443 409 443 368.5 387.5 c 128,-1,60
 328 332 328 332 328 249 c 0,61,62
 328 204 328 204 339 167 c 1,63,64
 356 228 356 228 405.5 265.5 c 128,-1,65
 455 303 455 303 518 303 c 0,66,67
 589 303 589 303 629.5 261 c 128,-1,68
 670 219 670 219 670 150 c 0,69,70
 670 82 670 82 620.5 38.5 c 128,-1,71
 571 -5 571 -5 489 -5 c 0,0,1
481 236 m 0,72,73
 435 236 435 236 403 203.5 c 128,-1,74
 371 171 371 171 363 112 c 1,75,76
 383 80 383 80 412 64.5 c 128,-1,77
 441 49 441 49 472 49 c 0,78,79
 522 49 522 49 549.5 77 c 128,-1,80
 577 105 577 105 577 146 c 0,81,82
 577 179 577 179 554 207.5 c 128,-1,83
 531 236 531 236 481 236 c 0,72,73
EndSplineSet
Validated: 1049089
EndChar

StartChar: tta-tamil
Encoding: 70 2975 73
Width: 904
GlyphClass: 2
Flags: W
AnchorPoint: "Anchor-6" 494 0 basechar 0
AnchorPoint: "Anchor-4" 494 0 basechar 0
AnchorPoint: "Anchor-1" 494 554 basechar 0
AnchorPoint: "Anchor-0" 535 554 basechar 0
LayerCount: 2
Fore
SplineSet
98 0 m 1,0,-1
 98 554 l 1,1,-1
 192 554 l 1,2,-1
 192 54 l 1,3,-1
 890 54 l 1,4,-1
 890 0 l 1,5,-1
 98 0 l 1,0,-1
EndSplineSet
Validated: 1049089
EndChar

StartChar: nna-tamil
Encoding: 71 2979 74
Width: 1758
GlyphClass: 2
Flags: W
AnchorPoint: "Anchor-6" 938 0 basechar 0
AnchorPoint: "Anchor-4" 938 0 basechar 0
AnchorPoint: "Anchor-2" 1609 554 basechar 0
AnchorPoint: "Anchor-1" 898 554 basechar 0
AnchorPoint: "Anchor-0" 936 554 basechar 0
LayerCount: 2
Fore
SplineSet
711 -5 m 0,0,1
 626 -5 626 -5 580.5 51 c 128,-1,2
 535 107 535 107 535 197 c 0,3,4
 535 279 535 279 566 346.5 c 128,-1,5
 597 414 597 414 652 462 c 1,6,7
 569 505 569 505 448 505 c 0,8,9
 359 505 359 505 283.5 473 c 128,-1,10
 208 441 208 441 162.5 380 c 128,-1,11
 117 319 117 319 117 231 c 0,12,13
 117 192 117 192 127 160 c 1,14,15
 143 224 143 224 193 264 c 128,-1,16
 243 304 243 304 307 304 c 0,17,18
 378 304 378 304 418.5 261.5 c 128,-1,19
 459 219 459 219 459 150 c 0,20,21
 459 83 459 83 409.5 39.5 c 128,-1,22
 360 -4 360 -4 279 -4 c 0,23,24
 223 -4 223 -4 172.5 23 c 128,-1,25
 122 50 122 50 90.5 103 c 128,-1,26
 59 156 59 156 59 234 c 0,27,28
 59 313 59 313 91.5 373.5 c 128,-1,29
 124 434 124 434 181 475.5 c 128,-1,30
 238 517 238 517 310.5 538 c 128,-1,31
 383 559 383 559 462 559 c 0,32,33
 529 559 529 559 591 544 c 128,-1,34
 653 529 653 529 705 500 c 1,35,36
 753 528 753 528 811.5 543.5 c 128,-1,37
 870 559 870 559 936 559 c 0,38,39
 1001 559 1001 559 1059.5 542 c 128,-1,40
 1118 525 1118 525 1168 494 c 1,41,42
 1215 522 1215 522 1273 538 c 128,-1,43
 1331 554 1331 554 1396 554 c 2,44,-1
 1739 554 l 1,45,-1
 1739 500 l 1,46,-1
 1563 500 l 1,47,-1
 1563 0 l 1,48,-1
 1468 0 l 1,49,-1
 1468 500 l 1,50,-1
 1396 500 l 2,51,52
 1343 500 1343 500 1298 489 c 128,-1,53
 1253 478 1253 478 1216 459 c 1,54,55
 1277 407 1277 407 1312.5 335.5 c 128,-1,56
 1348 264 1348 264 1348 182 c 0,57,58
 1348 124 1348 124 1323.5 82 c 128,-1,59
 1299 40 1299 40 1257.5 17.5 c 128,-1,60
 1216 -5 1216 -5 1164 -5 c 0,61,62
 1108 -5 1108 -5 1068.5 21 c 128,-1,63
 1029 47 1029 47 1008 92 c 128,-1,64
 987 137 987 137 987 196 c 0,65,66
 987 270 987 270 1019.5 337 c 128,-1,67
 1052 404 1052 404 1110 454 c 1,68,69
 1072 478 1072 478 1024.5 491.5 c 128,-1,70
 977 505 977 505 922 505 c 0,71,72
 875 505 875 505 833 495.5 c 128,-1,73
 791 486 791 486 755 469 c 1,74,75
 820 420 820 420 858 350 c 128,-1,76
 896 280 896 280 896 194 c 0,77,78
 896 136 896 136 873 91 c 128,-1,79
 850 46 850 46 808.5 20.5 c 128,-1,80
 767 -5 767 -5 711 -5 c 0,0,1
591 193 m 0,81,82
 591 129 591 129 615.5 89 c 128,-1,83
 640 49 640 49 693 49 c 0,84,85
 748 49 748 49 773 91.5 c 128,-1,86
 798 134 798 134 798 195 c 0,87,88
 798 274 798 274 772 333.5 c 128,-1,89
 746 393 746 393 698 432 c 1,90,91
 647 390 647 390 619 328.5 c 128,-1,92
 591 267 591 267 591 193 c 0,81,82
1043 196 m 0,93,94
 1043 135 1043 135 1068.5 92 c 128,-1,95
 1094 49 1094 49 1147 49 c 0,96,97
 1197 49 1197 49 1223.5 84.5 c 128,-1,98
 1250 120 1250 120 1250 184 c 0,99,100
 1250 255 1250 255 1225.5 315.5 c 128,-1,101
 1201 376 1201 376 1155 419 c 1,102,103
 1099 373 1099 373 1071 313 c 128,-1,104
 1043 253 1043 253 1043 196 c 0,93,94
270 236 m 0,105,106
 224 236 224 236 191.5 202.5 c 128,-1,107
 159 169 159 169 152 107 c 1,108,109
 173 78 173 78 202 63.5 c 128,-1,110
 231 49 231 49 262 49 c 0,111,112
 312 49 312 49 339.5 77.5 c 128,-1,113
 367 106 367 106 367 146 c 0,114,115
 367 180 367 180 344 208 c 128,-1,116
 321 236 321 236 270 236 c 0,105,106
EndSplineSet
Validated: 1049089
EndChar

StartChar: ta-tamil
Encoding: 72 2980 75
Width: 854
GlyphClass: 2
Flags: W
AnchorPoint: "Anchor-6" 427 -140 basechar 0
AnchorPoint: "Anchor-4" 427 0 basechar 0
AnchorPoint: "Anchor-2" 613 554 basechar 0
AnchorPoint: "Anchor-1" 429 554 basechar 0
AnchorPoint: "Anchor-0" 447 554 basechar 0
LayerCount: 2
Fore
SplineSet
159 -249 m 1,0,1
 116 -249 116 -249 93 -232.5 c 128,-1,2
 70 -216 70 -216 70 -179 c 0,3,4
 70 -143 70 -143 93.5 -124 c 128,-1,5
 117 -105 117 -105 155.5 -98 c 128,-1,6
 194 -91 194 -91 238 -91 c 2,7,-1
 417 -91 l 2,8,9
 523 -91 523 -91 585.5 -66 c 128,-1,10
 648 -41 648 -41 675 2.5 c 128,-1,11
 702 46 702 46 702 101 c 0,12,13
 702 171 702 171 658.5 217 c 128,-1,14
 615 263 615 263 541 263 c 2,15,-1
 514 263 l 1,16,-1
 514 200 l 2,17,18
 514 140 514 140 486 94 c 128,-1,19
 458 48 458 48 405.5 22 c 128,-1,20
 353 -4 353 -4 278 -4 c 0,21,22
 219 -4 219 -4 170 16 c 128,-1,23
 121 36 121 36 92 73 c 128,-1,24
 63 110 63 110 63 162 c 0,25,26
 63 220 63 220 98 259.5 c 128,-1,27
 133 299 133 299 195 312 c 1,28,-1
 195 554 l 1,29,-1
 689 554 l 1,30,-1
 689 500 l 1,31,-1
 514 500 l 1,32,-1
 514 317 l 1,33,-1
 541 317 l 2,34,35
 613 317 613 317 670.5 290.5 c 128,-1,36
 728 264 728 264 761.5 215 c 128,-1,37
 795 166 795 166 795 98 c 0,38,39
 795 -140 795 -140 444 -140 c 2,40,-1
 273 -140 l 2,41,42
 226 -140 226 -140 201.5 -153 c 128,-1,43
 177 -166 177 -166 168 -190 c 128,-1,44
 159 -214 159 -214 159 -249 c 1,0,1
419 500 m 1,45,-1
 256 500 l 1,46,-1
 256 317 l 1,47,-1
 419 317 l 1,48,-1
 419 500 l 1,45,-1
270 49 m 0,49,50
 311 49 311 49 344.5 63.5 c 128,-1,51
 378 78 378 78 398.5 109 c 128,-1,52
 419 140 419 140 419 189 c 2,53,-1
 419 263 l 1,54,-1
 259 263 l 2,55,56
 195 263 195 263 160 235 c 128,-1,57
 125 207 125 207 125 160 c 0,58,59
 125 103 125 103 167 76 c 128,-1,60
 209 49 209 49 270 49 c 0,49,50
EndSplineSet
Validated: 1049089
EndChar

StartChar: na-tamil
Encoding: 73 2984 76
Width: 826
GlyphClass: 2
Flags: W
AnchorPoint: "Anchor-6" 413 -181 basechar 0
AnchorPoint: "Anchor-4" 421 0 basechar 0
AnchorPoint: "Anchor-2" 579 554 basechar 0
AnchorPoint: "Anchor-1" 433 554 basechar 0
AnchorPoint: "Anchor-0" 422 554 basechar 0
LayerCount: 2
Fore
SplineSet
187 -249 m 1,0,1
 98 -249 98 -249 98 -179 c 0,2,3
 98 -143 98 -143 121.5 -124 c 128,-1,4
 145 -105 145 -105 183.5 -98 c 128,-1,5
 222 -91 222 -91 266 -91 c 2,6,-1
 374 -91 l 2,7,8
 528 -91 528 -91 600 -40 c 128,-1,9
 672 11 672 11 672 132 c 0,10,11
 672 212 672 212 641.5 249 c 128,-1,12
 611 286 611 286 563 286 c 0,13,14
 518 286 518 286 493.5 254.5 c 128,-1,15
 469 223 469 223 469 183 c 2,16,-1
 469 0 l 1,17,-1
 375 0 l 1,18,-1
 375 500 l 1,19,-1
 184 500 l 1,20,-1
 184 0 l 1,21,-1
 123 0 l 1,22,-1
 123 554 l 1,23,-1
 650 554 l 1,24,-1
 650 500 l 1,25,-1
 469 500 l 1,26,-1
 469 272 l 1,27,28
 474 287 474 287 488.5 304 c 128,-1,29
 503 321 503 321 528 333 c 128,-1,30
 553 345 553 345 589 345 c 0,31,32
 639 345 639 345 679.5 322 c 128,-1,33
 720 299 720 299 744 254 c 128,-1,34
 768 209 768 209 768 143 c 0,35,36
 768 66 768 66 739.5 12 c 128,-1,37
 711 -42 711 -42 660.5 -75.5 c 128,-1,38
 610 -109 610 -109 543.5 -124.5 c 128,-1,39
 477 -140 477 -140 401 -140 c 2,40,-1
 300 -140 l 2,41,42
 254 -140 254 -140 229.5 -153 c 128,-1,43
 205 -166 205 -166 196 -190 c 128,-1,44
 187 -214 187 -214 187 -249 c 1,0,1
EndSplineSet
Validated: 1049089
EndChar

StartChar: nnna-tamil
Encoding: 74 2985 77
Width: 1337
GlyphClass: 2
Flags: W
AnchorPoint: "Anchor-6" 668 0 basechar 0
AnchorPoint: "Anchor-4" 668 0 basechar 0
AnchorPoint: "Anchor-2" 1174 554 basechar 0
AnchorPoint: "Anchor-1" 688 554 basechar 0
AnchorPoint: "Anchor-0" 693 554 basechar 0
LayerCount: 2
Fore
SplineSet
279 -4 m 0,0,1
 223 -4 223 -4 172.5 23 c 128,-1,2
 122 50 122 50 90.5 103 c 128,-1,3
 59 156 59 156 59 234 c 0,4,5
 59 313 59 313 91.5 373.5 c 128,-1,6
 124 434 124 434 181 475.5 c 128,-1,7
 238 517 238 517 310.5 538 c 128,-1,8
 383 559 383 559 462 559 c 0,9,10
 532 559 532 559 597 542.5 c 128,-1,11
 662 526 662 526 716 495 c 1,12,13
 767 523 767 523 828.5 538.5 c 128,-1,14
 890 554 890 554 960 554 c 2,15,-1
 1318 554 l 1,16,-1
 1318 500 l 1,17,-1
 1142 500 l 1,18,-1
 1142 0 l 1,19,-1
 1047 0 l 1,20,-1
 1047 500 l 1,21,-1
 947 500 l 2,22,23
 895 500 895 500 849.5 490.5 c 128,-1,24
 804 481 804 481 765 462 c 1,25,26
 828 414 828 414 864.5 346 c 128,-1,27
 901 278 901 278 901 194 c 0,28,29
 901 136 901 136 878 91 c 128,-1,30
 855 46 855 46 813.5 20.5 c 128,-1,31
 772 -5 772 -5 716 -5 c 0,32,33
 631 -5 631 -5 585.5 51 c 128,-1,34
 540 107 540 107 540 197 c 0,35,36
 540 278 540 278 572 344.5 c 128,-1,37
 604 411 604 411 661 457 c 1,38,39
 575 505 575 505 448 505 c 0,40,41
 359 505 359 505 283.5 473 c 128,-1,42
 208 441 208 441 162.5 380 c 128,-1,43
 117 319 117 319 117 231 c 0,44,45
 117 192 117 192 127 160 c 1,46,47
 143 224 143 224 193 264 c 128,-1,48
 243 304 243 304 307 304 c 0,49,50
 378 304 378 304 418.5 261.5 c 128,-1,51
 459 219 459 219 459 150 c 0,52,53
 459 83 459 83 409.5 39.5 c 128,-1,54
 360 -4 360 -4 279 -4 c 0,0,1
596 193 m 0,55,56
 596 129 596 129 620.5 89 c 128,-1,57
 645 49 645 49 698 49 c 0,58,59
 753 49 753 49 778 91.5 c 128,-1,60
 803 134 803 134 803 195 c 0,61,62
 803 271 803 271 778 329 c 128,-1,63
 753 387 753 387 707 426 c 1,64,65
 654 386 654 386 625 326 c 128,-1,66
 596 266 596 266 596 193 c 0,55,56
270 236 m 0,67,68
 224 236 224 236 191.5 202.5 c 128,-1,69
 159 169 159 169 152 107 c 1,70,71
 173 78 173 78 202 63.5 c 128,-1,72
 231 49 231 49 262 49 c 0,73,74
 312 49 312 49 339.5 77.5 c 128,-1,75
 367 106 367 106 367 146 c 0,76,77
 367 180 367 180 344 208 c 128,-1,78
 321 236 321 236 270 236 c 0,67,68
EndSplineSet
Validated: 1049089
EndChar

StartChar: pa-tamil
Encoding: 75 2986 78
Width: 898
GlyphClass: 2
Flags: W
AnchorPoint: "Anchor-6" 449 0 basechar 0
AnchorPoint: "Anchor-4" 449 0 basechar 0
AnchorPoint: "Anchor-2" 791 554 basechar 0
AnchorPoint: "Anchor-1" 449 554 basechar 0
AnchorPoint: "Anchor-0" 449 554 basechar 0
LayerCount: 2
Fore
SplineSet
98 0 m 1,0,-1
 98 554 l 1,1,-1
 192 554 l 1,2,-1
 192 54 l 1,3,-1
 706 54 l 1,4,-1
 706 554 l 1,5,-1
 801 554 l 1,6,-1
 801 0 l 1,7,-1
 98 0 l 1,0,-1
EndSplineSet
Validated: 1049089
EndChar

StartChar: ma-tamil
Encoding: 76 2990 79
Width: 924
GlyphClass: 2
Flags: W
AnchorPoint: "Anchor-6" 462 0 basechar 0
AnchorPoint: "Anchor-4" 461 0 basechar 0
AnchorPoint: "Anchor-2" 791 554 basechar 0
AnchorPoint: "Anchor-1" 479 554 basechar 0
AnchorPoint: "Anchor-0" 498 554 basechar 0
LayerCount: 2
Fore
SplineSet
98 0 m 1,0,-1
 98 554 l 1,1,-1
 192 554 l 1,2,-1
 192 54 l 1,3,-1
 450 54 l 1,4,-1
 450 381 l 2,5,6
 450 468 450 468 502 513.5 c 128,-1,7
 554 559 554 559 631 559 c 0,8,9
 695 559 695 559 746.5 522.5 c 128,-1,10
 798 486 798 486 829 415.5 c 128,-1,11
 860 345 860 345 860 244 c 0,12,13
 860 167 860 167 845 112.5 c 128,-1,14
 830 58 830 58 793 29 c 128,-1,15
 756 0 756 0 690 0 c 2,16,-1
 98 0 l 1,0,-1
545 54 m 1,17,-1
 681 54 l 2,18,19
 736 54 736 54 760.5 78.5 c 128,-1,20
 785 103 785 103 792 145.5 c 128,-1,21
 799 188 799 188 799 242 c 0,22,23
 799 331 799 331 775 388 c 128,-1,24
 751 445 751 445 716 472.5 c 128,-1,25
 681 500 681 500 646 500 c 0,26,27
 603 500 603 500 574 472.5 c 128,-1,28
 545 445 545 445 545 382 c 2,29,-1
 545 54 l 1,17,-1
EndSplineSet
Validated: 1049089
EndChar

StartChar: ya-tamil
Encoding: 77 2991 80
Width: 976
GlyphClass: 2
Flags: W
AnchorPoint: "Anchor-6" 505 0 basechar 0
AnchorPoint: "Anchor-4" 505 0 basechar 0
AnchorPoint: "Anchor-2" 869 554 basechar 0
AnchorPoint: "Anchor-1" 486 554 basechar 0
AnchorPoint: "Anchor-0" 510 554 basechar 0
LayerCount: 2
Fore
SplineSet
247 -5 m 0,0,1
 175 -5 175 -5 134 38 c 128,-1,2
 93 81 93 81 93 168 c 2,3,-1
 93 554 l 1,4,-1
 186 554 l 1,5,-1
 186 151 l 2,6,7
 186 105 186 105 210 80.5 c 128,-1,8
 234 56 234 56 270 56 c 0,9,10
 314 56 314 56 338.5 85.5 c 128,-1,11
 363 115 363 115 363 160 c 2,12,-1
 363 554 l 1,13,-1
 456 554 l 1,14,-1
 456 54 l 1,15,-1
 784 54 l 1,16,-1
 784 554 l 1,17,-1
 879 554 l 1,18,-1
 879 0 l 1,19,-1
 369 0 l 1,20,-1
 369 71 l 1,21,22
 365 60 365 60 350 42 c 128,-1,23
 335 24 335 24 309.5 9.5 c 128,-1,24
 284 -5 284 -5 247 -5 c 0,0,1
EndSplineSet
Validated: 1049089
EndChar

StartChar: ra-tamil
Encoding: 78 2992 81
Width: 658
GlyphClass: 2
Flags: W
AnchorPoint: "Anchor-6" 329 -199 basechar 0
AnchorPoint: "Anchor-4" 329 0 basechar 0
AnchorPoint: "Anchor-2" 574 554 basechar 0
AnchorPoint: "Anchor-1" 368 554 basechar 0
AnchorPoint: "Anchor-0" 361 554 basechar 0
LayerCount: 2
Fore
SplineSet
227 -240 m 1,0,-1
 185 -199 l 1,1,-1
 369 -2 l 1,2,-1
 369 500 l 1,3,-1
 159 500 l 1,4,-1
 159 0 l 1,5,-1
 98 0 l 1,6,-1
 98 554 l 1,7,-1
 639 554 l 1,8,-1
 639 500 l 1,9,-1
 463 500 l 1,10,-1
 463 14 l 1,11,-1
 227 -240 l 1,0,-1
EndSplineSet
Validated: 1049089
EndChar

StartChar: rra-tamil
Encoding: 79 2993 82
Width: 883
GlyphClass: 2
Flags: W
AnchorPoint: "Anchor-6" 441 -199 basechar 0
AnchorPoint: "Anchor-4" 458 0 basechar 0
AnchorPoint: "Anchor-1" 456 554 basechar 0
AnchorPoint: "Anchor-0" 420 554 basechar 0
LayerCount: 2
Fore
SplineSet
182 -249 m 1,0,1
 143 -249 143 -249 118 -232.5 c 128,-1,2
 93 -216 93 -216 93 -179 c 256,3,4
 93 -142 93 -142 116.5 -122.5 c 128,-1,5
 140 -103 140 -103 178.5 -95.5 c 128,-1,6
 217 -88 217 -88 261 -88 c 2,7,-1
 417 -88 l 2,8,9
 507 -88 507 -88 576 -54.5 c 128,-1,10
 645 -21 645 -21 683.5 52 c 128,-1,11
 722 125 722 125 722 244 c 0,12,13
 722 347 722 347 702 403.5 c 128,-1,14
 682 460 682 460 648 482.5 c 128,-1,15
 614 505 614 505 572 505 c 0,16,17
 523 505 523 505 488 474.5 c 128,-1,18
 453 444 453 444 453 389 c 2,19,-1
 453 0 l 1,20,-1
 358 0 l 1,21,-1
 358 390 l 2,22,23
 358 441 358 441 335.5 472.5 c 128,-1,24
 313 504 313 504 267 504 c 0,25,26
 230 504 230 504 204.5 478.5 c 128,-1,27
 179 453 179 453 179 403 c 2,28,-1
 179 0 l 1,29,-1
 118 0 l 1,30,-1
 118 403 l 2,31,32
 118 479 118 479 162 518.5 c 128,-1,33
 206 558 206 558 269 558 c 0,34,35
 313 558 313 558 341.5 542.5 c 128,-1,36
 370 527 370 527 386.5 506.5 c 128,-1,37
 403 486 403 486 409 471 c 1,38,39
 419 489 419 489 440 509.5 c 128,-1,40
 461 530 461 530 494 544.5 c 128,-1,41
 527 559 527 559 573 559 c 0,42,43
 648 559 648 559 696.5 530 c 128,-1,44
 745 501 745 501 772 453.5 c 128,-1,45
 799 406 799 406 809.5 349.5 c 128,-1,46
 820 293 820 293 820 239 c 0,47,48
 820 106 820 106 768 21.5 c 128,-1,49
 716 -63 716 -63 626.5 -102.5 c 128,-1,50
 537 -142 537 -142 425 -142 c 2,51,-1
 295 -142 l 2,52,53
 225 -142 225 -142 203.5 -170 c 128,-1,54
 182 -198 182 -198 182 -249 c 1,0,1
EndSplineSet
Validated: 1049089
EndChar

StartChar: la-tamil
Encoding: 80 2994 83
Width: 1054
GlyphClass: 2
Flags: W
AnchorPoint: "Anchor-6" 527 0 basechar 0
AnchorPoint: "Anchor-4" 527 0 basechar 0
AnchorPoint: "Anchor-1" 524 554 basechar 0
AnchorPoint: "Anchor-0" 550 554 basechar 0
LayerCount: 2
Fore
SplineSet
279 -4 m 0,0,1
 223 -4 223 -4 172.5 23 c 128,-1,2
 122 50 122 50 90.5 103 c 128,-1,3
 59 156 59 156 59 234 c 0,4,5
 59 337 59 337 101 409.5 c 128,-1,6
 143 482 143 482 216.5 520.5 c 128,-1,7
 290 559 290 559 383 559 c 0,8,9
 466 559 466 559 531.5 529 c 128,-1,10
 597 499 597 499 635 444.5 c 128,-1,11
 673 390 673 390 673 318 c 2,12,-1
 673 172 l 2,13,14
 673 114 673 114 696.5 86.5 c 128,-1,15
 720 59 720 59 770 59 c 256,16,17
 820 59 820 59 857.5 90 c 128,-1,18
 895 121 895 121 916 173.5 c 128,-1,19
 937 226 937 226 937 289 c 0,20,21
 937 350 937 350 916 411.5 c 128,-1,22
 895 473 895 473 841 522 c 1,23,-1
 878 559 l 1,24,25
 943 498 943 498 967 424.5 c 128,-1,26
 991 351 991 351 991 279 c 0,27,28
 991 205 991 205 963 141.5 c 128,-1,29
 935 78 935 78 883 39 c 128,-1,30
 831 0 831 0 759 0 c 0,31,32
 710 0 710 0 669 19.5 c 128,-1,33
 628 39 628 39 603 77 c 128,-1,34
 578 115 578 115 578 173 c 2,35,-1
 578 320 l 2,36,37
 578 403 578 403 523 454 c 128,-1,38
 468 505 468 505 374 505 c 0,39,40
 297 505 297 505 239 472.5 c 128,-1,41
 181 440 181 440 149 378.5 c 128,-1,42
 117 317 117 317 117 231 c 0,43,44
 117 192 117 192 127 160 c 1,45,46
 143 224 143 224 193 264 c 128,-1,47
 243 304 243 304 307 304 c 0,48,49
 378 304 378 304 418.5 261.5 c 128,-1,50
 459 219 459 219 459 150 c 0,51,52
 459 83 459 83 409.5 39.5 c 128,-1,53
 360 -4 360 -4 279 -4 c 0,0,1
270 236 m 0,54,55
 224 236 224 236 191.5 202.5 c 128,-1,56
 159 169 159 169 152 107 c 1,57,58
 173 78 173 78 202 63.5 c 128,-1,59
 231 49 231 49 262 49 c 0,60,61
 312 49 312 49 339.5 77.5 c 128,-1,62
 367 106 367 106 367 146 c 0,63,64
 367 180 367 180 344 208 c 128,-1,65
 321 236 321 236 270 236 c 0,54,55
EndSplineSet
Validated: 1049089
EndChar

StartChar: lla-tamil
Encoding: 81 2995 84
Width: 1261
GlyphClass: 2
Flags: W
AnchorPoint: "Anchor-6" 696 0 basechar 0
AnchorPoint: "Anchor-4" 696 0 basechar 0
AnchorPoint: "Anchor-2" 1169 554 basechar 0
AnchorPoint: "Anchor-1" 650 554 basechar 0
AnchorPoint: "Anchor-0" 696 554 basechar 0
LayerCount: 2
Fore
SplineSet
278 -4 m 0,0,1
 220 -4 220 -4 170 24.5 c 128,-1,2
 120 53 120 53 89.5 110 c 128,-1,3
 59 167 59 167 59 250 c 0,4,5
 59 352 59 352 103 420.5 c 128,-1,6
 147 489 147 489 221 524 c 128,-1,7
 295 559 295 559 383 559 c 0,8,9
 571 559 571 559 654 441 c 1,10,-1
 654 554 l 1,11,-1
 1242 554 l 1,12,-1
 1242 500 l 1,13,-1
 1066 500 l 1,14,-1
 1066 0 l 1,15,-1
 972 0 l 1,16,-1
 972 500 l 1,17,-1
 744 500 l 1,18,-1
 744 0 l 1,19,-1
 649 0 l 1,20,-1
 649 269 l 2,21,22
 649 382 649 382 579 443.5 c 128,-1,23
 509 505 509 505 384 505 c 0,24,25
 310 505 310 505 249.5 475.5 c 128,-1,26
 189 446 189 446 153 389 c 128,-1,27
 117 332 117 332 117 249 c 0,28,29
 117 204 117 204 127 167 c 1,30,31
 145 228 145 228 194.5 266 c 128,-1,32
 244 304 244 304 307 304 c 0,33,34
 378 304 378 304 418.5 261.5 c 128,-1,35
 459 219 459 219 459 150 c 0,36,37
 459 83 459 83 409.5 39.5 c 128,-1,38
 360 -4 360 -4 278 -4 c 0,0,1
270 236 m 0,39,40
 224 236 224 236 191.5 203.5 c 128,-1,41
 159 171 159 171 152 112 c 1,42,43
 172 81 172 81 201 65 c 128,-1,44
 230 49 230 49 261 49 c 0,45,46
 311 49 311 49 338.5 77.5 c 128,-1,47
 366 106 366 106 366 146 c 0,48,49
 366 180 366 180 343 208 c 128,-1,50
 320 236 320 236 270 236 c 0,39,40
EndSplineSet
Validated: 1049089
EndChar

StartChar: llla-tamil
Encoding: 82 2996 85
Width: 924
GlyphClass: 2
Flags: W
AnchorPoint: "Anchor-6" 462 -335 basechar 0
AnchorPoint: "Anchor-4" 462 0 basechar 0
AnchorPoint: "Anchor-2" 791 554 basechar 0
AnchorPoint: "Anchor-1" 479 554 basechar 0
AnchorPoint: "Anchor-0" 498 554 basechar 0
LayerCount: 2
Fore
SplineSet
98 0 m 1,0,-1
 98 554 l 1,1,-1
 192 554 l 1,2,-1
 192 54 l 1,3,-1
 450 54 l 1,4,-1
 450 381 l 2,5,6
 450 468 450 468 502 513.5 c 128,-1,7
 554 559 554 559 631 559 c 0,8,9
 695 559 695 559 746.5 522.5 c 128,-1,10
 798 486 798 486 829 415.5 c 128,-1,11
 860 345 860 345 860 244 c 0,12,13
 860 167 860 167 845 112.5 c 128,-1,14
 830 58 830 58 793 29 c 128,-1,15
 756 0 756 0 690 0 c 2,16,-1
 546 0 l 1,17,18
 549 -57 549 -57 585 -87 c 128,-1,19
 621 -117 621 -117 694 -117 c 2,20,-1
 780 -117 l 1,21,-1
 780 -171 l 1,22,-1
 708 -171 l 2,23,24
 668 -171 668 -171 638 -185 c 128,-1,25
 608 -199 608 -199 583.5 -220.5 c 128,-1,26
 559 -242 559 -242 535 -267 c 128,-1,27
 511 -292 511 -292 481.5 -313.5 c 128,-1,28
 452 -335 452 -335 413 -349 c 128,-1,29
 374 -363 374 -363 319 -363 c 0,30,31
 267 -363 267 -363 226 -344 c 128,-1,32
 185 -325 185 -325 161.5 -290 c 128,-1,33
 138 -255 138 -255 138 -209 c 0,34,35
 138 -168 138 -168 157 -136.5 c 128,-1,36
 176 -105 176 -105 209 -87 c 128,-1,37
 242 -69 242 -69 282 -69 c 0,38,39
 317 -69 317 -69 348.5 -81.5 c 128,-1,40
 380 -94 380 -94 408 -125 c 1,41,-1
 374 -162 l 1,42,43
 338 -123 338 -123 287 -123 c 0,44,45
 247 -123 247 -123 221.5 -147.5 c 128,-1,46
 196 -172 196 -172 196 -212 c 0,47,48
 196 -249 196 -249 223.5 -277.5 c 128,-1,49
 251 -306 251 -306 305 -306 c 0,50,51
 346 -306 346 -306 374 -290.5 c 128,-1,52
 402 -275 402 -275 424 -252 c 128,-1,53
 446 -229 446 -229 469 -205.5 c 128,-1,54
 492 -182 492 -182 521.5 -164.5 c 128,-1,55
 551 -147 551 -147 594 -144 c 1,56,-1
 594 -139 l 1,57,58
 558 -137 558 -137 526.5 -118.5 c 128,-1,59
 495 -100 495 -100 474.5 -69.5 c 128,-1,60
 454 -39 454 -39 451 0 c 1,61,-1
 98 0 l 1,0,-1
545 54 m 1,62,-1
 681 54 l 2,63,64
 736 54 736 54 760.5 78.5 c 128,-1,65
 785 103 785 103 792 145.5 c 128,-1,66
 799 188 799 188 799 242 c 0,67,68
 799 331 799 331 775 388 c 128,-1,69
 751 445 751 445 716 472.5 c 128,-1,70
 681 500 681 500 646 500 c 0,71,72
 603 500 603 500 574 472.5 c 128,-1,73
 545 445 545 445 545 382 c 2,74,-1
 545 54 l 1,62,-1
EndSplineSet
Validated: 1049089
EndChar

StartChar: va-tamil
Encoding: 83 2997 86
Width: 1154
GlyphClass: 2
Flags: W
AnchorPoint: "Anchor-6" 632 0 basechar 0
AnchorPoint: "Anchor-4" 632 0 basechar 0
AnchorPoint: "Anchor-2" 974 554 basechar 0
AnchorPoint: "Anchor-1" 558 554 basechar 0
AnchorPoint: "Anchor-0" 569 554 basechar 0
LayerCount: 2
Fore
SplineSet
279 -4 m 0,0,1
 223 -4 223 -4 172.5 23 c 128,-1,2
 122 50 122 50 90.5 103 c 128,-1,3
 59 156 59 156 59 234 c 0,4,5
 59 337 59 337 105.5 409.5 c 128,-1,6
 152 482 152 482 233 520.5 c 128,-1,7
 314 559 314 559 417 559 c 0,8,9
 489 559 489 559 552 538 c 128,-1,10
 615 517 615 517 662.5 477.5 c 128,-1,11
 710 438 710 438 737 383.5 c 128,-1,12
 764 329 764 329 764 261 c 0,13,14
 764 188 764 188 736 137 c 128,-1,15
 708 86 708 86 676 54 c 1,16,-1
 962 54 l 1,17,-1
 962 554 l 1,18,-1
 1057 554 l 1,19,-1
 1057 0 l 1,20,-1
 605 0 l 1,21,-1
 587 43 l 1,22,23
 619 73 619 73 643.5 125 c 128,-1,24
 668 177 668 177 668 257 c 0,25,26
 668 330 668 330 633 385.5 c 128,-1,27
 598 441 598 441 538.5 473 c 128,-1,28
 479 505 479 505 404 505 c 0,29,30
 318 505 318 505 253.5 472.5 c 128,-1,31
 189 440 189 440 153 378.5 c 128,-1,32
 117 317 117 317 117 231 c 0,33,34
 117 192 117 192 127 160 c 1,35,36
 143 224 143 224 193 264 c 128,-1,37
 243 304 243 304 307 304 c 0,38,39
 378 304 378 304 418.5 261.5 c 128,-1,40
 459 219 459 219 459 150 c 0,41,42
 459 83 459 83 409.5 39.5 c 128,-1,43
 360 -4 360 -4 279 -4 c 0,0,1
270 236 m 0,44,45
 224 236 224 236 191.5 202.5 c 128,-1,46
 159 169 159 169 152 107 c 1,47,48
 173 78 173 78 202 63.5 c 128,-1,49
 231 49 231 49 262 49 c 0,50,51
 312 49 312 49 339.5 77.5 c 128,-1,52
 367 106 367 106 367 146 c 0,53,54
 367 180 367 180 344 208 c 128,-1,55
 321 236 321 236 270 236 c 0,44,45
EndSplineSet
Validated: 1049089
EndChar

StartChar: sha-tamil
Encoding: 84 2998 87
Width: 1138
GlyphClass: 2
Flags: W
AnchorPoint: "Anchor-6" 576 0 basechar 0
AnchorPoint: "Anchor-4" 576 0 basechar 0
AnchorPoint: "Anchor-2" 872 554 basechar 0
AnchorPoint: "Anchor-1" 583 554 basechar 0
AnchorPoint: "Anchor-0" 579 554 basechar 0
LayerCount: 2
Fore
SplineSet
303 -5 m 0,0,1
 246 -5 246 -5 198.5 15 c 128,-1,2
 151 35 151 35 122 78.5 c 128,-1,3
 93 122 93 122 93 195 c 2,4,-1
 93 554 l 1,5,-1
 188 554 l 1,6,-1
 188 196 l 2,7,8
 188 142 188 142 205.5 111 c 128,-1,9
 223 80 223 80 251.5 67 c 128,-1,10
 280 54 280 54 313 54 c 0,11,12
 348 54 348 54 378 65 c 128,-1,13
 408 76 408 76 426 109.5 c 128,-1,14
 444 143 444 143 444 210 c 2,15,-1
 444 554 l 1,16,-1
 899 554 l 2,17,18
 998 554 998 554 1036 495.5 c 128,-1,19
 1074 437 1074 437 1074 324 c 0,20,21
 1074 248 1074 248 1053.5 187.5 c 128,-1,22
 1033 127 1033 127 997.5 84 c 128,-1,23
 962 41 962 41 917.5 18 c 128,-1,24
 873 -5 873 -5 825 -5 c 0,25,26
 776 -5 776 -5 736 14 c 128,-1,27
 696 33 696 33 672.5 70.5 c 128,-1,28
 649 108 649 108 649 163 c 2,29,-1
 649 500 l 1,30,-1
 503 500 l 1,31,-1
 503 210 l 2,32,33
 503 129 503 129 476.5 82 c 128,-1,34
 450 35 450 35 404.5 15 c 128,-1,35
 359 -5 359 -5 303 -5 c 0,0,1
836 54 m 256,36,37
 874 54 874 54 915 84 c 128,-1,38
 956 114 956 114 984.5 174.5 c 128,-1,39
 1013 235 1013 235 1013 326 c 0,40,41
 1013 378 1013 378 1005 417 c 128,-1,42
 997 456 997 456 971 478 c 128,-1,43
 945 500 945 500 890 500 c 2,44,-1
 744 500 l 1,45,-1
 744 162 l 2,46,47
 744 103 744 103 771 78.5 c 128,-1,48
 798 54 798 54 836 54 c 256,36,37
EndSplineSet
Validated: 1049089
EndChar

StartChar: ssa-tamil
Encoding: 85 2999 88
Width: 1437
GlyphClass: 2
Flags: W
AnchorPoint: "Anchor-6" 675 0 basechar 0
AnchorPoint: "Anchor-4" 731 0 basechar 0
AnchorPoint: "Anchor-1" 716 554 basechar 0
AnchorPoint: "Anchor-0" 751 554 basechar 0
LayerCount: 2
Fore
SplineSet
279 -4 m 0,0,1
 223 -4 223 -4 172.5 23 c 128,-1,2
 122 50 122 50 90.5 103 c 128,-1,3
 59 156 59 156 59 234 c 0,4,5
 59 337 59 337 105.5 409.5 c 128,-1,6
 152 482 152 482 233 520.5 c 128,-1,7
 314 559 314 559 417 559 c 0,8,9
 489 559 489 559 552 538 c 128,-1,10
 615 517 615 517 662.5 477.5 c 128,-1,11
 710 438 710 438 737 383.5 c 128,-1,12
 764 329 764 329 764 261 c 0,13,14
 764 188 764 188 736 137 c 128,-1,15
 708 86 708 86 676 54 c 1,16,-1
 1038 54 l 1,17,-1
 1038 220 l 1,18,19
 955 230 955 230 901.5 279.5 c 128,-1,20
 848 329 848 329 848 415 c 0,21,22
 848 481 848 481 886.5 520 c 128,-1,23
 925 559 925 559 998 559 c 0,24,25
 1059 559 1059 559 1096 522 c 128,-1,26
 1133 485 1133 485 1133 432 c 2,27,-1
 1133 274 l 1,28,29
 1191 282 1191 282 1238.5 306.5 c 128,-1,30
 1286 331 1286 331 1333 378 c 1,31,-1
 1374 351 l 1,32,-1
 1374 0 l 1,33,-1
 1133 0 l 1,34,-1
 1133 -296 l 1,35,-1
 1038 -296 l 1,36,-1
 1038 0 l 1,37,-1
 605 0 l 1,38,-1
 587 43 l 1,39,40
 619 73 619 73 643.5 125 c 128,-1,41
 668 177 668 177 668 257 c 0,42,43
 668 330 668 330 633 385.5 c 128,-1,44
 598 441 598 441 538.5 473 c 128,-1,45
 479 505 479 505 404 505 c 0,46,47
 318 505 318 505 253.5 472.5 c 128,-1,48
 189 440 189 440 153 378.5 c 128,-1,49
 117 317 117 317 117 231 c 0,50,51
 117 192 117 192 127 160 c 1,52,53
 143 224 143 224 193 264 c 128,-1,54
 243 304 243 304 307 304 c 0,55,56
 378 304 378 304 418.5 261.5 c 128,-1,57
 459 219 459 219 459 150 c 0,58,59
 459 83 459 83 409.5 39.5 c 128,-1,60
 360 -4 360 -4 279 -4 c 0,0,1
903 414 m 0,61,62
 903 344 903 344 940 311.5 c 128,-1,63
 977 279 977 279 1038 273 c 1,64,-1
 1038 445 l 2,65,66
 1038 474 1038 474 1022 489.5 c 128,-1,67
 1006 505 1006 505 978 505 c 0,68,69
 941 505 941 505 922 479.5 c 128,-1,70
 903 454 903 454 903 414 c 0,61,62
1278 54 m 1,71,-1
 1278 264 l 1,72,73
 1241 242 1241 242 1205 232.5 c 128,-1,74
 1169 223 1169 223 1133 220 c 1,75,-1
 1133 54 l 1,76,-1
 1278 54 l 1,71,-1
270 236 m 0,77,78
 224 236 224 236 191.5 202.5 c 128,-1,79
 159 169 159 169 152 107 c 1,80,81
 173 78 173 78 202 63.5 c 128,-1,82
 231 49 231 49 262 49 c 0,83,84
 312 49 312 49 339.5 77.5 c 128,-1,85
 367 106 367 106 367 146 c 0,86,87
 367 180 367 180 344 208 c 128,-1,88
 321 236 321 236 270 236 c 0,77,78
EndSplineSet
Validated: 1049089
EndChar

StartChar: sa-tamil
Encoding: 86 3000 89
Width: 1420
GlyphClass: 2
Flags: W
AnchorPoint: "Anchor-6" 713 0 basechar 0
AnchorPoint: "Anchor-4" 713 0 basechar 0
AnchorPoint: "Anchor-1" 710 554 basechar 0
AnchorPoint: "Anchor-0" 694 554 basechar 0
LayerCount: 2
Fore
SplineSet
283 -4 m 0,0,1
 225 -4 225 -4 175 24.5 c 128,-1,2
 125 53 125 53 94 110 c 128,-1,3
 63 167 63 167 63 250 c 0,4,5
 63 348 63 348 106 417 c 128,-1,6
 149 486 149 486 225.5 522.5 c 128,-1,7
 302 559 302 559 400 559 c 0,8,9
 466 559 466 559 526 539 c 128,-1,10
 586 519 586 519 631 479.5 c 128,-1,11
 676 440 676 440 698 380 c 1,12,-1
 698 410 l 2,13,14
 698 450 698 450 716 483.5 c 128,-1,15
 734 517 734 517 769.5 538 c 128,-1,16
 805 559 805 559 859 559 c 0,17,18
 908 559 908 559 946 539.5 c 128,-1,19
 984 520 984 520 1006.5 485 c 128,-1,20
 1029 450 1029 450 1029 401 c 2,21,-1
 1029 177 l 2,22,23
 1029 115 1029 115 1059 87 c 128,-1,24
 1089 59 1089 59 1125 59 c 0,25,26
 1176 59 1176 59 1213.5 90 c 128,-1,27
 1251 121 1251 121 1272 173.5 c 128,-1,28
 1293 226 1293 226 1293 289 c 0,29,30
 1293 350 1293 350 1272 408.5 c 128,-1,31
 1251 467 1251 467 1195 519 c 1,32,-1
 1237 559 l 1,33,34
 1303 498 1303 498 1330 424.5 c 128,-1,35
 1357 351 1357 351 1357 279 c 0,36,37
 1357 205 1357 205 1328.5 141.5 c 128,-1,38
 1300 78 1300 78 1246 39 c 128,-1,39
 1192 0 1192 0 1115 0 c 0,40,41
 1066 0 1066 0 1025 20.5 c 128,-1,42
 984 41 984 41 959 80.5 c 128,-1,43
 934 120 934 120 934 178 c 2,44,-1
 934 417 l 2,45,46
 934 458 934 458 910.5 481 c 128,-1,47
 887 504 887 504 845 504 c 0,48,49
 796 504 796 504 772.5 476 c 128,-1,50
 749 448 749 448 749 404 c 2,51,-1
 749 0 l 1,52,-1
 654 0 l 1,53,-1
 654 288 l 2,54,55
 654 362 654 362 617.5 410 c 128,-1,56
 581 458 581 458 523 481.5 c 128,-1,57
 465 505 465 505 400 505 c 0,58,59
 319 505 319 505 256 474.5 c 128,-1,60
 193 444 193 444 157.5 386.5 c 128,-1,61
 122 329 122 329 122 249 c 0,62,63
 122 204 122 204 132 167 c 1,64,65
 150 228 150 228 199.5 266 c 128,-1,66
 249 304 249 304 312 304 c 0,67,68
 383 304 383 304 423.5 261.5 c 128,-1,69
 464 219 464 219 464 150 c 0,70,71
 464 83 464 83 414.5 39.5 c 128,-1,72
 365 -4 365 -4 283 -4 c 0,0,1
274 236 m 0,73,74
 229 236 229 236 196.5 203.5 c 128,-1,75
 164 171 164 171 156 112 c 1,76,77
 177 80 177 80 205.5 64.5 c 128,-1,78
 234 49 234 49 266 49 c 0,79,80
 316 49 316 49 343.5 77.5 c 128,-1,81
 371 106 371 106 371 146 c 0,82,83
 371 180 371 180 348 208 c 128,-1,84
 325 236 325 236 274 236 c 0,73,74
EndSplineSet
Validated: 1049089
EndChar

StartChar: ha-tamil
Encoding: 87 3001 90
Width: 1663
GlyphClass: 2
Flags: W
AnchorPoint: "Anchor-6" 832 -152 basechar 0
AnchorPoint: "Anchor-4" 832 0 basechar 0
AnchorPoint: "Anchor-1" 829 554 basechar 0
AnchorPoint: "Anchor-0" 848 554 basechar 0
LayerCount: 2
Fore
SplineSet
221 -258 m 1,0,1
 178 -258 178 -258 155 -241.5 c 128,-1,2
 132 -225 132 -225 132 -188 c 0,3,4
 132 -152 132 -152 155.5 -132.5 c 128,-1,5
 179 -113 179 -113 217.5 -105.5 c 128,-1,6
 256 -98 256 -98 300 -98 c 2,7,-1
 1078 -98 l 2,8,9
 1223 -98 1223 -98 1317 -68 c 128,-1,10
 1411 -38 1411 -38 1457.5 36.5 c 128,-1,11
 1504 111 1504 111 1504 242 c 0,12,13
 1504 345 1504 345 1482.5 402 c 128,-1,14
 1461 459 1461 459 1426.5 482 c 128,-1,15
 1392 505 1392 505 1354 505 c 0,16,17
 1306 505 1306 505 1270.5 474.5 c 128,-1,18
 1235 444 1235 444 1235 389 c 2,19,-1
 1235 0 l 1,20,-1
 1140 0 l 1,21,-1
 1140 390 l 2,22,23
 1140 441 1140 441 1116 472.5 c 128,-1,24
 1092 504 1092 504 1046 504 c 0,25,26
 1006 504 1006 504 980.5 478.5 c 128,-1,27
 955 453 955 453 955 403 c 2,28,-1
 955 0 l 1,29,-1
 605 0 l 1,30,-1
 587 43 l 1,31,32
 619 73 619 73 643.5 125 c 128,-1,33
 668 177 668 177 668 257 c 0,34,35
 668 330 668 330 633 385.5 c 128,-1,36
 598 441 598 441 538.5 473 c 128,-1,37
 479 505 479 505 404 505 c 0,38,39
 318 505 318 505 253.5 472.5 c 128,-1,40
 189 440 189 440 153 378.5 c 128,-1,41
 117 317 117 317 117 231 c 0,42,43
 117 192 117 192 127 160 c 1,44,45
 143 224 143 224 193 264 c 128,-1,46
 243 304 243 304 307 304 c 0,47,48
 378 304 378 304 418.5 261.5 c 128,-1,49
 459 219 459 219 459 150 c 0,50,51
 459 83 459 83 409.5 39.5 c 128,-1,52
 360 -4 360 -4 279 -4 c 0,53,54
 223 -4 223 -4 172.5 23 c 128,-1,55
 122 50 122 50 90.5 103 c 128,-1,56
 59 156 59 156 59 234 c 0,57,58
 59 337 59 337 105.5 409.5 c 128,-1,59
 152 482 152 482 233 520.5 c 128,-1,60
 314 559 314 559 417 559 c 0,61,62
 489 559 489 559 552 538 c 128,-1,63
 615 517 615 517 662.5 477.5 c 128,-1,64
 710 438 710 438 737 383.5 c 128,-1,65
 764 329 764 329 764 261 c 0,66,67
 764 188 764 188 736 137 c 128,-1,68
 708 86 708 86 676 54 c 1,69,-1
 894 54 l 1,70,-1
 894 403 l 2,71,72
 894 454 894 454 915 488.5 c 128,-1,73
 936 523 936 523 971 540.5 c 128,-1,74
 1006 558 1006 558 1047 558 c 256,75,76
 1088 558 1088 558 1115.5 543.5 c 128,-1,77
 1143 529 1143 529 1159 508.5 c 128,-1,78
 1175 488 1175 488 1181 471 c 1,79,80
 1191 489 1191 489 1214.5 509.5 c 128,-1,81
 1238 530 1238 530 1274 544.5 c 128,-1,82
 1310 559 1310 559 1355 559 c 0,83,84
 1426 559 1426 559 1473.5 530.5 c 128,-1,85
 1521 502 1521 502 1548.5 454.5 c 128,-1,86
 1576 407 1576 407 1588 348.5 c 128,-1,87
 1600 290 1600 290 1600 231 c 0,88,89
 1600 91 1600 91 1538.5 6.5 c 128,-1,90
 1477 -78 1477 -78 1364 -115 c 128,-1,91
 1251 -152 1251 -152 1094 -152 c 2,92,-1
 334 -152 l 2,93,94
 288 -152 288 -152 263.5 -164.5 c 128,-1,95
 239 -177 239 -177 230 -200.5 c 128,-1,96
 221 -224 221 -224 221 -258 c 1,0,1
270 236 m 0,97,98
 224 236 224 236 191.5 202.5 c 128,-1,99
 159 169 159 169 152 107 c 1,100,101
 173 78 173 78 202 63.5 c 128,-1,102
 231 49 231 49 262 49 c 0,103,104
 312 49 312 49 339.5 77.5 c 128,-1,105
 367 106 367 106 367 146 c 0,106,107
 367 180 367 180 344 208 c 128,-1,108
 321 236 321 236 270 236 c 0,97,98
EndSplineSet
Validated: 1049089
EndChar

StartChar: aaMatra-tamil
Encoding: 88 3006 91
Width: 676
GlyphClass: 4
Flags: W
LayerCount: 2
Fore
SplineSet
98 0 m 1,0,-1
 98 554 l 1,1,-1
 657 554 l 1,2,-1
 657 500 l 1,3,-1
 481 500 l 1,4,-1
 481 0 l 1,5,-1
 387 0 l 1,6,-1
 387 500 l 1,7,-1
 159 500 l 1,8,-1
 159 0 l 1,9,-1
 98 0 l 1,0,-1
EndSplineSet
Validated: 513
Ligature2: "Required Feature lookup 1 per glyph data 0" a-tamil zerowidthjoiner aaMatra-tamil
EndChar

StartChar: iMatra-tamil
Encoding: 89 3007 92
Width: 232
GlyphClass: 4
Flags: W
LayerCount: 2
Fore
SplineSet
73 0 m 1,0,-1
 73 540 l 2,1,2
 73 746 73 746 -117 746 c 0,3,4
 -179 746 -179 746 -220 719 c 128,-1,5
 -261 692 -261 692 -261 639 c 0,6,7
 -261 600 -261 600 -237 577 c 128,-1,8
 -213 554 -213 554 -176 554 c 2,9,-1
 -171 554 l 1,10,-1
 -171 500 l 1,11,-1
 -176 500 l 2,12,13
 -217 500 -217 500 -251 519.5 c 128,-1,14
 -285 539 -285 539 -305.5 573.5 c 128,-1,15
 -326 608 -326 608 -326 652 c 0,16,17
 -326 706 -326 706 -297.5 747 c 128,-1,18
 -269 788 -269 788 -220 811 c 128,-1,19
 -171 834 -171 834 -110 834 c 0,20,21
 5 834 5 834 69.5 764.5 c 128,-1,22
 134 695 134 695 134 570 c 2,23,-1
 134 0 l 1,24,-1
 73 0 l 1,0,-1
EndSplineSet
Validated: 513
Substitution2: "Single Substitution lookup 10 subtable" iMatra-tamil.alt02
Substitution2: "Single Substitution lookup 9 subtable" iMatra-tamil.alt01
AlternateSubs2: "'aalt' Access All Alternates lookup 2 per glyph data 1" iMatra-tamil.alt02 iMatra-tamil.alt01
Ligature2: "Required Feature lookup 1 per glyph data 0" a-tamil zerowidthjoiner iMatra-tamil
EndChar

StartChar: iiMatra-tamil
Encoding: 90 3008 93
Width: 0
GlyphClass: 4
Flags: W
AnchorPoint: "Anchor-10" 0 554 mark 0
AnchorPoint: "Anchor-2" 0 554 mark 0
LayerCount: 2
Fore
SplineSet
-24 505 m 2,0,1
 -75 505 -75 505 -119 527.5 c 128,-1,2
 -163 550 -163 550 -189.5 590.5 c 128,-1,3
 -216 631 -216 631 -216 685 c 0,4,5
 -216 743 -216 743 -187.5 787 c 128,-1,6
 -159 831 -159 831 -107.5 856.5 c 128,-1,7
 -56 882 -56 882 12 882 c 0,8,9
 107 882 107 882 162 838.5 c 128,-1,10
 217 795 217 795 217 725 c 0,11,12
 217 673 217 673 176 637.5 c 128,-1,13
 135 602 135 602 70 602 c 0,14,15
 -6 602 -6 602 -46 642.5 c 128,-1,16
 -86 683 -86 683 -86 743 c 0,17,18
 -86 779 -86 779 -72 815 c 1,19,20
 -115 798 -115 798 -136.5 764 c 128,-1,21
 -158 730 -158 730 -158 684 c 0,22,23
 -158 644 -158 644 -139.5 615 c 128,-1,24
 -121 586 -121 586 -90.5 570 c 128,-1,25
 -60 554 -60 554 -24 554 c 2,26,-1
 0 554 l 1,27,-1
 0 505 l 1,28,-1
 -24 505 l 2,0,1
-37 754 m 0,29,30
 -37 712 -37 712 -13.5 684 c 128,-1,31
 10 656 10 656 56 656 c 0,32,33
 90 656 90 656 112 677 c 128,-1,34
 134 698 134 698 134 730 c 0,35,36
 134 777 134 777 99 802.5 c 128,-1,37
 64 828 64 828 8 828 c 0,38,39
 -8 828 -8 828 -22 826 c 1,40,41
 -37 789 -37 789 -37 754 c 0,29,30
EndSplineSet
Validated: 513
Ligature2: "Required Feature lookup 1 per glyph data 0" a-tamil zerowidthjoiner iiMatra-tamil
EndChar

StartChar: uMatra-tamil
Encoding: 91 3009 94
Width: 554
GlyphClass: 4
Flags: W
LayerCount: 2
Fore
SplineSet
344 214 m 0,0,1
 263 214 263 214 215.5 260 c 128,-1,2
 168 306 168 306 168 388 c 2,3,-1
 168 500 l 1,4,-1
 -215 500 l 1,5,-1
 -264 554 l 1,6,-1
 535 554 l 1,7,-1
 535 383 l 2,8,9
 535 330 535 330 510 292 c 128,-1,10
 485 254 485 254 441.5 234 c 128,-1,11
 398 214 398 214 344 214 c 0,0,1
229 383 m 2,12,13
 229 328 229 328 256.5 298 c 128,-1,14
 284 268 284 268 336 268 c 0,15,16
 382 268 382 268 411 298 c 128,-1,17
 440 328 440 328 440 374 c 2,18,-1
 440 500 l 1,19,-1
 229 500 l 1,20,-1
 229 383 l 2,12,13
EndSplineSet
Validated: 513
Substitution2: "Single Substitution lookup 10 subtable" uMatra-tamil.alt02
Substitution2: "Single Substitution lookup 9 subtable" uMatra-tamil.alt01
AlternateSubs2: "'aalt' Access All Alternates lookup 2 per glyph data 1" uMatra-tamil.alt02 uMatra-tamil.alt01
Ligature2: "Required Feature lookup 1 per glyph data 0" a-tamil zerowidthjoiner uMatra-tamil
EndChar

StartChar: uuMatra-tamil
Encoding: 92 3010 95
Width: 914
GlyphClass: 4
Flags: W
LayerCount: 2
Fore
SplineSet
409 0 m 0,0,1
 297 0 297 0 204 48 c 128,-1,2
 111 96 111 96 46 186 c 1,3,-1
 85 217 l 1,4,5
 146 129 146 129 232.5 91.5 c 128,-1,6
 319 54 319 54 410 54 c 0,7,8
 509 54 509 54 577.5 82.5 c 128,-1,9
 646 111 646 111 688.5 161.5 c 128,-1,10
 731 212 731 212 750.5 279.5 c 128,-1,11
 770 347 770 347 770 425 c 0,12,13
 770 479 770 479 755 532.5 c 128,-1,14
 740 586 740 586 706.5 630 c 128,-1,15
 673 674 673 674 617.5 700.5 c 128,-1,16
 562 727 562 727 482 727 c 0,17,18
 413 727 413 727 363 703.5 c 128,-1,19
 313 680 313 680 283.5 640.5 c 128,-1,20
 254 601 254 601 246 554 c 1,21,-1
 549 554 l 1,22,-1
 549 383 l 2,23,24
 549 331 549 331 525.5 293 c 128,-1,25
 502 255 502 255 461.5 234.5 c 128,-1,26
 421 214 421 214 370 214 c 0,27,28
 283 214 283 214 233 264 c 128,-1,29
 183 314 183 314 183 403 c 2,30,-1
 183 500 l 1,31,-1
 -226 500 l 1,32,-1
 -265 554 l 1,33,-1
 185 554 l 1,34,35
 193 611 193 611 229 663 c 128,-1,36
 265 715 265 715 332.5 747.5 c 128,-1,37
 400 780 400 780 500 780 c 0,38,39
 586 780 586 780 653.5 748 c 128,-1,40
 721 716 721 716 768 662.5 c 128,-1,41
 815 609 815 609 840 543.5 c 128,-1,42
 865 478 865 478 865 411 c 0,43,44
 865 290 865 290 811 197.5 c 128,-1,45
 757 105 757 105 655 52.5 c 128,-1,46
 553 0 553 0 409 0 c 0,0,1
244 398 m 2,47,48
 244 338 244 338 270.5 303 c 128,-1,49
 297 268 297 268 351 268 c 0,50,51
 397 268 397 268 426 298 c 128,-1,52
 455 328 455 328 455 374 c 2,53,-1
 455 500 l 1,54,-1
 244 500 l 1,55,-1
 244 398 l 2,47,48
EndSplineSet
Validated: 513
Substitution2: "Single Substitution lookup 10 subtable" uuMatra-tamil.alt02
Substitution2: "Single Substitution lookup 9 subtable" uuMatra-tamil.alt01
AlternateSubs2: "'aalt' Access All Alternates lookup 2 per glyph data 1" uuMatra-tamil.alt02 uuMatra-tamil.alt01
Ligature2: "Required Feature lookup 1 per glyph data 0" a-tamil zerowidthjoiner uuMatra-tamil
EndChar

StartChar: eMatra-tamil
Encoding: 93 3014 96
Width: 878
GlyphClass: 2
Flags: W
LayerCount: 2
Fore
SplineSet
352 -4 m 0,0,1
 281 -4 281 -4 231 22 c 128,-1,2
 181 48 181 48 148 91.5 c 128,-1,3
 115 135 115 135 96.5 187 c 128,-1,4
 78 239 78 239 70.5 291.5 c 128,-1,5
 63 344 63 344 63 388 c 0,6,7
 63 481 63 481 90 561.5 c 128,-1,8
 117 642 117 642 167.5 702 c 128,-1,9
 218 762 218 762 290.5 795.5 c 128,-1,10
 363 829 363 829 453 829 c 0,11,12
 619 829 619 829 699.5 732 c 128,-1,13
 780 635 780 635 780 446 c 2,14,-1
 780 0 l 1,15,-1
 719 0 l 1,16,-1
 719 446 l 2,17,18
 719 599 719 599 655.5 669 c 128,-1,19
 592 739 592 739 449 739 c 0,20,21
 344 739 344 739 271 694.5 c 128,-1,22
 198 650 198 650 160 569 c 128,-1,23
 122 488 122 488 122 376 c 0,24,25
 122 339 122 339 127 293.5 c 128,-1,26
 132 248 132 248 145.5 203 c 128,-1,27
 159 158 159 158 185 123 c 1,28,29
 191 181 191 181 218 222.5 c 128,-1,30
 245 264 245 264 286 286.5 c 128,-1,31
 327 309 327 309 375 309 c 0,32,33
 449 309 449 309 490.5 266 c 128,-1,34
 532 223 532 223 532 150 c 0,35,36
 532 83 532 83 482.5 39.5 c 128,-1,37
 433 -4 433 -4 352 -4 c 0,0,1
338 241 m 0,38,39
 289 241 289 241 254.5 203.5 c 128,-1,40
 220 166 220 166 215 91 c 1,41,42
 237 71 237 71 266.5 60 c 128,-1,43
 296 49 296 49 334 49 c 0,44,45
 384 49 384 49 411.5 77.5 c 128,-1,46
 439 106 439 106 439 146 c 0,47,48
 439 184 439 184 416 212.5 c 128,-1,49
 393 241 393 241 338 241 c 0,38,39
EndSplineSet
Validated: 513
Ligature2: "Required Feature lookup 1 per glyph data 0" a-tamil zerowidthjoiner eMatra-tamil
EndChar

StartChar: eeMatra-tamil
Encoding: 94 3015 97
Width: 645
GlyphClass: 2
Flags: W
LayerCount: 2
Fore
SplineSet
410 -5 m 0,0,1
 346 -5 346 -5 284 23 c 128,-1,2
 222 51 222 51 172 104.5 c 128,-1,3
 122 158 122 158 92.5 235.5 c 128,-1,4
 63 313 63 313 63 412 c 256,5,6
 63 511 63 511 92.5 588.5 c 128,-1,7
 122 666 122 666 172 719.5 c 128,-1,8
 222 773 222 773 284 801 c 128,-1,9
 346 829 346 829 410 829 c 0,10,11
 492 829 492 829 541.5 785.5 c 128,-1,12
 591 742 591 742 591 674 c 0,13,14
 591 597 591 597 549 555.5 c 128,-1,15
 507 514 507 514 434 514 c 0,16,17
 387 514 387 514 345 536.5 c 128,-1,18
 303 559 303 559 275 603.5 c 128,-1,19
 247 648 247 648 242 714 c 1,20,21
 190 669 190 669 156 592.5 c 128,-1,22
 122 516 122 516 122 412 c 0,23,24
 122 309 122 309 156 232.5 c 128,-1,25
 190 156 190 156 242 111 c 1,26,27
 247 176 247 176 275 220.5 c 128,-1,28
 303 265 303 265 345 288 c 128,-1,29
 387 311 387 311 434 311 c 0,30,31
 507 311 507 311 549 269 c 128,-1,32
 591 227 591 227 591 150 c 0,33,34
 591 82 591 82 541.5 38.5 c 128,-1,35
 492 -5 492 -5 410 -5 c 0,0,1
393 775 m 0,36,37
 331 775 331 775 273 737 c 1,38,39
 280 651 280 651 316.5 616 c 128,-1,40
 353 581 353 581 401 581 c 0,41,42
 452 581 452 581 475 610 c 128,-1,43
 498 639 498 639 498 678 c 0,44,45
 498 719 498 719 470.5 747 c 128,-1,46
 443 775 443 775 393 775 c 0,36,37
401 243 m 0,47,48
 353 243 353 243 316.5 208.5 c 128,-1,49
 280 174 280 174 273 87 c 1,50,51
 331 49 331 49 393 49 c 0,52,53
 443 49 443 49 470.5 77 c 128,-1,54
 498 105 498 105 498 146 c 0,55,56
 498 185 498 185 475 214 c 128,-1,57
 452 243 452 243 401 243 c 0,47,48
EndSplineSet
Validated: 513
Ligature2: "Required Feature lookup 1 per glyph data 0" a-tamil zerowidthjoiner eeMatra-tamil
EndChar

StartChar: aiMatra-tamil
Encoding: 95 3016 98
Width: 1305
GlyphClass: 2
Flags: W
LayerCount: 2
Fore
SplineSet
1063 -5 m 1,0,-1
 1041 34 l 1,1,2
 1097 69 1097 69 1124 126.5 c 128,-1,3
 1151 184 1151 184 1151 246 c 0,4,5
 1151 325 1151 325 1119 383 c 128,-1,6
 1087 441 1087 441 1028.5 473 c 128,-1,7
 970 505 970 505 890 505 c 0,8,9
 849 505 849 505 813 497 c 128,-1,10
 777 489 777 489 747 475 c 1,11,12
 815 426 815 426 855.5 354.5 c 128,-1,13
 896 283 896 283 896 194 c 0,14,15
 896 136 896 136 873 91 c 128,-1,16
 850 46 850 46 808.5 20.5 c 128,-1,17
 767 -5 767 -5 711 -5 c 0,18,19
 654 -5 654 -5 615 23 c 128,-1,20
 576 51 576 51 555.5 99 c 128,-1,21
 535 147 535 147 535 207 c 0,22,23
 535 285 535 285 563 351.5 c 128,-1,24
 591 418 591 418 643 466 c 1,25,26
 563 505 563 505 448 505 c 0,27,28
 359 505 359 505 283.5 473 c 128,-1,29
 208 441 208 441 162.5 380 c 128,-1,30
 117 319 117 319 117 231 c 0,31,32
 117 192 117 192 127 160 c 1,33,34
 143 224 143 224 193 264 c 128,-1,35
 243 304 243 304 307 304 c 0,36,37
 378 304 378 304 418.5 261.5 c 128,-1,38
 459 219 459 219 459 150 c 0,39,40
 459 83 459 83 409.5 39.5 c 128,-1,41
 360 -4 360 -4 279 -4 c 0,42,43
 223 -4 223 -4 172.5 23 c 128,-1,44
 122 50 122 50 90.5 103 c 128,-1,45
 59 156 59 156 59 234 c 0,46,47
 59 313 59 313 91.5 373.5 c 128,-1,48
 124 434 124 434 181 475.5 c 128,-1,49
 238 517 238 517 310.5 538 c 128,-1,50
 383 559 383 559 462 559 c 0,51,52
 526 559 526 559 585.5 545 c 128,-1,53
 645 531 645 531 696 505 c 1,54,55
 738 531 738 531 790.5 545 c 128,-1,56
 843 559 843 559 904 559 c 0,57,58
 1004 559 1004 559 1081 523 c 128,-1,59
 1158 487 1158 487 1202.5 420.5 c 128,-1,60
 1247 354 1247 354 1247 260 c 0,61,62
 1247 206 1247 206 1227 154 c 128,-1,63
 1207 102 1207 102 1166 60.5 c 128,-1,64
 1125 19 1125 19 1063 -5 c 1,0,-1
591 203 m 0,65,66
 591 139 591 139 615.5 94 c 128,-1,67
 640 49 640 49 693 49 c 0,68,69
 748 49 748 49 773 91.5 c 128,-1,70
 798 134 798 134 798 195 c 0,71,72
 798 277 798 277 770 338 c 128,-1,73
 742 399 742 399 690 438 c 1,74,75
 641 396 641 396 616 335 c 128,-1,76
 591 274 591 274 591 203 c 0,65,66
270 236 m 0,77,78
 224 236 224 236 191.5 202.5 c 128,-1,79
 159 169 159 169 152 107 c 1,80,81
 173 78 173 78 202 63.5 c 128,-1,82
 231 49 231 49 262 49 c 0,83,84
 312 49 312 49 339.5 77.5 c 128,-1,85
 367 106 367 106 367 146 c 0,86,87
 367 180 367 180 344 208 c 128,-1,88
 321 236 321 236 270 236 c 0,77,78
EndSplineSet
Validated: 513
Ligature2: "Required Feature lookup 1 per glyph data 0" a-tamil zerowidthjoiner aiMatra-tamil
EndChar

StartChar: halant-tamil
Encoding: 99 3021 102
Width: 0
GlyphClass: 4
Flags: W
AnchorPoint: "Anchor-8" 0 554 mark 0
AnchorPoint: "Anchor-3" 0 697 basemark 0
AnchorPoint: "Anchor-3" 0 554 mark 0
AnchorPoint: "Anchor-0" 0 554 mark 0
LayerCount: 2
Fore
SplineSet
0 637 m 0,0,1
 -25 637 -25 637 -43 655 c 128,-1,2
 -61 673 -61 673 -61 697 c 256,3,4
 -61 721 -61 721 -43 739 c 128,-1,5
 -25 757 -25 757 0 757 c 0,6,7
 26 757 26 757 43.5 739 c 128,-1,8
 61 721 61 721 61 697 c 256,9,10
 61 673 61 673 43.5 655 c 128,-1,11
 26 637 26 637 0 637 c 0,0,1
EndSplineSet
Validated: 513
EndChar

StartChar: om-tamil
Encoding: 100 3024 103
Width: 1012
GlyphClass: 2
Flags: W
LayerCount: 2
Fore
SplineSet
368 -388 m 0,0,1
 326 -388 326 -388 283 -377.5 c 128,-1,2
 240 -367 240 -367 204 -345 c 128,-1,3
 168 -323 168 -323 146 -287.5 c 128,-1,4
 124 -252 124 -252 124 -202 c 0,5,6
 124 -191 124 -191 125 -180 c 128,-1,7
 126 -169 126 -169 128 -158 c 1,8,-1
 185 -170 l 1,9,10
 183 -180 183 -180 182 -189 c 128,-1,11
 181 -198 181 -198 181 -206 c 0,12,13
 181 -265 181 -265 224.5 -294 c 128,-1,14
 268 -323 268 -323 334 -323 c 0,15,16
 402 -323 402 -323 445 -304.5 c 128,-1,17
 488 -286 488 -286 515.5 -258 c 128,-1,18
 543 -230 543 -230 563.5 -200.5 c 128,-1,19
 584 -171 584 -171 606.5 -148.5 c 128,-1,20
 629 -126 629 -126 663 -120 c 1,21,-1
 663 -115 l 1,22,23
 600 -87 600 -87 564 -31 c 128,-1,24
 528 25 528 25 528 90 c 0,25,26
 528 146 528 146 558 202.5 c 128,-1,27
 588 259 588 259 652 304 c 1,28,-1
 708 260 l 1,29,30
 686 231 686 231 674.5 199.5 c 128,-1,31
 663 168 663 168 663 139 c 0,32,33
 663 101 663 101 683.5 74.5 c 128,-1,34
 704 48 704 48 746 48 c 0,35,36
 781 48 781 48 806.5 70 c 128,-1,37
 832 92 832 92 845.5 129 c 128,-1,38
 859 166 859 166 859 211 c 0,39,40
 859 283 859 283 830 337.5 c 128,-1,41
 801 392 801 392 749 429.5 c 128,-1,42
 697 467 697 467 629 486 c 128,-1,43
 561 505 561 505 483 505 c 0,44,45
 410 505 410 505 344 486 c 128,-1,46
 278 467 278 467 227 431 c 128,-1,47
 176 395 176 395 146.5 345.5 c 128,-1,48
 117 296 117 296 117 234 c 0,49,50
 117 200 117 200 126 170 c 1,51,52
 142 234 142 234 192 273.5 c 128,-1,53
 242 313 242 313 307 313 c 0,54,55
 378 313 378 313 418.5 271 c 128,-1,56
 459 229 459 229 459 160 c 0,57,58
 459 92 459 92 409.5 48.5 c 128,-1,59
 360 5 360 5 278 5 c 0,60,61
 221 5 221 5 171 32 c 128,-1,62
 121 59 121 59 90 111 c 128,-1,63
 59 163 59 163 59 237 c 0,64,65
 59 312 59 312 92.5 371.5 c 128,-1,66
 126 431 126 431 184 473 c 128,-1,67
 242 515 242 515 318.5 537 c 128,-1,68
 395 559 395 559 480 559 c 0,69,70
 573 559 573 559 658.5 534.5 c 128,-1,71
 744 510 744 510 810.5 463.5 c 128,-1,72
 877 417 877 417 915.5 350.5 c 128,-1,73
 954 284 954 284 954 201 c 0,74,75
 954 140 954 140 928 93.5 c 128,-1,76
 902 47 902 47 857.5 21 c 128,-1,77
 813 -5 813 -5 759 -5 c 0,78,79
 709 -5 709 -5 676.5 15.5 c 128,-1,80
 644 36 644 36 628 68.5 c 128,-1,81
 612 101 612 101 612 136 c 0,82,83
 612 173 612 173 627 204 c 1,84,-1
 622 208 l 1,85,86
 598 178 598 178 587 148.5 c 128,-1,87
 576 119 576 119 576 90 c 0,88,89
 576 40 576 40 604.5 -2 c 128,-1,90
 633 -44 633 -44 679 -68.5 c 128,-1,91
 725 -93 725 -93 777 -93 c 2,92,-1
 840 -93 l 1,93,-1
 840 -146 l 1,94,-1
 777 -146 l 2,95,96
 745 -146 745 -146 720 -163.5 c 128,-1,97
 695 -181 695 -181 672 -208.5 c 128,-1,98
 649 -236 649 -236 623.5 -267 c 128,-1,99
 598 -298 598 -298 563.5 -325.5 c 128,-1,100
 529 -353 529 -353 481.5 -370.5 c 128,-1,101
 434 -388 434 -388 368 -388 c 0,0,1
270 246 m 0,102,103
 223 246 223 246 190.5 212 c 128,-1,104
 158 178 158 178 151 118 c 1,105,106
 172 89 172 89 201 74 c 128,-1,107
 230 59 230 59 261 59 c 0,108,109
 311 59 311 59 338.5 87.5 c 128,-1,110
 366 116 366 116 366 156 c 0,111,112
 366 190 366 190 343 218 c 128,-1,113
 320 246 320 246 270 246 c 0,102,103
353 -81 m 256,114,115
 339 -81 339 -81 329 -71 c 128,-1,116
 319 -61 319 -61 319 -48 c 0,117,118
 319 -36 319 -36 329 -26 c 128,-1,119
 339 -16 339 -16 353 -16 c 256,120,121
 367 -16 367 -16 377 -26 c 128,-1,122
 387 -36 387 -36 387 -48 c 0,123,124
 387 -61 387 -61 377 -71 c 128,-1,125
 367 -81 367 -81 353 -81 c 256,114,115
241 -251 m 1,126,-1
 241 -99 l 1,127,-1
 285 -99 l 1,128,-1
 285 -211 l 1,129,-1
 336 -211 l 1,130,-1
 336 -170 l 2,131,132
 336 -126 336 -126 357.5 -111.5 c 128,-1,133
 379 -97 379 -97 404 -97 c 0,134,135
 430 -97 430 -97 452.5 -111.5 c 128,-1,136
 475 -126 475 -126 475 -170 c 2,137,-1
 475 -251 l 1,138,-1
 241 -251 l 1,126,-1
377 -163 m 2,139,-1
 377 -211 l 1,140,-1
 431 -211 l 1,141,-1
 431 -163 l 2,142,143
 431 -136 431 -136 404 -136 c 256,144,145
 377 -136 377 -136 377 -163 c 2,139,-1
EndSplineSet
Validated: 513
EndChar

StartChar: aulengthmark-tamil
Encoding: 101 3031 104
Width: 1261
GlyphClass: 4
Flags: W
LayerCount: 2
Fore
SplineSet
278 -4 m 0,0,1
 220 -4 220 -4 170 24.5 c 128,-1,2
 120 53 120 53 89.5 110 c 128,-1,3
 59 167 59 167 59 250 c 0,4,5
 59 352 59 352 103 420.5 c 128,-1,6
 147 489 147 489 221 524 c 128,-1,7
 295 559 295 559 383 559 c 0,8,9
 571 559 571 559 654 441 c 1,10,-1
 654 554 l 1,11,-1
 1242 554 l 1,12,-1
 1242 500 l 1,13,-1
 1066 500 l 1,14,-1
 1066 0 l 1,15,-1
 972 0 l 1,16,-1
 972 500 l 1,17,-1
 744 500 l 1,18,-1
 744 0 l 1,19,-1
 649 0 l 1,20,-1
 649 269 l 2,21,22
 649 382 649 382 579 443.5 c 128,-1,23
 509 505 509 505 384 505 c 0,24,25
 310 505 310 505 249.5 475.5 c 128,-1,26
 189 446 189 446 153 389 c 128,-1,27
 117 332 117 332 117 249 c 0,28,29
 117 204 117 204 127 167 c 1,30,31
 145 228 145 228 194.5 266 c 128,-1,32
 244 304 244 304 307 304 c 0,33,34
 378 304 378 304 418.5 261.5 c 128,-1,35
 459 219 459 219 459 150 c 0,36,37
 459 83 459 83 409.5 39.5 c 128,-1,38
 360 -4 360 -4 278 -4 c 0,0,1
270 236 m 0,39,40
 224 236 224 236 191.5 203.5 c 128,-1,41
 159 171 159 171 152 112 c 1,42,43
 172 81 172 81 201 65 c 128,-1,44
 230 49 230 49 261 49 c 0,45,46
 311 49 311 49 338.5 77.5 c 128,-1,47
 366 106 366 106 366 146 c 0,48,49
 366 180 366 180 343 208 c 128,-1,50
 320 236 320 236 270 236 c 0,39,40
EndSplineSet
Validated: 513
Ligature2: "Required Feature lookup 1 per glyph data 0" a-tamil zerowidthjoiner aulengthmark-tamil
EndChar

StartChar: zero-tamil
Encoding: 102 3046 105
Width: 620
GlyphClass: 2
Flags: W
LayerCount: 2
Fore
SplineSet
316 -5 m 0,0,1
 235 -5 235 -5 177.5 32 c 128,-1,2
 120 69 120 69 89.5 132.5 c 128,-1,3
 59 196 59 196 59 277 c 256,4,5
 59 358 59 358 89.5 422 c 128,-1,6
 120 486 120 486 177.5 522.5 c 128,-1,7
 235 559 235 559 316 559 c 0,8,9
 388 559 388 559 443.5 523 c 128,-1,10
 499 487 499 487 530.5 423.5 c 128,-1,11
 562 360 562 360 562 277 c 0,12,13
 562 192 562 192 530.5 128.5 c 128,-1,14
 499 65 499 65 443.5 30 c 128,-1,15
 388 -5 388 -5 316 -5 c 0,0,1
297 56 m 0,16,17
 380 56 380 56 423 113.5 c 128,-1,18
 466 171 466 171 466 277 c 0,19,20
 466 380 466 380 423 439 c 128,-1,21
 380 498 380 498 297 498 c 0,22,23
 238 498 238 498 198.5 467 c 128,-1,24
 159 436 159 436 139.5 386 c 128,-1,25
 120 336 120 336 120 277 c 0,26,27
 120 216 120 216 139.5 166 c 128,-1,28
 159 116 159 116 198.5 86 c 128,-1,29
 238 56 238 56 297 56 c 0,16,17
EndSplineSet
Validated: 513
EndChar

StartChar: one-tamil
Encoding: 103 3047 106
Width: 858
GlyphClass: 2
Flags: W
LayerCount: 2
Fore
SplineSet
278 -5 m 0,0,1
 218 -5 218 -5 169.5 15.5 c 128,-1,2
 121 36 121 36 92 73.5 c 128,-1,3
 63 111 63 111 63 161 c 0,4,5
 63 224 63 224 99 262.5 c 128,-1,6
 135 301 135 301 195 312 c 1,7,-1
 195 554 l 1,8,-1
 689 554 l 1,9,-1
 689 500 l 1,10,-1
 514 500 l 1,11,-1
 514 317 l 1,12,-1
 559 317 l 2,13,14
 668 317 668 317 731.5 274.5 c 128,-1,15
 795 232 795 232 795 151 c 0,16,17
 795 103 795 103 770 68 c 128,-1,18
 745 33 745 33 703 14 c 128,-1,19
 661 -5 661 -5 609 -5 c 0,20,21
 561 -5 561 -5 523 9.5 c 128,-1,22
 485 24 485 24 451 52 c 1,23,24
 421 25 421 25 377.5 10 c 128,-1,25
 334 -5 334 -5 278 -5 c 0,0,1
419 500 m 1,26,-1
 256 500 l 1,27,-1
 256 317 l 1,28,-1
 419 317 l 1,29,-1
 419 500 l 1,26,-1
514 200 m 2,30,31
 514 137 514 137 484 90 c 1,32,33
 508 72 508 72 535.5 61.5 c 128,-1,34
 563 51 563 51 594 51 c 0,35,36
 641 51 641 51 670.5 79.5 c 128,-1,37
 700 108 700 108 700 154 c 0,38,39
 700 210 700 210 661 236.5 c 128,-1,40
 622 263 622 263 560 263 c 2,41,-1
 514 263 l 1,42,-1
 514 200 l 2,30,31
270 49 m 0,43,44
 311 49 311 49 344.5 64 c 128,-1,45
 378 79 378 79 398.5 110 c 128,-1,46
 419 141 419 141 419 189 c 2,47,-1
 419 263 l 1,48,-1
 249 263 l 2,49,50
 192 263 192 263 158.5 235.5 c 128,-1,51
 125 208 125 208 125 160 c 0,52,53
 125 105 125 105 167 77 c 128,-1,54
 209 49 209 49 270 49 c 0,43,44
EndSplineSet
Validated: 513
EndChar

StartChar: two-tamil
Encoding: 104 3048 107
Width: 942
GlyphClass: 2
Flags: W
LayerCount: 2
Fore
SplineSet
154 0 m 2,0,1
 106 0 106 0 77.5 25 c 128,-1,2
 49 50 49 50 49 94 c 0,3,4
 49 139 49 139 77.5 163.5 c 128,-1,5
 106 188 106 188 154 188 c 2,6,-1
 210 188 l 1,7,8
 167 212 167 212 141.5 251 c 128,-1,9
 116 290 116 290 116 347 c 0,10,11
 116 419 116 419 150.5 466 c 128,-1,12
 185 513 185 513 243.5 536 c 128,-1,13
 302 559 302 559 374 559 c 0,14,15
 428 559 428 559 478.5 545 c 128,-1,16
 529 531 529 531 569 503 c 128,-1,17
 609 475 609 475 632.5 433 c 128,-1,18
 656 391 656 391 656 336 c 0,19,20
 656 274 656 274 620.5 229 c 128,-1,21
 585 184 585 184 526 159.5 c 128,-1,22
 467 135 467 135 396 135 c 2,23,-1
 146 135 l 2,24,25
 130 135 130 135 118.5 124.5 c 128,-1,26
 107 114 107 114 107 94 c 0,27,28
 107 75 107 75 118.5 64.5 c 128,-1,29
 130 54 130 54 146 54 c 2,30,-1
 925 54 l 1,31,-1
 925 0 l 1,32,-1
 154 0 l 2,0,1
175 347 m 0,33,34
 175 272 175 272 229 230 c 128,-1,35
 283 188 283 188 381 188 c 2,36,-1
 382 188 l 2,37,38
 467 188 467 188 514 233 c 128,-1,39
 561 278 561 278 561 347 c 0,40,41
 561 399 561 399 535 434 c 128,-1,42
 509 469 509 469 465 487 c 128,-1,43
 421 505 421 505 368 505 c 0,44,45
 283 505 283 505 229 464.5 c 128,-1,46
 175 424 175 424 175 347 c 0,33,34
EndSplineSet
Validated: 513
EndChar

StartChar: three-tamil
Encoding: 105 3049 108
Width: 903
GlyphClass: 2
Flags: W
LayerCount: 2
Fore
SplineSet
98 0 m 1,0,-1
 98 554 l 1,1,-1
 606 554 l 1,2,-1
 606 500 l 1,3,-1
 431 500 l 1,4,-1
 431 311 l 1,5,6
 436 325 436 325 450.5 340.5 c 128,-1,7
 465 356 465 356 489.5 367.5 c 128,-1,8
 514 379 514 379 548 379 c 0,9,10
 592 379 592 379 627 359.5 c 128,-1,11
 662 340 662 340 682.5 305.5 c 128,-1,12
 703 271 703 271 703 226 c 0,13,14
 703 182 703 182 683 146 c 128,-1,15
 663 110 663 110 630.5 86 c 128,-1,16
 598 62 598 62 560 54 c 1,17,-1
 884 54 l 1,18,-1
 884 0 l 1,19,-1
 336 0 l 1,20,-1
 336 54 l 1,21,-1
 440 54 l 2,22,23
 463 54 463 54 491.5 61 c 128,-1,24
 520 68 520 68 547.5 85.5 c 128,-1,25
 575 103 575 103 592.5 133.5 c 128,-1,26
 610 164 610 164 610 210 c 0,27,28
 610 257 610 257 583.5 286.5 c 128,-1,29
 557 316 557 316 516 316 c 0,30,31
 477 316 477 316 454 290 c 128,-1,32
 431 264 431 264 431 223 c 2,33,-1
 431 196 l 1,34,-1
 336 196 l 1,35,-1
 336 500 l 1,36,-1
 159 500 l 1,37,-1
 159 0 l 1,38,-1
 98 0 l 1,0,-1
EndSplineSet
Validated: 513
EndChar

StartChar: four-tamil
Encoding: 106 3050 109
Width: 897
GlyphClass: 2
Flags: W
LayerCount: 2
Fore
SplineSet
278 -4 m 0,0,1
 219 -4 219 -4 170 16 c 128,-1,2
 121 36 121 36 92 73 c 128,-1,3
 63 110 63 110 63 162 c 0,4,5
 63 220 63 220 98 259.5 c 128,-1,6
 133 299 133 299 195 312 c 1,7,-1
 195 554 l 1,8,-1
 689 554 l 1,9,-1
 689 500 l 1,10,-1
 514 500 l 1,11,-1
 514 317 l 1,12,-1
 787 317 l 1,13,-1
 787 554 l 1,14,-1
 848 554 l 1,15,-1
 848 263 l 1,16,-1
 514 263 l 1,17,-1
 514 200 l 2,18,19
 514 140 514 140 486 94 c 128,-1,20
 458 48 458 48 405.5 22 c 128,-1,21
 353 -4 353 -4 278 -4 c 0,0,1
419 500 m 1,22,-1
 256 500 l 1,23,-1
 256 317 l 1,24,-1
 419 317 l 1,25,-1
 419 500 l 1,22,-1
270 49 m 0,26,27
 311 49 311 49 344.5 63.5 c 128,-1,28
 378 78 378 78 398.5 109 c 128,-1,29
 419 140 419 140 419 189 c 2,30,-1
 419 263 l 1,31,-1
 259 263 l 2,32,33
 195 263 195 263 160 235 c 128,-1,34
 125 207 125 207 125 160 c 0,35,36
 125 103 125 103 167 76 c 128,-1,37
 209 49 209 49 270 49 c 0,26,27
EndSplineSet
Validated: 513
EndChar

StartChar: five-tamil
Encoding: 107 3051 110
Width: 1122
GlyphClass: 2
Flags: W
LayerCount: 2
Fore
SplineSet
334 0 m 1,0,-1
 334 554 l 1,1,-1
 856 554 l 1,2,-1
 856 500 l 1,3,-1
 681 500 l 1,4,-1
 681 285 l 1,5,6
 700 313 700 313 730 329 c 128,-1,7
 760 345 760 345 797 345 c 0,8,9
 858 345 858 345 899 314.5 c 128,-1,10
 940 284 940 284 961.5 231.5 c 128,-1,11
 983 179 983 179 983 112 c 0,12,13
 983 29 983 29 956 -44.5 c 128,-1,14
 929 -118 929 -118 875 -174.5 c 128,-1,15
 821 -231 821 -231 739.5 -263.5 c 128,-1,16
 658 -296 658 -296 548 -296 c 0,17,18
 432 -296 432 -296 341 -251.5 c 128,-1,19
 250 -207 250 -207 187 -129 c 128,-1,20
 124 -51 124 -51 91.5 50 c 128,-1,21
 59 151 59 151 59 264 c 0,22,23
 59 384 59 384 91 487 c 128,-1,24
 123 590 123 590 187.5 666.5 c 128,-1,25
 252 743 252 743 348 786 c 128,-1,26
 444 829 444 829 572 829 c 0,27,28
 674 829 674 829 758.5 797.5 c 128,-1,29
 843 766 843 766 906 708 c 128,-1,30
 969 650 969 650 1006.5 570.5 c 128,-1,31
 1044 491 1044 491 1050 396 c 1,32,-1
 989 396 l 1,33,34
 976 565 976 565 870 652 c 128,-1,35
 764 739 764 739 572 739 c 0,36,37
 423 739 423 739 322 679.5 c 128,-1,38
 221 620 221 620 170.5 513.5 c 128,-1,39
 120 407 120 407 120 264 c 0,40,41
 120 161 120 161 148 69 c 128,-1,42
 176 -23 176 -23 231 -93 c 128,-1,43
 286 -163 286 -163 365.5 -203 c 128,-1,44
 445 -243 445 -243 548 -243 c 0,45,46
 670 -243 670 -243 744.5 -197 c 128,-1,47
 819 -151 819 -151 853 -73 c 128,-1,48
 887 5 887 5 887 102 c 0,49,50
 887 152 887 152 876 194 c 128,-1,51
 865 236 865 236 839.5 261 c 128,-1,52
 814 286 814 286 771 286 c 0,53,54
 726 286 726 286 703.5 254.5 c 128,-1,55
 681 223 681 223 681 183 c 2,56,-1
 681 0 l 1,57,-1
 586 0 l 1,58,-1
 586 500 l 1,59,-1
 396 500 l 1,60,-1
 396 0 l 1,61,-1
 334 0 l 1,0,-1
EndSplineSet
Validated: 513
EndChar

StartChar: six-tamil
Encoding: 108 3052 111
Width: 1104
GlyphClass: 2
Flags: W
LayerCount: 2
Fore
SplineSet
278 -4 m 0,0,1
 219 -4 219 -4 170 16 c 128,-1,2
 121 36 121 36 92 73 c 128,-1,3
 63 110 63 110 63 162 c 0,4,5
 63 220 63 220 98 259.5 c 128,-1,6
 133 299 133 299 195 312 c 1,7,-1
 195 554 l 1,8,-1
 689 554 l 1,9,-1
 689 500 l 1,10,-1
 514 500 l 1,11,-1
 514 317 l 1,12,-1
 606 317 l 2,13,14
 641 317 641 317 664 301 c 128,-1,15
 687 285 687 285 692 256 c 1,16,17
 697 285 697 285 720 301 c 128,-1,18
 743 317 743 317 777 317 c 2,19,-1
 1056 317 l 1,20,-1
 1056 263 l 1,21,-1
 963 263 l 1,22,-1
 963 0 l 1,23,-1
 870 0 l 1,24,-1
 870 263 l 1,25,-1
 787 263 l 2,26,27
 738 263 738 263 738 214 c 2,28,-1
 738 0 l 1,29,-1
 646 0 l 1,30,-1
 646 214 l 2,31,32
 646 263 646 263 597 263 c 2,33,-1
 514 263 l 1,34,-1
 514 200 l 2,35,36
 514 140 514 140 486 94 c 128,-1,37
 458 48 458 48 405.5 22 c 128,-1,38
 353 -4 353 -4 278 -4 c 0,0,1
419 500 m 1,39,-1
 256 500 l 1,40,-1
 256 317 l 1,41,-1
 419 317 l 1,42,-1
 419 500 l 1,39,-1
270 49 m 0,43,44
 311 49 311 49 344.5 63.5 c 128,-1,45
 378 78 378 78 398.5 109 c 128,-1,46
 419 140 419 140 419 189 c 2,47,-1
 419 263 l 1,48,-1
 259 263 l 2,49,50
 195 263 195 263 160 235 c 128,-1,51
 125 207 125 207 125 160 c 0,52,53
 125 103 125 103 167 76 c 128,-1,54
 209 49 209 49 270 49 c 0,43,44
EndSplineSet
Validated: 513
EndChar

StartChar: eight-tamil
Encoding: 110 3054 113
Width: 1319
GlyphClass: 2
Flags: W
LayerCount: 2
Fore
SplineSet
1127 -203 m 1,0,-1
 1127 117 l 1,1,-1
 938 117 l 1,2,3
 889 2 889 2 762 -60 c 128,-1,4
 635 -122 635 -122 455 -122 c 0,5,6
 359 -122 359 -122 282.5 -101 c 128,-1,7
 206 -80 206 -80 151.5 -47 c 128,-1,8
 97 -14 97 -14 68 24.5 c 128,-1,9
 39 63 39 63 39 99 c 0,10,11
 39 132 39 132 61.5 151.5 c 128,-1,12
 84 171 84 171 128 171 c 2,13,-1
 442 171 l 1,14,15
 389 241 389 241 389 324 c 0,16,17
 389 397 389 397 426 449.5 c 128,-1,18
 463 502 463 502 526 530.5 c 128,-1,19
 589 559 589 559 666 559 c 0,20,21
 756 559 756 559 823.5 521.5 c 128,-1,22
 891 484 891 484 928.5 416.5 c 128,-1,23
 966 349 966 349 966 260 c 0,24,25
 966 213 966 213 956 171 c 1,26,-1
 1127 171 l 1,27,-1
 1127 554 l 1,28,-1
 1222 554 l 1,29,-1
 1222 -203 l 1,30,-1
 1127 -203 l 1,0,-1
452 314 m 0,31,32
 452 276 452 276 466 241 c 128,-1,33
 480 206 480 206 509 171 c 1,34,-1
 859 171 l 1,35,36
 870 213 870 213 870 260 c 0,37,38
 870 332 870 332 844.5 387 c 128,-1,39
 819 442 819 442 771.5 473.5 c 128,-1,40
 724 505 724 505 659 505 c 0,41,42
 604 505 604 505 557 482 c 128,-1,43
 510 459 510 459 481 416.5 c 128,-1,44
 452 374 452 374 452 314 c 0,31,32
98 91 m 0,45,46
 98 68 98 68 124.5 40.5 c 128,-1,47
 151 13 151 13 198.5 -11.5 c 128,-1,48
 246 -36 246 -36 311.5 -52 c 128,-1,49
 377 -68 377 -68 455 -68 c 0,50,51
 602 -68 602 -68 700 -19.5 c 128,-1,52
 798 29 798 29 840 117 c 1,53,-1
 132 117 l 2,54,55
 112 117 112 117 105 110 c 128,-1,56
 98 103 98 103 98 91 c 0,45,46
EndSplineSet
Validated: 513
EndChar

StartChar: nine-tamil
Encoding: 111 3055 114
Width: 1265
GlyphClass: 2
Flags: W
LayerCount: 2
Fore
SplineSet
1052 -20 m 1,0,-1
 1030 16 l 1,1,2
 1078 42 1078 42 1099.5 88.5 c 128,-1,3
 1121 135 1121 135 1121 180 c 0,4,5
 1121 271 1121 271 1060.5 320.5 c 128,-1,6
 1000 370 1000 370 903 370 c 0,7,8
 805 370 805 370 744 317 c 1,9,10
 811 315 811 315 863.5 296 c 128,-1,11
 916 277 916 277 945.5 239.5 c 128,-1,12
 975 202 975 202 975 144 c 0,13,14
 975 102 975 102 953 68 c 128,-1,15
 931 34 931 34 892.5 14.5 c 128,-1,16
 854 -5 854 -5 805 -5 c 0,17,18
 744 -5 744 -5 703 20 c 128,-1,19
 662 45 662 45 642 86.5 c 128,-1,20
 622 128 622 128 622 179 c 0,21,22
 622 224 622 224 638 263 c 1,23,-1
 514 263 l 1,24,-1
 514 200 l 2,25,26
 514 140 514 140 486 94 c 128,-1,27
 458 48 458 48 405.5 22 c 128,-1,28
 353 -4 353 -4 278 -4 c 0,29,30
 219 -4 219 -4 170 16 c 128,-1,31
 121 36 121 36 92 73 c 128,-1,32
 63 110 63 110 63 162 c 0,33,34
 63 220 63 220 98 259.5 c 128,-1,35
 133 299 133 299 195 312 c 1,36,-1
 195 554 l 1,37,-1
 689 554 l 1,38,-1
 689 500 l 1,39,-1
 514 500 l 1,40,-1
 514 317 l 1,41,-1
 669 317 l 1,42,43
 709 368 709 368 774.5 395.5 c 128,-1,44
 840 423 840 423 917 423 c 0,45,46
 976 423 976 423 1029.5 406 c 128,-1,47
 1083 389 1083 389 1125 357.5 c 128,-1,48
 1167 326 1167 326 1191.5 282.5 c 128,-1,49
 1216 239 1216 239 1216 186 c 0,50,51
 1216 132 1216 132 1193.5 92.5 c 128,-1,52
 1171 53 1171 53 1133.5 26 c 128,-1,53
 1096 -1 1096 -1 1052 -20 c 1,0,-1
419 500 m 1,54,-1
 256 500 l 1,55,-1
 256 317 l 1,56,-1
 419 317 l 1,57,-1
 419 500 l 1,54,-1
270 49 m 0,58,59
 311 49 311 49 344.5 63.5 c 128,-1,60
 378 78 378 78 398.5 109 c 128,-1,61
 419 140 419 140 419 189 c 2,62,-1
 419 263 l 1,63,-1
 259 263 l 2,64,65
 195 263 195 263 160 235 c 128,-1,66
 125 207 125 207 125 160 c 0,67,68
 125 103 125 103 167 76 c 128,-1,69
 209 49 209 49 270 49 c 0,58,59
683 172 m 0,70,71
 683 123 683 123 709 86 c 128,-1,72
 735 49 735 49 787 49 c 0,73,74
 831 49 831 49 856 73 c 128,-1,75
 881 97 881 97 881 137 c 0,76,77
 881 199 881 199 839.5 231 c 128,-1,78
 798 263 798 263 733 263 c 2,79,-1
 703 263 l 1,80,81
 683 223 683 223 683 172 c 0,70,71
EndSplineSet
Validated: 513
EndChar

StartChar: ten-tamil
Encoding: 112 3056 115
Width: 852
GlyphClass: 2
Flags: W
LayerCount: 2
Fore
SplineSet
243 -5 m 0,0,1
 176 -5 176 -5 135.5 32 c 128,-1,2
 95 69 95 69 95 144 c 2,3,-1
 95 554 l 1,4,-1
 190 554 l 1,5,-1
 190 132 l 2,6,7
 190 87 190 87 208.5 68 c 128,-1,8
 227 49 227 49 266 49 c 0,9,10
 307 49 307 49 329.5 80.5 c 128,-1,11
 352 112 352 112 352 156 c 2,12,-1
 352 554 l 1,13,-1
 444 554 l 1,14,-1
 444 147 l 2,15,16
 444 49 444 49 524 49 c 0,17,18
 578 49 578 49 621 84 c 128,-1,19
 664 119 664 119 689.5 183.5 c 128,-1,20
 715 248 715 248 715 336 c 0,21,22
 715 445 715 445 668.5 532 c 128,-1,23
 622 619 622 619 531 674.5 c 128,-1,24
 440 730 440 730 306 742 c 1,25,-1
 311 796 l 1,26,27
 455 781 455 781 559 722.5 c 128,-1,28
 663 664 663 664 719.5 564.5 c 128,-1,29
 776 465 776 465 776 326 c 0,30,31
 776 264 776 264 759.5 205 c 128,-1,32
 743 146 743 146 710 98.5 c 128,-1,33
 677 51 677 51 628.5 23 c 128,-1,34
 580 -5 580 -5 517 -5 c 0,35,36
 463 -5 463 -5 427 15 c 128,-1,37
 391 35 391 35 373 72 c 1,38,39
 356 32 356 32 322.5 13.5 c 128,-1,40
 289 -5 289 -5 243 -5 c 0,0,1
EndSplineSet
Validated: 513
EndChar

StartChar: onehundred-tamil
Encoding: 113 3057 116
Width: 889
GlyphClass: 2
Flags: W
LayerCount: 2
Fore
SplineSet
72 0 m 1,0,-1
 72 408 l 2,1,2
 72 476 72 476 109 517.5 c 128,-1,3
 146 559 146 559 212 559 c 0,4,5
 243 559 243 559 268.5 545.5 c 128,-1,6
 294 532 294 532 312 508 c 1,7,-1
 312 554 l 1,8,-1
 870 554 l 1,9,-1
 870 500 l 1,10,-1
 694 500 l 1,11,-1
 694 0 l 1,12,-1
 600 0 l 1,13,-1
 600 500 l 1,14,-1
 372 500 l 1,15,-1
 372 0 l 1,16,-1
 312 0 l 1,17,-1
 312 403 l 2,18,19
 312 447 312 447 288 476 c 128,-1,20
 264 505 264 505 222 505 c 0,21,22
 179 505 179 505 156 479.5 c 128,-1,23
 133 454 133 454 133 408 c 2,24,-1
 133 0 l 1,25,-1
 72 0 l 1,0,-1
EndSplineSet
Validated: 513
EndChar

StartChar: onethousand-tamil
Encoding: 114 3058 117
Width: 1155
GlyphClass: 2
Flags: W
LayerCount: 2
Fore
SplineSet
258 -4 m 0,0,1
 199 -4 199 -4 150 16 c 128,-1,2
 101 36 101 36 72.5 73 c 128,-1,3
 44 110 44 110 44 162 c 0,4,5
 44 220 44 220 79 259.5 c 128,-1,6
 114 299 114 299 175 312 c 1,7,-1
 175 554 l 1,8,-1
 670 554 l 1,9,-1
 670 500 l 1,10,-1
 494 500 l 1,11,-1
 494 317 l 1,12,-1
 1025 317 l 1,13,-1
 1025 263 l 1,14,-1
 893 263 l 1,15,-1
 893 188 l 1,16,-1
 896 188 l 2,17,18
 994 188 994 188 1052.5 144 c 128,-1,19
 1111 100 1111 100 1111 18 c 0,20,21
 1111 -57 1111 -57 1075.5 -100 c 128,-1,22
 1040 -143 1040 -143 975.5 -161 c 128,-1,23
 911 -179 911 -179 824 -179 c 2,24,-1
 613 -179 l 2,25,26
 567 -179 567 -179 542.5 -191.5 c 128,-1,27
 518 -204 518 -204 509 -228 c 128,-1,28
 500 -252 500 -252 500 -285 c 1,29,30
 456 -285 456 -285 433.5 -268.5 c 128,-1,31
 411 -252 411 -252 411 -215 c 0,32,33
 411 -179 411 -179 434.5 -159.5 c 128,-1,34
 458 -140 458 -140 496.5 -132.5 c 128,-1,35
 535 -125 535 -125 579 -125 c 2,36,-1
 796 -125 l 2,37,38
 906 -125 906 -125 964.5 -93.5 c 128,-1,39
 1023 -62 1023 -62 1023 18 c 0,40,41
 1023 71 1023 71 991 102.5 c 128,-1,42
 959 134 959 134 896 134 c 2,43,-1
 893 134 l 1,44,-1
 893 109 l 2,45,46
 893 64 893 64 872.5 26.5 c 128,-1,47
 852 -11 852 -11 813 -33.5 c 128,-1,48
 774 -56 774 -56 716 -56 c 0,49,50
 673 -56 673 -56 637.5 -40 c 128,-1,51
 602 -24 602 -24 581 4.5 c 128,-1,52
 560 33 560 33 560 69 c 0,53,54
 560 128 560 128 600.5 158 c 128,-1,55
 641 188 641 188 708 188 c 2,56,-1
 803 188 l 1,57,-1
 803 263 l 1,58,-1
 494 263 l 1,59,-1
 494 200 l 2,60,61
 494 110 494 110 432.5 53 c 128,-1,62
 371 -4 371 -4 258 -4 c 0,0,1
236 500 m 1,63,-1
 236 317 l 1,64,-1
 399 317 l 1,65,-1
 399 500 l 1,66,-1
 236 500 l 1,63,-1
250 49 m 0,67,68
 291 49 291 49 324.5 63.5 c 128,-1,69
 358 78 358 78 378.5 109 c 128,-1,70
 399 140 399 140 399 189 c 2,71,-1
 399 263 l 1,72,-1
 239 263 l 2,73,74
 175 263 175 263 140 235 c 128,-1,75
 105 207 105 207 105 160 c 0,76,77
 105 103 105 103 147.5 76 c 128,-1,78
 190 49 190 49 250 49 c 0,67,68
621 67 m 0,79,80
 621 33 621 33 646.5 15.5 c 128,-1,81
 672 -2 672 -2 708 -2 c 0,82,83
 750 -2 750 -2 776.5 22.5 c 128,-1,84
 803 47 803 47 803 99 c 2,85,-1
 803 134 l 1,86,-1
 715 134 l 2,87,88
 670 134 670 134 645.5 118.5 c 128,-1,89
 621 103 621 103 621 67 c 0,79,80
EndSplineSet
Validated: 513
EndChar

StartChar: day-tamil
Encoding: 115 3059 118
Width: 959
GlyphClass: 2
Flags: W
LayerCount: 2
Fore
SplineSet
279 -4 m 0,0,1
 223 -4 223 -4 172.5 23 c 128,-1,2
 122 50 122 50 90.5 103 c 128,-1,3
 59 156 59 156 59 234 c 0,4,5
 59 337 59 337 105.5 409.5 c 128,-1,6
 152 482 152 482 233 520.5 c 128,-1,7
 314 559 314 559 417 559 c 0,8,9
 489 559 489 559 552 538 c 128,-1,10
 615 517 615 517 662.5 477.5 c 128,-1,11
 710 438 710 438 737 383.5 c 128,-1,12
 764 329 764 329 764 261 c 0,13,14
 764 188 764 188 736 137 c 128,-1,15
 708 86 708 86 676 54 c 1,16,-1
 940 54 l 1,17,-1
 940 0 l 1,18,-1
 605 0 l 1,19,-1
 587 43 l 1,20,21
 619 73 619 73 643.5 125 c 128,-1,22
 668 177 668 177 668 257 c 0,23,24
 668 330 668 330 633 385.5 c 128,-1,25
 598 441 598 441 538.5 473 c 128,-1,26
 479 505 479 505 404 505 c 0,27,28
 318 505 318 505 253.5 472.5 c 128,-1,29
 189 440 189 440 153 378.5 c 128,-1,30
 117 317 117 317 117 231 c 0,31,32
 117 192 117 192 127 160 c 1,33,34
 143 224 143 224 193 264 c 128,-1,35
 243 304 243 304 307 304 c 0,36,37
 378 304 378 304 418.5 261.5 c 128,-1,38
 459 219 459 219 459 150 c 0,39,40
 459 83 459 83 409.5 39.5 c 128,-1,41
 360 -4 360 -4 279 -4 c 0,0,1
270 236 m 0,42,43
 224 236 224 236 191.5 202.5 c 128,-1,44
 159 169 159 169 152 107 c 1,45,46
 173 78 173 78 202 63.5 c 128,-1,47
 231 49 231 49 262 49 c 0,48,49
 312 49 312 49 339.5 77.5 c 128,-1,50
 367 106 367 106 367 146 c 0,51,52
 367 180 367 180 344 208 c 128,-1,53
 321 236 321 236 270 236 c 0,42,43
EndSplineSet
Validated: 513
AlternateSubs2: "'aalt' Access All Alternates lookup 2 per glyph data 1" NameMe.222
EndChar

StartChar: month-tamil
Encoding: 116 3060 119
Width: 1152
GlyphClass: 2
Flags: W
AnchorPoint: "Anchor-6" 462 0 basechar 0
AnchorPoint: "Anchor-4" 461 0 basechar 0
AnchorPoint: "Anchor-2" 791 554 basechar 0
AnchorPoint: "Anchor-1" 479 554 basechar 0
AnchorPoint: "Anchor-0" 498 554 basechar 0
LayerCount: 2
Fore
SplineSet
98 0 m 1,0,-1
 98 554 l 1,1,-1
 192 554 l 1,2,-1
 192 54 l 1,3,-1
 450 54 l 1,4,-1
 450 381 l 2,5,6
 450 468 450 468 502 513.5 c 128,-1,7
 554 559 554 559 631 559 c 0,8,9
 656 559 656 559 679 553 c 1,10,11
 664 577 664 577 658 603 c 128,-1,12
 652 629 652 629 652 659 c 0,13,14
 652 719 652 719 691.5 767 c 128,-1,15
 731 815 731 815 794 831 c 1,16,17
 818 879 818 879 865 907.5 c 128,-1,18
 912 936 912 936 976 936 c 0,19,20
 1035 936 1035 936 1084 909.5 c 128,-1,21
 1133 883 1133 883 1152 835 c 1,22,-1
 1157 835 l 1,23,24
 1165 882 1165 882 1196.5 910.5 c 128,-1,25
 1228 939 1228 939 1289 936 c 1,26,-1
 1285 892 l 1,27,28
 1253 896 1253 896 1234 882.5 c 128,-1,29
 1215 869 1215 869 1207 845 c 128,-1,30
 1199 821 1199 821 1199 791 c 2,31,-1
 1199 571 l 1,32,-1
 1111 571 l 1,33,-1
 1111 766 l 2,34,35
 1111 826 1111 826 1070.5 856.5 c 128,-1,36
 1030 887 1030 887 973 887 c 0,37,38
 898 887 898 887 855 837 c 1,39,40
 940 835 940 835 991 795.5 c 128,-1,41
 1042 756 1042 756 1042 682 c 0,42,43
 1042 628 1042 628 1004 597 c 128,-1,44
 966 566 966 566 913 566 c 0,45,46
 871 566 871 566 839 587.5 c 128,-1,47
 807 609 807 609 789 645.5 c 128,-1,48
 771 682 771 682 771 727 c 0,49,50
 771 748 771 748 774 768 c 1,51,52
 742 751 742 751 721.5 720.5 c 128,-1,53
 701 690 701 690 701 647 c 0,54,55
 701 600 701 600 717.5 569 c 128,-1,56
 734 538 734 538 763 509 c 0,57,58
 771 502 771 502 778 495 c 2,59,-1
 780 493 l 1,60,-1
 780 493 l 1,61,62
 817 453 817 453 838.5 390.5 c 128,-1,63
 860 328 860 328 860 244 c 0,64,65
 860 167 860 167 845 112.5 c 128,-1,66
 830 58 830 58 793 29 c 128,-1,67
 756 0 756 0 690 0 c 2,68,-1
 98 0 l 1,0,-1
820 730 m 0,69,70
 820 683 820 683 839.5 651.5 c 128,-1,71
 859 620 859 620 896 620 c 0,72,73
 925 620 925 620 942 637.5 c 128,-1,74
 959 655 959 655 959 686 c 0,75,76
 959 733 959 733 929.5 759.5 c 128,-1,77
 900 786 900 786 855 786 c 0,78,79
 841 786 841 786 827 784 c 1,80,81
 820 759 820 759 820 730 c 0,69,70
545 54 m 1,82,-1
 681 54 l 2,83,84
 736 54 736 54 760.5 78.5 c 128,-1,85
 785 103 785 103 792 145.5 c 128,-1,86
 799 188 799 188 799 242 c 0,87,88
 799 331 799 331 775 388 c 128,-1,89
 751 445 751 445 716 472.5 c 128,-1,90
 681 500 681 500 646 500 c 0,91,92
 603 500 603 500 574 472.5 c 128,-1,93
 545 445 545 445 545 382 c 2,94,-1
 545 54 l 1,82,-1
EndSplineSet
Validated: 1049125
EndChar

StartChar: year-tamil
Encoding: 117 3061 120
Width: 2210
GlyphClass: 2
Flags: W
AnchorPoint: "Anchor-6" 937 0 basechar 0
AnchorPoint: "Anchor-4" 937 0 basechar 0
AnchorPoint: "Anchor-2" 1410 554 basechar 0
AnchorPoint: "Anchor-1" 891 554 basechar 0
AnchorPoint: "Anchor-0" 937 554 basechar 0
LayerCount: 2
Fore
SplineSet
519 -4 m 0,0,1
 461 -4 461 -4 411 24.5 c 128,-1,2
 361 53 361 53 330.5 110 c 128,-1,3
 300 167 300 167 300 250 c 0,4,5
 300 352 300 352 344 420.5 c 128,-1,6
 388 489 388 489 462 524 c 128,-1,7
 536 559 536 559 624 559 c 0,8,9
 812 559 812 559 895 441 c 1,10,-1
 895 554 l 1,11,-1
 1483 554 l 1,12,-1
 1483 500 l 1,13,-1
 1307 500 l 1,14,-1
 1307 297 l 1,15,16
 1347 345 1347 345 1414 345 c 0,17,18
 1500 345 1500 345 1547.5 289.5 c 128,-1,19
 1595 234 1595 234 1595 142 c 0,20,21
 1595 32 1595 32 1538 -50.5 c 128,-1,22
 1481 -133 1481 -133 1379.5 -187.5 c 128,-1,23
 1278 -242 1278 -242 1142 -269 c 128,-1,24
 1006 -296 1006 -296 848 -296 c 0,25,26
 678 -296 678 -296 534.5 -258 c 128,-1,27
 391 -220 391 -220 285.5 -147 c 128,-1,28
 180 -74 180 -74 121.5 31 c 128,-1,29
 63 136 63 136 63 269 c 0,30,31
 63 385 63 385 111.5 486.5 c 128,-1,32
 160 588 160 588 261 665 c 128,-1,33
 362 742 362 742 519.5 785.5 c 128,-1,34
 677 829 677 829 896 829 c 0,35,36
 1114 829 1114 829 1284.5 789.5 c 128,-1,37
 1455 750 1455 750 1574.5 678 c 128,-1,38
 1694 606 1694 606 1756 507 c 128,-1,39
 1818 408 1818 408 1818 289 c 2,40,-1
 1818 172 l 2,41,42
 1818 114 1818 114 1846.5 86.5 c 128,-1,43
 1875 59 1875 59 1915 59 c 0,44,45
 1966 59 1966 59 2003.5 90 c 128,-1,46
 2041 121 2041 121 2062 173.5 c 128,-1,47
 2083 226 2083 226 2083 289 c 0,48,49
 2083 350 2083 350 2061.5 410 c 128,-1,50
 2040 470 2040 470 1984 519 c 1,51,-1
 2026 559 l 1,52,53
 2093 498 2093 498 2120 424.5 c 128,-1,54
 2147 351 2147 351 2147 279 c 0,55,56
 2147 205 2147 205 2118.5 141.5 c 128,-1,57
 2090 78 2090 78 2035.5 39 c 128,-1,58
 1981 0 1981 0 1904 0 c 256,59,60
 1827 0 1827 0 1775.5 45.5 c 128,-1,61
 1724 91 1724 91 1724 173 c 2,62,-1
 1724 291 l 2,63,64
 1724 395 1724 395 1671 483 c 128,-1,65
 1618 571 1618 571 1513 636.5 c 128,-1,66
 1408 702 1408 702 1253.5 738.5 c 128,-1,67
 1099 775 1099 775 896 775 c 0,68,69
 699 775 699 775 553.5 737 c 128,-1,70
 408 699 408 699 313 630.5 c 128,-1,71
 218 562 218 562 171.5 470 c 128,-1,72
 125 378 125 378 125 269 c 0,73,74
 125 145 125 145 178.5 49.5 c 128,-1,75
 232 -46 232 -46 329.5 -111 c 128,-1,76
 427 -176 427 -176 559 -209.5 c 128,-1,77
 691 -243 691 -243 848 -243 c 0,78,79
 991 -243 991 -243 1110.5 -221 c 128,-1,80
 1230 -199 1230 -199 1317 -153.5 c 128,-1,81
 1404 -108 1404 -108 1452 -36 c 128,-1,82
 1500 36 1500 36 1500 136 c 0,83,84
 1500 202 1500 202 1473.5 244 c 128,-1,85
 1447 286 1447 286 1388 286 c 0,86,87
 1358 286 1358 286 1337.5 271 c 128,-1,88
 1317 256 1317 256 1307 233 c 1,89,-1
 1307 0 l 1,90,-1
 1213 0 l 1,91,-1
 1213 500 l 1,92,-1
 985 500 l 1,93,-1
 985 0 l 1,94,-1
 890 0 l 1,95,-1
 890 269 l 2,96,97
 890 382 890 382 820 443.5 c 128,-1,98
 750 505 750 505 625 505 c 0,99,100
 551 505 551 505 490.5 475.5 c 128,-1,101
 430 446 430 446 394 389 c 128,-1,102
 358 332 358 332 358 249 c 0,103,104
 358 204 358 204 368 167 c 1,105,106
 386 228 386 228 435.5 266 c 128,-1,107
 485 304 485 304 548 304 c 0,108,109
 619 304 619 304 659.5 261.5 c 128,-1,110
 700 219 700 219 700 150 c 0,111,112
 700 83 700 83 650.5 39.5 c 128,-1,113
 601 -4 601 -4 519 -4 c 0,0,1
511 236 m 0,114,115
 465 236 465 236 432.5 203.5 c 128,-1,116
 400 171 400 171 393 112 c 1,117,118
 413 81 413 81 442 65 c 128,-1,119
 471 49 471 49 502 49 c 0,120,121
 552 49 552 49 579.5 77.5 c 128,-1,122
 607 106 607 106 607 146 c 0,123,124
 607 180 607 180 584 208 c 128,-1,125
 561 236 561 236 511 236 c 0,114,115
EndSplineSet
Validated: 1049089
EndChar

StartChar: debit-tamil
Encoding: 118 3062 121
Width: 1218
GlyphClass: 2
Flags: W
LayerCount: 2
Fore
SplineSet
140 15 m 1,0,-1
 140 554 l 1,1,-1
 234 554 l 1,2,-1
 234 68 l 1,3,-1
 748 68 l 1,4,-1
 748 554 l 1,5,-1
 843 554 l 1,6,-1
 843 14 l 2,7,8
 843 -27 843 -27 836 -65 c 1,9,-1
 1210 -65 l 1,10,-1
 1210 554 l 1,11,-1
 1305 554 l 1,12,-1
 1305 -119 l 1,13,-1
 821 -119 l 1,14,15
 783 -227 783 -227 681 -287.5 c 128,-1,16
 579 -348 579 -348 430 -348 c 0,17,18
 358 -348 358 -348 295 -331.5 c 128,-1,19
 232 -315 232 -315 183.5 -286 c 128,-1,20
 135 -257 135 -257 108 -219 c 128,-1,21
 81 -181 81 -181 81 -137 c 0,22,23
 81 -104 81 -104 103.5 -84.5 c 128,-1,24
 126 -65 126 -65 170 -65 c 2,25,-1
 741 -65 l 1,26,27
 748 -27 748 -27 748 15 c 1,28,-1
 140 15 l 1,0,-1
429 -294 m 0,29,30
 546 -294 546 -294 620 -247 c 128,-1,31
 694 -200 694 -200 725 -119 c 1,32,-1
 174 -119 l 2,33,34
 154 -119 154 -119 147 -126 c 128,-1,35
 140 -133 140 -133 140 -145 c 0,36,37
 140 -186 140 -186 180 -220 c 128,-1,38
 220 -254 220 -254 285.5 -274 c 128,-1,39
 351 -294 351 -294 429 -294 c 0,29,30
EndSplineSet
Validated: 513
EndChar

StartChar: credit-tamil
Encoding: 119 3063 122
Width: 1552
GlyphClass: 2
Flags: W
AnchorPoint: "Anchor-6" 511 0 basechar 0
AnchorPoint: "Anchor-4" 510 0 basechar 0
AnchorPoint: "Anchor-1" 513 554 basechar 0
AnchorPoint: "Anchor-0" 511 554 basechar 0
LayerCount: 2
Fore
SplineSet
283 -5 m 0,0,1
 225 -5 225 -5 175 24 c 128,-1,2
 125 53 125 53 94.5 110 c 128,-1,3
 64 167 64 167 64 250 c 0,4,5
 64 326 64 326 92 383 c 128,-1,6
 120 440 120 440 169.5 478 c 128,-1,7
 219 516 219 516 283.5 535 c 128,-1,8
 348 554 348 554 420 554 c 2,9,-1
 924 554 l 1,10,-1
 924 500 l 1,11,-1
 748 500 l 1,12,-1
 748 231 l 1,13,14
 772 252 772 252 799 269 c 128,-1,15
 826 286 826 286 856 297 c 1,16,17
 893 357 893 357 963 390 c 128,-1,18
 1033 423 1033 423 1117 423 c 0,19,20
 1176 423 1176 423 1229.5 406 c 128,-1,21
 1283 389 1283 389 1325 358 c 128,-1,22
 1367 327 1367 327 1391.5 284.5 c 128,-1,23
 1416 242 1416 242 1416 191 c 0,24,25
 1416 149 1416 149 1398.5 114.5 c 128,-1,26
 1381 80 1381 80 1354 54 c 1,27,-1
 1533 54 l 1,28,-1
 1533 0 l 1,29,-1
 1279 0 l 1,30,-1
 1261 43 l 1,31,32
 1290 71 1290 71 1305.5 110 c 128,-1,33
 1321 149 1321 149 1321 185 c 0,34,35
 1321 272 1321 272 1260.5 321 c 128,-1,36
 1200 370 1200 370 1103 370 c 0,37,38
 1004 370 1004 370 943 316 c 1,39,40
 955 317 955 317 967 317 c 0,41,42
 1027 317 1027 317 1073.5 296.5 c 128,-1,43
 1120 276 1120 276 1146.5 237.5 c 128,-1,44
 1173 199 1173 199 1173 144 c 0,45,46
 1173 102 1173 102 1151.5 68 c 128,-1,47
 1130 34 1130 34 1092 14.5 c 128,-1,48
 1054 -5 1054 -5 1005 -5 c 0,49,50
 944 -5 944 -5 903.5 20 c 128,-1,51
 863 45 863 45 843.5 86.5 c 128,-1,52
 824 128 824 128 824 179 c 0,53,54
 824 206 824 206 830 232 c 1,55,56
 807 220 807 220 786.5 204 c 128,-1,57
 766 188 766 188 748 171 c 1,58,-1
 748 0 l 1,59,-1
 653 0 l 1,60,-1
 653 500 l 1,61,-1
 423 500 l 2,62,63
 339 500 339 500 271 471.5 c 128,-1,64
 203 443 203 443 162.5 387.5 c 128,-1,65
 122 332 122 332 122 249 c 0,66,67
 122 204 122 204 133 167 c 1,68,69
 150 228 150 228 199.5 265.5 c 128,-1,70
 249 303 249 303 312 303 c 0,71,72
 383 303 383 303 423.5 261 c 128,-1,73
 464 219 464 219 464 150 c 0,74,75
 464 82 464 82 414.5 38.5 c 128,-1,76
 365 -5 365 -5 283 -5 c 0,0,1
882 172 m 0,77,78
 882 123 882 123 908 86 c 128,-1,79
 934 49 934 49 986 49 c 0,80,81
 1030 49 1030 49 1055.5 73 c 128,-1,82
 1081 97 1081 97 1081 137 c 0,83,84
 1081 195 1081 195 1045 229.5 c 128,-1,85
 1009 264 1009 264 954 264 c 0,86,87
 927 264 927 264 900 258 c 1,88,89
 882 219 882 219 882 172 c 0,77,78
275 236 m 0,90,91
 229 236 229 236 197 203.5 c 128,-1,92
 165 171 165 171 157 112 c 1,93,94
 177 80 177 80 206 64.5 c 128,-1,95
 235 49 235 49 266 49 c 0,96,97
 316 49 316 49 343.5 77 c 128,-1,98
 371 105 371 105 371 146 c 0,99,100
 371 179 371 179 348 207.5 c 128,-1,101
 325 236 325 236 275 236 c 0,90,91
EndSplineSet
Validated: 1049089
EndChar

StartChar: asabove-tamil
Encoding: 120 3064 123
Width: 1947
GlyphClass: 2
Flags: W
LayerCount: 2
Fore
SplineSet
747 -6 m 0,0,1
 686 -6 686 -6 640 21.5 c 128,-1,2
 594 49 594 49 568.5 98 c 128,-1,3
 543 147 543 147 543 211 c 0,4,5
 543 278 543 278 566.5 340 c 128,-1,6
 590 402 590 402 635.5 450.5 c 128,-1,7
 681 499 681 499 747 527 c 1,8,9
 704 564 704 564 643 584 c 128,-1,10
 582 604 582 604 500 604 c 0,11,12
 388 604 388 604 301.5 560.5 c 128,-1,13
 215 517 215 517 166 437 c 128,-1,14
 117 357 117 357 117 249 c 0,15,16
 117 204 117 204 127 167 c 1,17,18
 145 228 145 228 194.5 266 c 128,-1,19
 244 304 244 304 307 304 c 0,20,21
 378 304 378 304 416 261.5 c 128,-1,22
 454 219 454 219 454 150 c 0,23,24
 454 83 454 83 407 39.5 c 128,-1,25
 360 -4 360 -4 278 -4 c 0,26,27
 220 -4 220 -4 170 24.5 c 128,-1,28
 120 53 120 53 89.5 110 c 128,-1,29
 59 167 59 167 59 250 c 0,30,31
 59 342 59 342 91.5 417 c 128,-1,32
 124 492 124 492 183 546 c 128,-1,33
 242 600 242 600 321.5 629 c 128,-1,34
 401 658 401 658 495 658 c 0,35,36
 588 658 588 658 668.5 628.5 c 128,-1,37
 749 599 749 599 809 548 c 1,38,39
 858 559 858 559 911 559 c 0,40,41
 994 559 994 559 1059.5 535 c 128,-1,42
 1125 511 1125 511 1171 470 c 128,-1,43
 1217 429 1217 429 1241.5 376 c 128,-1,44
 1266 323 1266 323 1266 265 c 0,45,46
 1266 211 1266 211 1241.5 159 c 128,-1,47
 1217 107 1217 107 1164 63 c 1,48,-1
 1487 63 l 1,49,50
 1435 103 1435 103 1409 165.5 c 128,-1,51
 1383 228 1383 228 1383 298 c 0,52,53
 1383 378 1383 378 1410 435 c 128,-1,54
 1437 492 1437 492 1484 523 c 128,-1,55
 1531 554 1531 554 1590 554 c 0,56,57
 1672 554 1672 554 1721.5 515.5 c 128,-1,58
 1771 477 1771 477 1771 392 c 2,59,-1
 1771 63 l 1,60,-1
 1928 63 l 1,61,-1
 1928 0 l 1,62,-1
 1771 0 l 1,63,-1
 1771 -296 l 1,64,-1
 1676 -296 l 1,65,-1
 1676 0 l 1,66,-1
 1082 0 l 1,67,-1
 1060 51 l 1,68,69
 1117 98 1117 98 1143.5 155.5 c 128,-1,70
 1170 213 1170 213 1170 268 c 0,71,72
 1170 333 1170 333 1140 387 c 128,-1,73
 1110 441 1110 441 1050.5 473 c 128,-1,74
 991 505 991 505 904 505 c 0,75,76
 879 505 879 505 855 502 c 1,77,78
 901 448 901 448 926 381.5 c 128,-1,79
 951 315 951 315 951 239 c 0,80,81
 951 168 951 168 923.5 112.5 c 128,-1,82
 896 57 896 57 849.5 25.5 c 128,-1,83
 803 -6 803 -6 747 -6 c 0,0,1
1441 292 m 0,84,85
 1441 239 1441 239 1458 192.5 c 128,-1,86
 1475 146 1475 146 1507 111.5 c 128,-1,87
 1539 77 1539 77 1585 63 c 1,88,-1
 1676 63 l 1,89,-1
 1676 402 l 2,90,91
 1676 495 1676 495 1584 495 c 0,92,93
 1543 495 1543 495 1510.5 469.5 c 128,-1,94
 1478 444 1478 444 1459.5 398.5 c 128,-1,95
 1441 353 1441 353 1441 292 c 0,84,85
602 206 m 0,96,97
 602 139 602 139 634.5 98.5 c 128,-1,98
 667 58 667 58 725 58 c 0,99,100
 770 58 770 58 798.5 82.5 c 128,-1,101
 827 107 827 107 841 149 c 128,-1,102
 855 191 855 191 855 241 c 0,103,104
 855 313 855 313 838.5 375 c 128,-1,105
 822 437 822 437 786 485 c 1,106,107
 726 462 726 462 685 419 c 128,-1,108
 644 376 644 376 623 321 c 128,-1,109
 602 266 602 266 602 206 c 0,96,97
270 236 m 0,110,111
 224 236 224 236 191.5 203.5 c 128,-1,112
 159 171 159 171 152 112 c 1,113,114
 172 81 172 81 201 65 c 128,-1,115
 230 49 230 49 261 49 c 0,116,117
 311 49 311 49 338.5 77.5 c 128,-1,118
 366 106 366 106 366 146 c 0,119,120
 366 180 366 180 343 208 c 128,-1,121
 320 236 320 236 270 236 c 0,110,111
EndSplineSet
Validated: 513
EndChar

StartChar: rupee-tamil
Encoding: 121 3065 124
Width: 1056
GlyphClass: 2
Flags: W
LayerCount: 2
Fore
SplineSet
349 0 m 1,0,-1
 349 554 l 1,1,-1
 871 554 l 1,2,-1
 871 500 l 1,3,-1
 695 500 l 1,4,-1
 695 284 l 1,5,6
 714 313 714 313 744 329 c 128,-1,7
 774 345 774 345 812 345 c 0,8,9
 873 345 873 345 914 314.5 c 128,-1,10
 955 284 955 284 976.5 231.5 c 128,-1,11
 998 179 998 179 998 112 c 0,12,13
 998 29 998 29 969.5 -44.5 c 128,-1,14
 941 -118 941 -118 884.5 -174.5 c 128,-1,15
 828 -231 828 -231 743.5 -263.5 c 128,-1,16
 659 -296 659 -296 548 -296 c 0,17,18
 430 -296 430 -296 339.5 -250 c 128,-1,19
 249 -204 249 -204 187.5 -122.5 c 128,-1,20
 126 -41 126 -41 94.5 66 c 128,-1,21
 63 173 63 173 63 295 c 0,22,23
 63 418 63 418 90 519 c 128,-1,24
 117 620 117 620 166 693.5 c 128,-1,25
 215 767 215 767 279.5 808 c 128,-1,26
 344 849 344 849 419 852 c 1,27,28
 482 904 482 904 582 904 c 0,29,30
 640 904 640 904 683 882.5 c 128,-1,31
 726 861 726 861 750 825 c 128,-1,32
 774 789 774 789 774 745 c 0,33,34
 774 720 774 720 763 700 c 128,-1,35
 752 680 752 680 734 664 c 1,36,-1
 871 664 l 1,37,-1
 871 610 l 1,38,-1
 655 610 l 1,39,-1
 640 651 l 1,40,41
 666 671 666 671 678.5 694.5 c 128,-1,42
 691 718 691 718 691 742 c 0,43,44
 691 785 691 785 656 817.5 c 128,-1,45
 621 850 621 850 552 850 c 0,46,47
 523 850 523 850 499 842 c 1,48,49
 546 829 546 829 575.5 796 c 128,-1,50
 605 763 605 763 605 714 c 0,51,52
 605 663 605 663 570 634 c 128,-1,53
 535 605 535 605 482 605 c 0,54,55
 424 605 424 605 392.5 640.5 c 128,-1,56
 361 676 361 676 361 733 c 0,57,58
 361 765 361 765 373 793 c 1,59,60
 325 781 325 781 281 741 c 128,-1,61
 237 701 237 701 201.5 636.5 c 128,-1,62
 166 572 166 572 145.5 486 c 128,-1,63
 125 400 125 400 125 295 c 0,64,65
 125 183 125 183 152 85 c 128,-1,66
 179 -13 179 -13 232 -86.5 c 128,-1,67
 285 -160 285 -160 364 -201.5 c 128,-1,68
 443 -243 443 -243 548 -243 c 0,69,70
 673 -243 673 -243 751 -197 c 128,-1,71
 829 -151 829 -151 865.5 -73 c 128,-1,72
 902 5 902 5 902 102 c 0,73,74
 902 152 902 152 891 194 c 128,-1,75
 880 236 880 236 854.5 261 c 128,-1,76
 829 286 829 286 786 286 c 0,77,78
 741 286 741 286 718 254.5 c 128,-1,79
 695 223 695 223 695 183 c 2,80,-1
 695 0 l 1,81,-1
 601 0 l 1,82,-1
 601 500 l 1,83,-1
 410 500 l 1,84,-1
 410 0 l 1,85,-1
 349 0 l 1,0,-1
420 728 m 0,86,87
 420 701 420 701 432.5 680 c 128,-1,88
 445 659 445 659 472 659 c 0,89,90
 494 659 494 659 508 672.5 c 128,-1,91
 522 686 522 686 522 714 c 0,92,93
 522 728 522 728 514.5 745.5 c 128,-1,94
 507 763 507 763 488.5 777.5 c 128,-1,95
 470 792 470 792 438 796 c 1,96,97
 420 768 420 768 420 728 c 0,86,87
EndSplineSet
Validated: 513
EndChar

StartChar: number-tamil
Encoding: 122 3066 125
Width: 954
GlyphClass: 2
Flags: W
AnchorPoint: "Anchor-6" 413 -181 basechar 0
AnchorPoint: "Anchor-4" 421 0 basechar 0
AnchorPoint: "Anchor-2" 579 554 basechar 0
AnchorPoint: "Anchor-1" 433 554 basechar 0
AnchorPoint: "Anchor-0" 422 554 basechar 0
LayerCount: 2
Fore
SplineSet
187 -249 m 1,0,1
 98 -249 98 -249 98 -179 c 0,2,3
 98 -143 98 -143 121.5 -124 c 128,-1,4
 145 -105 145 -105 183.5 -98 c 128,-1,5
 222 -91 222 -91 266 -91 c 2,6,-1
 374 -91 l 2,7,8
 528 -91 528 -91 600 -40 c 128,-1,9
 672 11 672 11 672 132 c 0,10,11
 672 212 672 212 641.5 249 c 128,-1,12
 611 286 611 286 563 286 c 0,13,14
 518 286 518 286 493.5 254.5 c 128,-1,15
 469 223 469 223 469 183 c 2,16,-1
 469 0 l 1,17,-1
 375 0 l 1,18,-1
 375 500 l 1,19,-1
 184 500 l 1,20,-1
 184 0 l 1,21,-1
 123 0 l 1,22,-1
 123 554 l 1,23,-1
 451 554 l 1,24,25
 394 605 394 605 394 687 c 0,26,27
 394 751 394 751 434 796.5 c 128,-1,28
 474 842 474 842 535 859 c 1,29,30
 561 902 561 902 608.5 927.5 c 128,-1,31
 656 953 656 953 717 953 c 256,32,33
 778 953 778 953 829.5 926.5 c 128,-1,34
 881 900 881 900 912.5 852.5 c 128,-1,35
 944 805 944 805 944 743 c 0,36,37
 944 692 944 692 921 644.5 c 128,-1,38
 898 597 898 597 848 554 c 1,39,-1
 973 554 l 1,40,-1
 973 500 l 1,41,-1
 750 500 l 1,42,-1
 734 542 l 1,43,44
 784 574 784 574 812.5 603.5 c 128,-1,45
 841 633 841 633 853.5 665.5 c 128,-1,46
 866 698 866 698 866 739 c 0,47,48
 866 783 866 783 848 819.5 c 128,-1,49
 830 856 830 856 795.5 877.5 c 128,-1,50
 761 899 761 899 710 899 c 0,51,52
 677 899 677 899 652 890.5 c 128,-1,53
 627 882 627 882 610 868 c 1,54,55
 657 866 657 866 696 848.5 c 128,-1,56
 735 831 735 831 758 798 c 128,-1,57
 781 765 781 765 781 718 c 0,58,59
 781 688 781 688 765 661.5 c 128,-1,60
 749 635 749 635 721.5 618.5 c 128,-1,61
 694 602 694 602 658 602 c 0,62,63
 589 602 589 602 548.5 645.5 c 128,-1,64
 508 689 508 689 508 761 c 0,65,66
 508 777 508 777 510 792 c 1,67,68
 483 776 483 776 467.5 748.5 c 128,-1,69
 452 721 452 721 452 683 c 0,70,71
 452 631 452 631 485 592.5 c 128,-1,72
 518 554 518 554 575 554 c 2,73,-1
 650 554 l 1,74,-1
 650 500 l 1,75,-1
 469 500 l 1,76,-1
 469 272 l 1,77,78
 474 287 474 287 488.5 304 c 128,-1,79
 503 321 503 321 528 333 c 128,-1,80
 553 345 553 345 589 345 c 0,81,82
 639 345 639 345 679.5 322 c 128,-1,83
 720 299 720 299 744 254 c 128,-1,84
 768 209 768 209 768 143 c 0,85,86
 768 66 768 66 739.5 12 c 128,-1,87
 711 -42 711 -42 660.5 -75.5 c 128,-1,88
 610 -109 610 -109 543.5 -124.5 c 128,-1,89
 477 -140 477 -140 401 -140 c 2,90,-1
 300 -140 l 2,91,92
 254 -140 254 -140 229.5 -153 c 128,-1,93
 205 -166 205 -166 196 -190 c 128,-1,94
 187 -214 187 -214 187 -249 c 1,0,1
564 753 m 0,95,96
 564 714 564 714 582 685 c 128,-1,97
 600 656 600 656 639 656 c 0,98,99
 668 656 668 656 685.5 672.5 c 128,-1,100
 703 689 703 689 703 721 c 0,101,102
 703 765 703 765 672 789.5 c 128,-1,103
 641 814 641 814 598 814 c 0,104,105
 585 814 585 814 573 813 c 1,106,107
 564 786 564 786 564 753 c 0,95,96
EndSplineSet
Validated: 1049089
EndChar

StartChar: doubleSvarita-vedic
Encoding: 123 7386 126
Width: 0
GlyphClass: 4
Flags: W
AnchorPoint: "Anchor-9" 0 554 mark 0
AnchorPoint: "Anchor-5" 0 554 mark 0
AnchorPoint: "Anchor-1" 0 554 mark 0
LayerCount: 2
Fore
SplineSet
-82 912 m 1,0,-1
 -82 1107 l 1,1,-1
 -27 1107 l 1,2,-1
 -27 912 l 1,3,-1
 -82 912 l 1,0,-1
27 912 m 1,4,-1
 27 1107 l 1,5,-1
 82 1107 l 1,6,-1
 82 912 l 1,7,-1
 27 912 l 1,4,-1
EndSplineSet
Validated: 513
EndChar

StartChar: zerowidthnonjoiner
Encoding: 125 8204 128
Width: 0
GlyphClass: 2
Flags: W
LayerCount: 2
Fore
SplineSet
-21 -133 m 1,0,-1
 -21 628 l 1,1,-1
 21 628 l 1,2,-1
 21 -133 l 1,3,-1
 -21 -133 l 1,0,-1
EndSplineSet
Validated: 1
EndChar

StartChar: zerowidthjoiner
Encoding: 126 8205 129
Width: 0
GlyphClass: 2
Flags: W
LayerCount: 2
Fore
SplineSet
-21 -133 m 1,0,-1
 -21 535 l 1,1,-1
 -83 473 l 1,2,-1
 -109 500 l 1,3,-1
 -27 582 l 1,4,-1
 -109 663 l 1,5,-1
 -83 690 l 1,6,-1
 0 607 l 1,7,-1
 83 690 l 1,8,-1
 109 663 l 1,9,-1
 27 582 l 1,10,-1
 109 500 l 1,11,-1
 83 473 l 1,12,-1
 21 535 l 1,13,-1
 21 -133 l 1,14,-1
 -21 -133 l 1,0,-1
EndSplineSet
Validated: 1
EndChar

StartChar: endash
Encoding: 128 8211 131
Width: 500
GlyphClass: 2
Flags: W
LayerCount: 2
Fore
SplineSet
-5 239 m 1,0,-1
 -5 298 l 1,1,-1
 505 298 l 1,2,-1
 505 239 l 1,3,-1
 -5 239 l 1,0,-1
EndSplineSet
Validated: 1
EndChar

StartChar: emdash
Encoding: 129 8212 132
Width: 1000
GlyphClass: 2
Flags: W
LayerCount: 2
Fore
SplineSet
-5 239 m 1,0,-1
 -5 298 l 1,1,-1
 1005 298 l 1,2,-1
 1005 239 l 1,3,-1
 -5 239 l 1,0,-1
EndSplineSet
Validated: 1
EndChar

StartChar: quoteleft
Encoding: 130 8216 133
Width: 250
GlyphClass: 2
Flags: W
LayerCount: 2
Fore
SplineSet
133 432 m 0,0,1
 102 432 102 432 79 454.5 c 128,-1,2
 56 477 56 477 56 519 c 0,3,4
 56 583 56 583 93.5 636 c 128,-1,5
 131 689 131 689 220 715 c 1,6,-1
 220 673 l 1,7,8
 125 642 125 642 125 583 c 0,9,10
 125 568 125 568 136 560 c 128,-1,11
 147 552 147 552 161.5 545 c 128,-1,12
 176 538 176 538 187 526 c 128,-1,13
 198 514 198 514 198 491 c 0,14,15
 198 463 198 463 179.5 447.5 c 128,-1,16
 161 432 161 432 133 432 c 0,0,1
EndSplineSet
Validated: 1
EndChar

StartChar: quoteright
Encoding: 131 8217 134
Width: 250
GlyphClass: 2
Flags: W
LayerCount: 2
Fore
SplineSet
30 431 m 1,0,-1
 30 473 l 1,1,2
 125 504 125 504 125 563 c 0,3,4
 125 578 125 578 114 586 c 128,-1,5
 103 594 103 594 88.5 601 c 128,-1,6
 74 608 74 608 63 620 c 128,-1,7
 52 632 52 632 52 655 c 0,8,9
 52 684 52 684 70.5 699 c 128,-1,10
 89 714 89 714 117 714 c 0,11,12
 148 714 148 714 171 691.5 c 128,-1,13
 194 669 194 669 194 627 c 0,14,15
 194 563 194 563 156.5 510 c 128,-1,16
 119 457 119 457 30 431 c 1,0,-1
EndSplineSet
Validated: 1
EndChar

StartChar: quotedblleft
Encoding: 132 8220 135
Width: 450
GlyphClass: 2
Flags: W
LayerCount: 2
Fore
SplineSet
333 432 m 0,0,1
 302 432 302 432 279 454.5 c 128,-1,2
 256 477 256 477 256 519 c 0,3,4
 256 583 256 583 293.5 636 c 128,-1,5
 331 689 331 689 420 715 c 1,6,-1
 420 673 l 1,7,8
 325 642 325 642 325 583 c 0,9,10
 325 568 325 568 336 560 c 128,-1,11
 347 552 347 552 361.5 545 c 128,-1,12
 376 538 376 538 387 526 c 128,-1,13
 398 514 398 514 398 491 c 0,14,15
 398 463 398 463 379.5 447.5 c 128,-1,16
 361 432 361 432 333 432 c 0,0,1
133 432 m 0,17,18
 102 432 102 432 79 454.5 c 128,-1,19
 56 477 56 477 56 519 c 0,20,21
 56 583 56 583 93.5 636 c 128,-1,22
 131 689 131 689 220 715 c 1,23,-1
 220 673 l 1,24,25
 125 642 125 642 125 583 c 0,26,27
 125 568 125 568 136 560 c 128,-1,28
 147 552 147 552 161.5 545 c 128,-1,29
 176 538 176 538 187 526 c 128,-1,30
 198 514 198 514 198 491 c 0,31,32
 198 463 198 463 179.5 447.5 c 128,-1,33
 161 432 161 432 133 432 c 0,17,18
EndSplineSet
Validated: 1
EndChar

StartChar: quotedblright
Encoding: 133 8221 136
Width: 450
GlyphClass: 2
Flags: W
LayerCount: 2
Fore
SplineSet
230 431 m 1,0,-1
 230 473 l 1,1,2
 325 504 325 504 325 563 c 0,3,4
 325 578 325 578 314 586 c 128,-1,5
 303 594 303 594 288.5 601 c 128,-1,6
 274 608 274 608 263 620 c 128,-1,7
 252 632 252 632 252 655 c 0,8,9
 252 684 252 684 270.5 699 c 128,-1,10
 289 714 289 714 317 714 c 0,11,12
 348 714 348 714 371 691.5 c 128,-1,13
 394 669 394 669 394 627 c 0,14,15
 394 563 394 563 356.5 510 c 128,-1,16
 319 457 319 457 230 431 c 1,0,-1
30 431 m 1,17,-1
 30 473 l 1,18,19
 125 504 125 504 125 563 c 0,20,21
 125 578 125 578 114 586 c 128,-1,22
 103 594 103 594 88.5 601 c 128,-1,23
 74 608 74 608 63 620 c 128,-1,24
 52 632 52 632 52 655 c 0,25,26
 52 684 52 684 70.5 699 c 128,-1,27
 89 714 89 714 117 714 c 0,28,29
 148 714 148 714 171 691.5 c 128,-1,30
 194 669 194 669 194 627 c 0,31,32
 194 563 194 563 156.5 510 c 128,-1,33
 119 457 119 457 30 431 c 1,17,-1
EndSplineSet
Validated: 1
EndChar

StartChar: ellipsis
Encoding: 134 8230 137
Width: 858
GlyphClass: 2
Flags: W
LayerCount: 2
Fore
SplineSet
715 -7 m 256,0,1
 689 -7 689 -7 670.5 8 c 128,-1,2
 652 23 652 23 652 61 c 0,3,4
 652 100 652 100 670.5 114.5 c 128,-1,5
 689 129 689 129 715 129 c 256,6,7
 741 129 741 129 759.5 114.5 c 128,-1,8
 778 100 778 100 778 61 c 0,9,10
 778 23 778 23 759.5 8 c 128,-1,11
 741 -7 741 -7 715 -7 c 256,0,1
143 -7 m 256,12,13
 117 -7 117 -7 98.5 8 c 128,-1,14
 80 23 80 23 80 61 c 0,15,16
 80 100 80 100 98.5 114.5 c 128,-1,17
 117 129 117 129 143 129 c 256,18,19
 169 129 169 129 187.5 114.5 c 128,-1,20
 206 100 206 100 206 61 c 0,21,22
 206 23 206 23 187.5 8 c 128,-1,23
 169 -7 169 -7 143 -7 c 256,12,13
429 -7 m 256,24,25
 403 -7 403 -7 384.5 8 c 128,-1,26
 366 23 366 23 366 61 c 0,27,28
 366 100 366 100 384.5 114.5 c 128,-1,29
 403 129 403 129 429 129 c 256,30,31
 455 129 455 129 473.5 114.5 c 128,-1,32
 492 100 492 100 492 61 c 0,33,34
 492 23 492 23 473.5 8 c 128,-1,35
 455 -7 455 -7 429 -7 c 256,24,25
EndSplineSet
Validated: 1
EndChar

StartChar: foursuperior
Encoding: 135 8308 138
Width: 400
GlyphClass: 2
Flags: W
LayerCount: 2
Fore
SplineSet
125 387 m 1,0,-1
 125 421 l 1,1,-1
 153 421 l 2,2,3
 170 421 170 421 182 427.5 c 128,-1,4
 194 434 194 434 194 459 c 2,5,-1
 194 514 l 1,6,-1
 16 514 l 1,7,-1
 16 544 l 1,8,-1
 203 819 l 1,9,-1
 283 819 l 1,10,-1
 283 557 l 1,11,-1
 379 557 l 1,12,-1
 379 514 l 1,13,-1
 283 514 l 1,14,-1
 283 459 l 2,15,16
 283 434 283 434 296 427.5 c 128,-1,17
 309 421 309 421 325 421 c 2,18,-1
 345 421 l 1,19,-1
 345 387 l 1,20,-1
 125 387 l 1,0,-1
75 557 m 1,21,-1
 194 557 l 1,22,-1
 194 670 l 2,23,24
 194 686 194 686 195.5 705.5 c 128,-1,25
 197 725 197 725 199 744 c 1,26,27
 195 736 195 736 190.5 727.5 c 128,-1,28
 186 719 186 719 184 715 c 2,29,-1
 75 557 l 1,21,-1
EndSplineSet
Validated: 1
EndChar

StartChar: rupeeIndian
Encoding: 139 8377 142
Width: 559
GlyphClass: 2
Flags: W
LayerCount: 2
Fore
SplineSet
393 0 m 2,0,1
 331 0 331 0 296 6.5 c 128,-1,2
 261 13 261 13 240 32 c 128,-1,3
 219 51 219 51 197 90 c 2,4,-1
 59 337 l 1,5,-1
 59 365 l 1,6,-1
 142 365 l 2,7,8
 226 365 226 365 266 393.5 c 128,-1,9
 306 422 306 422 311 497 c 1,10,-1
 59 497 l 1,11,-1
 59 544 l 1,12,-1
 311 544 l 1,13,14
 307 610 307 610 271 638.5 c 128,-1,15
 235 667 235 667 157 667 c 2,16,-1
 59 667 l 1,17,-1
 59 714 l 1,18,-1
 530 714 l 1,19,-1
 530 667 l 1,20,-1
 358 667 l 1,21,22
 413 624 413 624 419 544 c 1,23,-1
 530 544 l 1,24,-1
 530 497 l 1,25,-1
 418 497 l 1,26,27
 414 449 414 449 390 409.5 c 128,-1,28
 366 370 366 370 316.5 345.5 c 128,-1,29
 267 321 267 321 184 318 c 1,30,-1
 299 122 l 2,31,32
 323 82 323 82 348 62 c 128,-1,33
 373 42 373 42 404 42 c 2,34,-1
 417 42 l 1,35,-1
 417 0 l 1,36,-1
 393 0 l 2,0,1
EndSplineSet
Validated: 1
EndChar

StartChar: minus
Encoding: 140 8722 143
Width: 559
GlyphClass: 2
Flags: W
LayerCount: 2
Fore
SplineSet
65 328 m 1,0,-1
 65 387 l 1,1,-1
 494 387 l 1,2,-1
 494 328 l 1,3,-1
 65 328 l 1,0,-1
EndSplineSet
Validated: 1
EndChar

StartChar: dottedCircle
Encoding: 141 9676 144
Width: 594
GlyphClass: 2
Flags: W
AnchorPoint: "Anchor-11" 297 0 basechar 0
AnchorPoint: "Anchor-10" 297 554 basechar 0
AnchorPoint: "Anchor-9" 297 304 basechar 0
AnchorPoint: "Anchor-8" 297 554 basechar 0
AnchorPoint: "Anchor-7" 297 300 basechar 0
LayerCount: 2
Fore
SplineSet
297 488 m 0,0,1
 287 488 287 488 279 496 c 128,-1,2
 271 504 271 504 271 514 c 0,3,4
 271 525 271 525 279 532.5 c 128,-1,5
 287 540 287 540 297 540 c 0,6,7
 308 540 308 540 315.5 532.5 c 128,-1,8
 323 525 323 525 323 514 c 0,9,10
 323 504 323 504 315.5 496 c 128,-1,11
 308 488 308 488 297 488 c 0,0,1
381 470 m 0,12,13
 371 470 371 470 363 478 c 128,-1,14
 355 486 355 486 355 496 c 0,15,16
 355 507 355 507 363 514.5 c 128,-1,17
 371 522 371 522 381 522 c 0,18,19
 392 522 392 522 399.5 514.5 c 128,-1,20
 407 507 407 507 407 496 c 0,21,22
 407 486 407 486 399.5 478 c 128,-1,23
 392 470 392 470 381 470 c 0,12,13
213 470 m 0,24,25
 203 470 203 470 195 478 c 128,-1,26
 187 486 187 486 187 496 c 0,27,28
 187 507 187 507 195 514.5 c 128,-1,29
 203 522 203 522 213 522 c 0,30,31
 224 522 224 522 231.5 514.5 c 128,-1,32
 239 507 239 507 239 496 c 0,33,34
 239 486 239 486 231.5 478 c 128,-1,35
 224 470 224 470 213 470 c 0,24,25
139 423 m 0,36,37
 129 423 129 423 121 431 c 128,-1,38
 113 439 113 439 113 449 c 0,39,40
 113 460 113 460 121 467.5 c 128,-1,41
 129 475 129 475 139 475 c 0,42,43
 150 475 150 475 157.5 467.5 c 128,-1,44
 165 460 165 460 165 449 c 0,45,46
 165 439 165 439 157.5 431 c 128,-1,47
 150 423 150 423 139 423 c 0,36,37
455 423 m 0,48,49
 445 423 445 423 437 431 c 128,-1,50
 429 439 429 439 429 449 c 0,51,52
 429 460 429 460 437 467.5 c 128,-1,53
 445 475 445 475 455 475 c 0,54,55
 466 475 466 475 473.5 467.5 c 128,-1,56
 481 460 481 460 481 449 c 0,57,58
 481 439 481 439 473.5 431 c 128,-1,59
 466 423 466 423 455 423 c 0,48,49
92 349 m 0,60,61
 82 349 82 349 74 357 c 128,-1,62
 66 365 66 365 66 375 c 0,63,64
 66 386 66 386 74 393.5 c 128,-1,65
 82 401 82 401 92 401 c 0,66,67
 103 401 103 401 110.5 393.5 c 128,-1,68
 118 386 118 386 118 375 c 0,69,70
 118 365 118 365 110.5 357 c 128,-1,71
 103 349 103 349 92 349 c 0,60,61
502 349 m 0,72,73
 492 349 492 349 484 357 c 128,-1,74
 476 365 476 365 476 375 c 0,75,76
 476 386 476 386 484 393.5 c 128,-1,77
 492 401 492 401 502 401 c 0,78,79
 513 401 513 401 520.5 393.5 c 128,-1,80
 528 386 528 386 528 375 c 0,81,82
 528 365 528 365 520.5 357 c 128,-1,83
 513 349 513 349 502 349 c 0,72,73
74 265 m 0,84,85
 64 265 64 265 56 273 c 128,-1,86
 48 281 48 281 48 291 c 0,87,88
 48 302 48 302 56 309.5 c 128,-1,89
 64 317 64 317 74 317 c 0,90,91
 85 317 85 317 92.5 309.5 c 128,-1,92
 100 302 100 302 100 291 c 0,93,94
 100 281 100 281 92.5 273 c 128,-1,95
 85 265 85 265 74 265 c 0,84,85
520 265 m 0,96,97
 510 265 510 265 502 273 c 128,-1,98
 494 281 494 281 494 291 c 0,99,100
 494 302 494 302 502 309.5 c 128,-1,101
 510 317 510 317 520 317 c 0,102,103
 531 317 531 317 538.5 309.5 c 128,-1,104
 546 302 546 302 546 291 c 0,105,106
 546 281 546 281 538.5 273 c 128,-1,107
 531 265 531 265 520 265 c 0,96,97
92 181 m 0,108,109
 82 181 82 181 74 189 c 128,-1,110
 66 197 66 197 66 207 c 0,111,112
 66 218 66 218 74 225.5 c 128,-1,113
 82 233 82 233 92 233 c 0,114,115
 103 233 103 233 110.5 225.5 c 128,-1,116
 118 218 118 218 118 207 c 0,117,118
 118 197 118 197 110.5 189 c 128,-1,119
 103 181 103 181 92 181 c 0,108,109
502 181 m 0,120,121
 492 181 492 181 484 189 c 128,-1,122
 476 197 476 197 476 207 c 0,123,124
 476 218 476 218 484 225.5 c 128,-1,125
 492 233 492 233 502 233 c 0,126,127
 513 233 513 233 520.5 225.5 c 128,-1,128
 528 218 528 218 528 207 c 0,129,130
 528 197 528 197 520.5 189 c 128,-1,131
 513 181 513 181 502 181 c 0,120,121
139 107 m 0,132,133
 129 107 129 107 121 115 c 128,-1,134
 113 123 113 123 113 133 c 0,135,136
 113 144 113 144 121 151.5 c 128,-1,137
 129 159 129 159 139 159 c 0,138,139
 150 159 150 159 157.5 151.5 c 128,-1,140
 165 144 165 144 165 133 c 0,141,142
 165 123 165 123 157.5 115 c 128,-1,143
 150 107 150 107 139 107 c 0,132,133
455 107 m 0,144,145
 445 107 445 107 437 115 c 128,-1,146
 429 123 429 123 429 133 c 0,147,148
 429 144 429 144 437 151.5 c 128,-1,149
 445 159 445 159 455 159 c 0,150,151
 466 159 466 159 473.5 151.5 c 128,-1,152
 481 144 481 144 481 133 c 0,153,154
 481 123 481 123 473.5 115 c 128,-1,155
 466 107 466 107 455 107 c 0,144,145
213 60 m 0,156,157
 203 60 203 60 195 68 c 128,-1,158
 187 76 187 76 187 86 c 0,159,160
 187 97 187 97 195 104.5 c 128,-1,161
 203 112 203 112 213 112 c 0,162,163
 224 112 224 112 231.5 104.5 c 128,-1,164
 239 97 239 97 239 86 c 0,165,166
 239 76 239 76 231.5 68 c 128,-1,167
 224 60 224 60 213 60 c 0,156,157
381 60 m 0,168,169
 371 60 371 60 363 68 c 128,-1,170
 355 76 355 76 355 86 c 0,171,172
 355 97 355 97 363 104.5 c 128,-1,173
 371 112 371 112 381 112 c 0,174,175
 392 112 392 112 399.5 104.5 c 128,-1,176
 407 97 407 97 407 86 c 0,177,178
 407 76 407 76 399.5 68 c 128,-1,179
 392 60 392 60 381 60 c 0,168,169
297 42 m 0,180,181
 287 42 287 42 279 50 c 128,-1,182
 271 58 271 58 271 68 c 0,183,184
 271 79 271 79 279 86.5 c 128,-1,185
 287 94 287 94 297 94 c 0,186,187
 308 94 308 94 315.5 86.5 c 128,-1,188
 323 79 323 79 323 68 c 0,189,190
 323 58 323 58 315.5 50 c 128,-1,191
 308 42 308 42 297 42 c 0,180,181
EndSplineSet
Validated: 1
EndChar

StartChar: candrabinduhalant-deva
Encoding: 142 43251 145
Width: 484
GlyphClass: 4
Flags: W
LayerCount: 2
Fore
SplineSet
236 478 m 0,0,1
 218 478 218 478 205.5 488 c 128,-1,2
 193 498 193 498 193 524 c 0,3,4
 193 551 193 551 205.5 560.5 c 128,-1,5
 218 570 218 570 236 570 c 0,6,7
 253 570 253 570 266 560.5 c 128,-1,8
 279 551 279 551 279 524 c 0,9,10
 279 498 279 498 266 488 c 128,-1,11
 253 478 253 478 236 478 c 0,0,1
247 362 m 0,12,13
 208 362 208 362 168 382 c 128,-1,14
 128 402 128 402 97.5 440.5 c 128,-1,15
 67 479 67 479 54 534 c 1,16,-1
 89 546 l 1,17,18
 109 491 109 491 145 457 c 128,-1,19
 181 423 181 423 240 423 c 0,20,21
 290 423 290 423 323.5 454 c 128,-1,22
 357 485 357 485 370 557 c 1,23,-1
 436 539 l 1,24,25
 420 448 420 448 367.5 405 c 128,-1,26
 315 362 315 362 247 362 c 0,12,13
401 67 m 1,27,28
 348 130 348 130 314.5 160 c 128,-1,29
 281 190 281 190 257.5 199 c 128,-1,30
 234 208 234 208 211 208 c 0,31,32
 177 208 177 208 150 200 c 1,33,-1
 127 270 l 1,34,35
 136 272 136 272 153 274.5 c 128,-1,36
 170 277 170 277 187 277 c 0,37,38
 218 277 218 277 242.5 269.5 c 128,-1,39
 267 262 267 262 292.5 241.5 c 128,-1,40
 318 221 318 221 351 182.5 c 128,-1,41
 384 144 384 144 432 83 c 1,42,-1
 401 67 l 1,27,28
EndSplineSet
Validated: 513
EndChar

StartChar: NameMe.222
Encoding: 143 63743 146
Width: 1379
GlyphClass: 2
Flags: W
LayerCount: 2
Fore
SplineSet
279 -4 m 0,0,1
 223 -4 223 -4 172.5 23 c 128,-1,2
 122 50 122 50 90.5 103 c 128,-1,3
 59 156 59 156 59 234 c 0,4,5
 59 337 59 337 105.5 409.5 c 128,-1,6
 152 482 152 482 233 520.5 c 128,-1,7
 314 559 314 559 417 559 c 0,8,9
 489 559 489 559 552 538 c 128,-1,10
 615 517 615 517 662.5 477.5 c 128,-1,11
 710 438 710 438 737 383.5 c 128,-1,12
 764 329 764 329 764 261 c 0,13,14
 764 188 764 188 736 137 c 128,-1,15
 708 86 708 86 676 54 c 1,16,-1
 1360 54 l 1,17,-1
 1360 0 l 1,18,-1
 605 0 l 1,19,-1
 587 43 l 1,20,21
 619 73 619 73 643.5 125 c 128,-1,22
 668 177 668 177 668 257 c 0,23,24
 668 330 668 330 633 385.5 c 128,-1,25
 598 441 598 441 538.5 473 c 128,-1,26
 479 505 479 505 404 505 c 0,27,28
 318 505 318 505 253.5 472.5 c 128,-1,29
 189 440 189 440 153 378.5 c 128,-1,30
 117 317 117 317 117 231 c 0,31,32
 117 192 117 192 127 160 c 1,33,34
 143 224 143 224 193 264 c 128,-1,35
 243 304 243 304 307 304 c 0,36,37
 378 304 378 304 418.5 261.5 c 128,-1,38
 459 219 459 219 459 150 c 0,39,40
 459 83 459 83 409.5 39.5 c 128,-1,41
 360 -4 360 -4 279 -4 c 0,0,1
270 236 m 0,42,43
 224 236 224 236 191.5 202.5 c 128,-1,44
 159 169 159 169 152 107 c 1,45,46
 173 78 173 78 202 63.5 c 128,-1,47
 231 49 231 49 262 49 c 0,48,49
 312 49 312 49 339.5 77.5 c 128,-1,50
 367 106 367 106 367 146 c 0,51,52
 367 180 367 180 344 208 c 128,-1,53
 321 236 321 236 270 236 c 0,42,43
EndSplineSet
Validated: 1
EndChar

StartChar: u11301
Encoding: 144 70401 147
Width: 0
GlyphClass: 4
Flags: W
AnchorPoint: "Anchor-9" 0 554 mark 0
AnchorPoint: "Anchor-5" 0 554 mark 0
AnchorPoint: "Anchor-1" 0 554 mark 0
LayerCount: 2
Fore
SplineSet
5 1006 m 256,0,1
 -17 1006 -17 1006 -31 1020 c 128,-1,2
 -45 1034 -45 1034 -45 1057 c 0,3,4
 -45 1078 -45 1078 -31 1092.5 c 128,-1,5
 -17 1107 -17 1107 5 1107 c 256,6,7
 27 1107 27 1107 41.5 1092.5 c 128,-1,8
 56 1078 56 1078 56 1057 c 0,9,10
 56 1034 56 1034 41.5 1020 c 128,-1,11
 27 1006 27 1006 5 1006 c 256,0,1
11 901 m 0,12,13
 -64 901 -64 901 -105.5 919.5 c 128,-1,14
 -147 938 -147 938 -163 966 c 128,-1,15
 -179 994 -179 994 -179 1023 c 0,16,17
 -179 1058 -179 1058 -159.5 1077 c 128,-1,18
 -140 1096 -140 1096 -116 1096 c 0,19,20
 -106 1096 -106 1096 -95 1092 c 1,21,22
 -102 1072 -102 1072 -102 1051 c 0,23,24
 -102 1007 -102 1007 -74.5 983 c 128,-1,25
 -47 959 -47 959 10 959 c 0,26,27
 61 959 61 959 90.5 980.5 c 128,-1,28
 120 1002 120 1002 120 1047 c 0,29,30
 120 1072 120 1072 110 1092 c 1,31,32
 119 1095 119 1095 129 1095 c 0,33,34
 155 1095 155 1095 167.5 1074.5 c 128,-1,35
 180 1054 180 1054 180 1029 c 0,36,37
 180 974 180 974 136.5 937.5 c 128,-1,38
 93 901 93 901 11 901 c 0,12,13
EndSplineSet
Validated: 1
EndChar

StartChar: visarga-grantha
Encoding: 145 70403 148
Width: 262
GlyphClass: 2
Flags: W
LayerCount: 2
Fore
SplineSet
136 322 m 256,0,1
 83 322 83 322 49 354.5 c 128,-1,2
 15 387 15 387 15 440 c 256,3,4
 15 493 15 493 49 525.5 c 128,-1,5
 83 558 83 558 136 558 c 256,6,7
 189 558 189 558 223 525.5 c 128,-1,8
 257 493 257 493 257 440 c 256,9,10
 257 387 257 387 223 354.5 c 128,-1,11
 189 322 189 322 136 322 c 256,0,1
136 375 m 0,12,13
 163 375 163 375 180.5 393.5 c 128,-1,14
 198 412 198 412 198 440 c 0,15,16
 198 469 198 469 180.5 486.5 c 128,-1,17
 163 504 163 504 136 504 c 0,18,19
 108 504 108 504 90.5 486.5 c 128,-1,20
 73 469 73 469 73 440 c 0,21,22
 73 412 73 412 90.5 393.5 c 128,-1,23
 108 375 108 375 136 375 c 0,12,13
136 -4 m 256,24,25
 83 -4 83 -4 49 28.5 c 128,-1,26
 15 61 15 61 15 114 c 256,27,28
 15 167 15 167 49 199.5 c 128,-1,29
 83 232 83 232 136 232 c 256,30,31
 189 232 189 232 223 199.5 c 128,-1,32
 257 167 257 167 257 114 c 256,33,34
 257 61 257 61 223 28.5 c 128,-1,35
 189 -4 189 -4 136 -4 c 256,24,25
136 49 m 0,36,37
 163 49 163 49 180.5 67.5 c 128,-1,38
 198 86 198 86 198 114 c 0,39,40
 198 143 198 143 180.5 160.5 c 128,-1,41
 163 178 163 178 136 178 c 0,42,43
 108 178 108 178 90.5 160.5 c 128,-1,44
 73 143 73 143 73 114 c 0,45,46
 73 86 73 86 90.5 67.5 c 128,-1,47
 108 49 108 49 136 49 c 0,36,37
EndSplineSet
Validated: 513
EndChar

StartChar: u1133B
Encoding: 146 70459 149
Width: 0
GlyphClass: 4
Flags: W
AnchorPoint: "Anchor-11" 0 0 mark 0
AnchorPoint: "Anchor-6" 0 0 mark 0
LayerCount: 2
Fore
SplineSet
0 -182 m 0,0,1
 -25 -182 -25 -182 -43 -164 c 128,-1,2
 -61 -146 -61 -146 -61 -122 c 256,3,4
 -61 -98 -61 -98 -43 -80 c 128,-1,5
 -25 -62 -25 -62 0 -62 c 0,6,7
 26 -62 26 -62 43.5 -80 c 128,-1,8
 61 -98 61 -98 61 -122 c 256,9,10
 61 -146 61 -146 43.5 -164 c 128,-1,11
 26 -182 26 -182 0 -182 c 0,0,1
EndSplineSet
Validated: 1
EndChar

StartChar: nukta-grantha
Encoding: 147 70460 150
Width: 0
GlyphClass: 4
Flags: W
AnchorPoint: "Anchor-11" 0 0 mark 0
AnchorPoint: "Anchor-6" 0 0 mark 0
LayerCount: 2
Fore
SplineSet
-112 -182 m 0,0,1
 -137 -182 -137 -182 -155 -164 c 128,-1,2
 -173 -146 -173 -146 -173 -122 c 256,3,4
 -173 -98 -173 -98 -155 -80 c 128,-1,5
 -137 -62 -137 -62 -112 -62 c 0,6,7
 -86 -62 -86 -62 -68.5 -80 c 128,-1,8
 -51 -98 -51 -98 -51 -122 c 256,9,10
 -51 -146 -51 -146 -68.5 -164 c 128,-1,11
 -86 -182 -86 -182 -112 -182 c 0,0,1
112 -182 m 0,12,13
 87 -182 87 -182 69 -164 c 128,-1,14
 51 -146 51 -146 51 -122 c 256,15,16
 51 -98 51 -98 69 -80 c 128,-1,17
 87 -62 87 -62 112 -62 c 0,18,19
 138 -62 138 -62 155.5 -80 c 128,-1,20
 173 -98 173 -98 173 -122 c 256,21,22
 173 -146 173 -146 155.5 -164 c 128,-1,23
 138 -182 138 -182 112 -182 c 0,12,13
EndSplineSet
Validated: 513
EndChar

StartChar: anusvara-tamil.alt
Encoding: 151 -1 151
Width: 0
GlyphClass: 4
Flags: W
AnchorPoint: "Anchor-8" 0 424 mark 0
AnchorPoint: "Anchor-3" 0 424 mark 0
AnchorPoint: "Anchor-0" 0 424 mark 0
LayerCount: 2
Fore
SplineSet
0 633 m 0,0,1
 -52 633 -52 633 -86.5 666 c 128,-1,2
 -121 699 -121 699 -121 751 c 0,3,4
 -121 804 -121 804 -86.5 837 c 128,-1,5
 -52 870 -52 870 0 870 c 0,6,7
 53 870 53 870 87 837 c 128,-1,8
 121 804 121 804 121 751 c 0,9,10
 121 699 121 699 87 666 c 128,-1,11
 53 633 53 633 0 633 c 0,0,1
0 687 m 256,12,13
 28 687 28 687 45.5 705 c 128,-1,14
 63 723 63 723 63 751 c 0,15,16
 63 780 63 780 45.5 798 c 128,-1,17
 28 816 28 816 0 816 c 256,18,19
 -28 816 -28 816 -45.5 798 c 128,-1,20
 -63 780 -63 780 -63 751 c 0,21,22
 -63 723 -63 723 -45.5 705 c 128,-1,23
 -28 687 -28 687 0 687 c 256,12,13
EndSplineSet
Validated: 513
EndChar

StartChar: cii-tamil
Encoding: 154 -1 154
Width: 733
GlyphClass: 2
Flags: W
AnchorPoint: "Anchor-6" 378 0 basechar 0
AnchorPoint: "Anchor-4" 384 0 basechar 0
AnchorPoint: "Anchor-1" 376 554 basechar 0
AnchorPoint: "Anchor-0" 625 882 basechar 0
LayerCount: 2
Fore
SplineSet
278 -4 m 0,0,1
 219 -4 219 -4 170 16 c 128,-1,2
 121 36 121 36 92 73 c 128,-1,3
 63 110 63 110 63 162 c 0,4,5
 63 220 63 220 98 259.5 c 128,-1,6
 133 299 133 299 195 312 c 1,7,-1
 195 554 l 1,8,-1
 455 554 l 1,9,10
 428 578 428 578 412.5 611 c 128,-1,11
 397 644 397 644 397 685 c 0,12,13
 397 743 397 743 425.5 787 c 128,-1,14
 454 831 454 831 505.5 856.5 c 128,-1,15
 557 882 557 882 625 882 c 0,16,17
 720 882 720 882 775 838.5 c 128,-1,18
 830 795 830 795 830 725 c 0,19,20
 830 673 830 673 789 637.5 c 128,-1,21
 748 602 748 602 683 602 c 0,22,23
 607 602 607 602 567 642.5 c 128,-1,24
 527 683 527 683 527 743 c 0,25,26
 527 779 527 779 541 815 c 1,27,28
 498 798 498 798 476.5 764 c 128,-1,29
 455 730 455 730 455 684 c 0,30,31
 455 644 455 644 473.5 615 c 128,-1,32
 492 586 492 586 522.5 570 c 128,-1,33
 553 554 553 554 589 554 c 2,34,-1
 689 554 l 1,35,-1
 689 500 l 1,36,-1
 514 500 l 1,37,-1
 514 317 l 1,38,-1
 689 317 l 1,39,-1
 689 263 l 1,40,-1
 514 263 l 1,41,-1
 514 200 l 2,42,43
 514 140 514 140 486 94 c 128,-1,44
 458 48 458 48 405.5 22 c 128,-1,45
 353 -4 353 -4 278 -4 c 0,0,1
576 754 m 0,46,47
 576 712 576 712 599.5 684 c 128,-1,48
 623 656 623 656 669 656 c 0,49,50
 703 656 703 656 725 677 c 128,-1,51
 747 698 747 698 747 730 c 0,52,53
 747 777 747 777 712 802.5 c 128,-1,54
 677 828 677 828 621 828 c 0,55,56
 605 828 605 828 591 826 c 1,57,58
 576 789 576 789 576 754 c 0,46,47
419 500 m 1,59,-1
 256 500 l 1,60,-1
 256 317 l 1,61,-1
 419 317 l 1,62,-1
 419 500 l 1,59,-1
270 49 m 0,63,64
 311 49 311 49 344.5 63.5 c 128,-1,65
 378 78 378 78 398.5 109 c 128,-1,66
 419 140 419 140 419 189 c 2,67,-1
 419 263 l 1,68,-1
 259 263 l 2,69,70
 195 263 195 263 160 235 c 128,-1,71
 125 207 125 207 125 160 c 0,72,73
 125 103 125 103 167 76 c 128,-1,74
 209 49 209 49 270 49 c 0,63,64
EndSplineSet
Validated: 1049089
Ligature2: "'psts' Post Base Substitutions lookup 7 subtable" ca-tamil iiMatra-tamil
EndChar

StartChar: cu-tamil
Encoding: 155 -1 155
Width: 880
GlyphClass: 2
Flags: W
AnchorPoint: "Anchor-6" 440 0 basechar 0
AnchorPoint: "Anchor-4" 440 0 basechar 0
AnchorPoint: "Anchor-1" 462 554 basechar 0
AnchorPoint: "Anchor-0" 447 554 basechar 0
LayerCount: 2
Fore
SplineSet
278 -4 m 0,0,1
 219 -4 219 -4 170 16 c 128,-1,2
 121 36 121 36 92 73 c 128,-1,3
 63 110 63 110 63 162 c 0,4,5
 63 220 63 220 98 259.5 c 128,-1,6
 133 299 133 299 195 312 c 1,7,-1
 195 554 l 1,8,-1
 689 554 l 1,9,-1
 689 500 l 1,10,-1
 514 500 l 1,11,-1
 514 317 l 1,12,-1
 860 317 l 1,13,-1
 860 263 l 1,14,-1
 738 263 l 1,15,-1
 738 0 l 1,16,-1
 646 0 l 1,17,-1
 646 263 l 1,18,-1
 514 263 l 1,19,-1
 514 200 l 2,20,21
 514 140 514 140 486 94 c 128,-1,22
 458 48 458 48 405.5 22 c 128,-1,23
 353 -4 353 -4 278 -4 c 0,0,1
419 500 m 1,24,-1
 256 500 l 1,25,-1
 256 317 l 1,26,-1
 419 317 l 1,27,-1
 419 500 l 1,24,-1
270 49 m 0,28,29
 311 49 311 49 344.5 63.5 c 128,-1,30
 378 78 378 78 398.5 109 c 128,-1,31
 419 140 419 140 419 189 c 2,32,-1
 419 263 l 1,33,-1
 259 263 l 2,34,35
 195 263 195 263 160 235 c 128,-1,36
 125 207 125 207 125 160 c 0,37,38
 125 103 125 103 167 76 c 128,-1,39
 209 49 209 49 270 49 c 0,28,29
EndSplineSet
Validated: 1049089
Ligature2: "'psts' Post Base Substitutions lookup 7 subtable" ca-tamil uMatra-tamil
EndChar

StartChar: cuu-tamil
Encoding: 156 -1 156
Width: 1188
GlyphClass: 2
Flags: W
AnchorPoint: "Anchor-6" 627 -296 basechar 0
AnchorPoint: "Anchor-4" 627 0 basechar 0
AnchorPoint: "Anchor-1" 597 554 basechar 0
AnchorPoint: "Anchor-0" 645 554 basechar 0
LayerCount: 2
Fore
SplineSet
456 -4 m 0,0,1
 397 -4 397 -4 348 16 c 128,-1,2
 299 36 299 36 270.5 73.5 c 128,-1,3
 242 111 242 111 242 162 c 0,4,5
 242 220 242 220 277 259.5 c 128,-1,6
 312 299 312 299 373 312 c 1,7,-1
 373 554 l 1,8,-1
 868 554 l 1,9,-1
 868 500 l 1,10,-1
 692 500 l 1,11,-1
 692 317 l 1,12,-1
 1039 317 l 1,13,-1
 1039 263 l 1,14,-1
 917 263 l 1,15,-1
 917 148 l 1,16,17
 947 181 947 181 1003 181 c 0,18,19
 1035 181 1035 181 1064 165 c 128,-1,20
 1093 149 1093 149 1111.5 115.5 c 128,-1,21
 1130 82 1130 82 1130 31 c 0,22,23
 1130 -70 1130 -70 1067 -143.5 c 128,-1,24
 1004 -217 1004 -217 891 -256.5 c 128,-1,25
 778 -296 778 -296 627 -296 c 0,26,27
 499 -296 499 -296 395 -263 c 128,-1,28
 291 -230 291 -230 217 -168.5 c 128,-1,29
 143 -107 143 -107 103 -22 c 128,-1,30
 63 63 63 63 63 168 c 0,31,32
 63 252 63 252 100 334.5 c 128,-1,33
 137 417 137 417 213 487 c 1,34,-1
 252 446 l 1,35,36
 188 389 188 389 156.5 317 c 128,-1,37
 125 245 125 245 125 170 c 0,38,39
 125 45 125 45 185 -46 c 128,-1,40
 245 -137 245 -137 355.5 -186 c 128,-1,41
 466 -235 466 -235 618 -235 c 0,42,43
 817 -235 817 -235 927 -168.5 c 128,-1,44
 1037 -102 1037 -102 1037 32 c 0,45,46
 1037 82 1037 82 1020.5 101.5 c 128,-1,47
 1004 121 1004 121 976 121 c 256,48,49
 948 121 948 121 932.5 104 c 128,-1,50
 917 87 917 87 917 62 c 2,51,-1
 917 0 l 1,52,-1
 824 0 l 1,53,-1
 824 263 l 1,54,-1
 692 263 l 1,55,-1
 692 200 l 2,56,57
 692 140 692 140 664 94 c 128,-1,58
 636 48 636 48 583.5 22 c 128,-1,59
 531 -4 531 -4 456 -4 c 0,0,1
597 500 m 1,60,-1
 434 500 l 1,61,-1
 434 317 l 1,62,-1
 597 317 l 1,63,-1
 597 500 l 1,60,-1
448 49 m 0,64,65
 489 49 489 49 522.5 63.5 c 128,-1,66
 556 78 556 78 576.5 109 c 128,-1,67
 597 140 597 140 597 189 c 2,68,-1
 597 263 l 1,69,-1
 437 263 l 2,70,71
 373 263 373 263 338 235 c 128,-1,72
 303 207 303 207 303 160 c 0,73,74
 303 103 303 103 345.5 76 c 128,-1,75
 388 49 388 49 448 49 c 0,64,65
EndSplineSet
Validated: 1049089
Ligature2: "'psts' Post Base Substitutions lookup 7 subtable" ca-tamil uuMatra-tamil
EndChar

StartChar: hii-tamil
Encoding: 157 -1 157
Width: 1663
GlyphClass: 2
Flags: W
AnchorPoint: "Anchor-6" 832 -152 basechar 0
AnchorPoint: "Anchor-4" 832 0 basechar 0
AnchorPoint: "Anchor-1" 829 554 basechar 0
AnchorPoint: "Anchor-0" 1496 882 basechar 0
LayerCount: 2
Fore
SplineSet
221 -258 m 1,0,1
 178 -258 178 -258 155 -241.5 c 128,-1,2
 132 -225 132 -225 132 -188 c 0,3,4
 132 -152 132 -152 155.5 -132.5 c 128,-1,5
 179 -113 179 -113 217.5 -105.5 c 128,-1,6
 256 -98 256 -98 300 -98 c 2,7,-1
 1078 -98 l 2,8,9
 1223 -98 1223 -98 1317 -68 c 128,-1,10
 1411 -38 1411 -38 1457.5 36.5 c 128,-1,11
 1504 111 1504 111 1504 242 c 0,12,13
 1504 345 1504 345 1482.5 402 c 128,-1,14
 1461 459 1461 459 1426.5 482 c 128,-1,15
 1392 505 1392 505 1354 505 c 0,16,17
 1306 505 1306 505 1270.5 474.5 c 128,-1,18
 1235 444 1235 444 1235 389 c 2,19,-1
 1235 0 l 1,20,-1
 1140 0 l 1,21,-1
 1140 390 l 2,22,23
 1140 441 1140 441 1116 472.5 c 128,-1,24
 1092 504 1092 504 1046 504 c 0,25,26
 1006 504 1006 504 980.5 478.5 c 128,-1,27
 955 453 955 453 955 403 c 2,28,-1
 955 0 l 1,29,-1
 605 0 l 1,30,-1
 587 43 l 1,31,32
 619 73 619 73 643.5 125 c 128,-1,33
 668 177 668 177 668 257 c 0,34,35
 668 330 668 330 633 385.5 c 128,-1,36
 598 441 598 441 538.5 473 c 128,-1,37
 479 505 479 505 404 505 c 0,38,39
 318 505 318 505 253.5 472.5 c 128,-1,40
 189 440 189 440 153 378.5 c 128,-1,41
 117 317 117 317 117 231 c 0,42,43
 117 192 117 192 127 160 c 1,44,45
 143 224 143 224 193 264 c 128,-1,46
 243 304 243 304 307 304 c 0,47,48
 378 304 378 304 418.5 261.5 c 128,-1,49
 459 219 459 219 459 150 c 0,50,51
 459 83 459 83 409.5 39.5 c 128,-1,52
 360 -4 360 -4 279 -4 c 0,53,54
 223 -4 223 -4 172.5 23 c 128,-1,55
 122 50 122 50 90.5 103 c 128,-1,56
 59 156 59 156 59 234 c 0,57,58
 59 337 59 337 105.5 409.5 c 128,-1,59
 152 482 152 482 233 520.5 c 128,-1,60
 314 559 314 559 417 559 c 0,61,62
 489 559 489 559 552 538 c 128,-1,63
 615 517 615 517 662.5 477.5 c 128,-1,64
 710 438 710 438 737 383.5 c 128,-1,65
 764 329 764 329 764 261 c 0,66,67
 764 188 764 188 736 137 c 128,-1,68
 708 86 708 86 676 54 c 1,69,-1
 894 54 l 1,70,-1
 894 403 l 2,71,72
 894 454 894 454 915 488.5 c 128,-1,73
 936 523 936 523 971 540.5 c 128,-1,74
 1006 558 1006 558 1047 558 c 256,75,76
 1088 558 1088 558 1115.5 543.5 c 128,-1,77
 1143 529 1143 529 1159 508.5 c 128,-1,78
 1175 488 1175 488 1181 471 c 1,79,80
 1194 495 1194 495 1231.5 522.5 c 128,-1,81
 1269 550 1269 550 1326 557 c 1,82,83
 1299 580 1299 580 1283.5 612 c 128,-1,84
 1268 644 1268 644 1268 685 c 0,85,86
 1268 743 1268 743 1297 787 c 128,-1,87
 1326 831 1326 831 1377.5 856.5 c 128,-1,88
 1429 882 1429 882 1496 882 c 0,89,90
 1591 882 1591 882 1646 838.5 c 128,-1,91
 1701 795 1701 795 1701 725 c 0,92,93
 1701 673 1701 673 1660 637.5 c 128,-1,94
 1619 602 1619 602 1554 602 c 0,95,96
 1478 602 1478 602 1438 642.5 c 128,-1,97
 1398 683 1398 683 1398 743 c 0,98,99
 1398 779 1398 779 1412 815 c 1,100,101
 1369 798 1369 798 1347.5 764 c 128,-1,102
 1326 730 1326 730 1326 684 c 0,103,104
 1326 631 1326 631 1351.5 599.5 c 128,-1,105
 1377 568 1377 568 1425 550 c 1,106,107
 1491 532 1491 532 1529.5 482 c 128,-1,108
 1568 432 1568 432 1584 365.5 c 128,-1,109
 1600 299 1600 299 1600 231 c 0,110,111
 1600 91 1600 91 1538.5 6.5 c 128,-1,112
 1477 -78 1477 -78 1364 -115 c 128,-1,113
 1251 -152 1251 -152 1094 -152 c 2,114,-1
 334 -152 l 2,115,116
 288 -152 288 -152 263.5 -164.5 c 128,-1,117
 239 -177 239 -177 230 -200.5 c 128,-1,118
 221 -224 221 -224 221 -258 c 1,0,1
1448 754 m 0,119,120
 1448 712 1448 712 1471 684 c 128,-1,121
 1494 656 1494 656 1540 656 c 0,122,123
 1574 656 1574 656 1596 677 c 128,-1,124
 1618 698 1618 698 1618 730 c 0,125,126
 1618 777 1618 777 1583 802.5 c 128,-1,127
 1548 828 1548 828 1492 828 c 0,128,129
 1477 828 1477 828 1463 827 c 1,130,131
 1448 788 1448 788 1448 754 c 0,119,120
270 236 m 0,132,133
 224 236 224 236 191.5 202.5 c 128,-1,134
 159 169 159 169 152 107 c 1,135,136
 173 78 173 78 202 63.5 c 128,-1,137
 231 49 231 49 262 49 c 0,138,139
 312 49 312 49 339.5 77.5 c 128,-1,140
 367 106 367 106 367 146 c 0,141,142
 367 180 367 180 344 208 c 128,-1,143
 321 236 321 236 270 236 c 0,132,133
EndSplineSet
Validated: 1049089
Ligature2: "'psts' Post Base Substitutions lookup 7 subtable" ha-tamil iiMatra-tamil
EndChar

StartChar: iMatra-tamil.alt01
Encoding: 158 -1 158
Width: 232
GlyphClass: 4
Flags: W
LayerCount: 2
Fore
SplineSet
73 0 m 1,0,-1
 73 540 l 2,1,2
 73 604 73 604 55.5 644.5 c 128,-1,3
 38 685 38 685 10.5 707 c 128,-1,4
 -17 729 -17 729 -49.5 737.5 c 128,-1,5
 -82 746 -82 746 -112 746 c 0,6,7
 -153 746 -153 746 -187 733 c 128,-1,8
 -221 720 -221 720 -241.5 694.5 c 128,-1,9
 -262 669 -262 669 -262 630 c 0,10,11
 -262 602 -262 602 -247.5 577.5 c 128,-1,12
 -233 553 -233 553 -199 536 c 1,13,-1
 -224 504 l 1,14,15
 -271 530 -271 530 -298.5 564 c 128,-1,16
 -326 598 -326 598 -326 647 c 0,17,18
 -326 703 -326 703 -297.5 745 c 128,-1,19
 -269 787 -269 787 -221 810.5 c 128,-1,20
 -173 834 -173 834 -115 834 c 0,21,22
 -74 834 -74 834 -30 821 c 128,-1,23
 14 808 14 808 51 778 c 128,-1,24
 88 748 88 748 111 697 c 128,-1,25
 134 646 134 646 134 570 c 2,26,-1
 134 0 l 1,27,-1
 73 0 l 1,0,-1
EndSplineSet
Validated: 513
EndChar

